<svg version="1" xmlns="http://www.w3.org/2000/svg" width="933.333" height="933.333" viewBox="0 0 700.000000 700.000000"><path d="M327.8.4c-.1.2-3.9.6-8.3 1-8.9.7-14.4 1.3-22.5 2.6-3 .5-7.5 1.2-10 1.6-4.7.6-4.9.7-9 1.7-1.4.4-6.5 1.6-11.5 2.8-28.6 6.7-68 22.4-90.1 36-3.5 2.1-6.9 3.9-7.4 3.9-.6 0-1 .4-1 1 0 .5-.5 1-1.1 1-1.4 0-21 13.4-31.9 21.9-48.5 37.6-87.1 88.9-110 146.2-6.6 16.5-14.2 40.8-16.5 53-.3 1.3-1.2 5.8-2 9.9-.8 4.1-1.7 8.9-1.9 10.5-.3 1.7-.7 4.6-1.1 6.6-.6 4-1 7.4-2.2 19.9-1.5 16.2-.8 59.1 1.2 71.1.2 1.3.6 4.6.9 7.4 2.1 18.4 10.8 54.2 16.5 68 .5 1.1 3 7.5 5.5 14.2 5.4 14 18.1 39.4 24.9 50.1 2.6 4 4.7 7.6 4.7 8.1s.3 1.1.8 1.3c.4.2 3.3 4.1 6.4 8.8 22.2 33.2 57.5 68.1 92.8 91.4 22.1 14.6 37.5 23 59.3 32.2 16.5 7 44.1 15.8 59.1 19 9.7 2.1 21.5 4.1 27.6 4.9 2.5.3 5.6.7 6.9 1 13.5 2.6 70 2.6 83.9 0 1.6-.3 10.4-1.5 14.7-2 19.4-2.5 55.4-12.9 80-23.3 46.1-19.3 92.1-52.2 124-88.6 3.3-3.8 6.7-7.6 7.5-8.5 7.4-7.9 24.7-32.4 34.2-48.6 5.6-9.5 18.8-35.5 18.8-36.9 0-.3 1.1-2.9 2.4-5.8 5.7-12.7 15.1-42.1 18.2-57.3 1.6-7.7 5.4-30.1 6-35 .4-3.3.9-7.6 1.1-9.5.8-7 1-51.7.3-59.5-1.3-13.1-2.1-20.2-2.5-22.7-.3-1.3-.8-4.3-1.1-6.8-.3-2.5-.9-6.1-1.4-8-.5-1.9-1.2-5.1-1.5-7-1.2-7.2-6.5-26.9-10-37.5-10.6-31.5-22.8-56.4-41.1-84-43-64.9-106.5-113.7-180-138.4-11-3.7-33.9-9.8-43.9-11.7-2.2-.4-4.7-.9-5.5-1-.8-.2-3.3-.6-5.5-.9-2.2-.2-5.1-.7-6.5-1-1.3-.2-5.4-.7-9-1.1-3.6-.3-7.8-.8-9.5-1.1-3.3-.5-53.1-1.3-53.7-.9zm-54.3 118.9v66.2l76.5.3 76.6.2-.1-65.2c-.1-35.9.1-65.8.3-66.4.2-.8 1.6-.8 5 .3 2.6.8 5.4 1.6 6.2 1.8.8.2 5.6 1.8 10.5 3.4 54.7 18.7 105.9 54.6 140.4 98.6 3.4 4.4 6.9 8.8 7.7 9.8.8 1 4.1 5.7 7.3 10.5 23.3 34.9 39.4 73.8 46.6 112.7 1 4.9 1.8 9.7 2 10.5 2.2 11.5 3.4 28 3.5 46.5.1 18.9-.7 30.1-3.6 50.5-.4 2.8-3.2 16.5-4.9 24-1 4.7-6.9 23.9-9.8 32-19.3 53.8-56.9 104.5-102.7 138.9-5.2 3.9-9.9 7.5-10.5 7.9-7.2 5.7-39.4 23.7-51.5 28.7-2.5 1-6.3 2.6-8.5 3.6-5.8 2.4-20.8 7.6-30 10.2l-8 2.3V460.3c0-126.8-.3-186.4-1-186.6-.5-.2-35-.3-76.5-.3l-75.5.1v372l-3.4-.3c-4.1-.3-19.4-5.2-32.6-10.4-47.8-18.9-92.1-51.1-123.5-89.8-2.5-3-4.7-5.7-5-6-1.6-1.3-13.6-18.7-19.5-28-5.7-9-15.9-28.7-22-42.5-5.2-11.5-15.2-43.8-17-54.5-.3-1.9-.8-4.2-1-5-1.1-3.7-3.1-17.4-4-26.5-.3-3.3-.8-8-1-10.5-.6-5.6-.6-36.8 0-43.5.7-8.4 1.6-17.3 2-19.7.2-1.3.6-4.1 1-6.3 2.5-17.4 7.1-35.5 13.6-53.7 2.8-7.9 5.6-15.8 6.3-17.6.6-1.7 1.4-3.2 1.8-3.2.5 0 .8-.7.8-1.6 0-2.3 10.2-21.8 18.4-35.4 39.4-64.9 100-111.7 174.1-134.5 6.1-1.9 11-3.4 11-3.5v66.3z"/></svg>