<?xml version="1.0" standalone="no"?>
<!DOCTYPE svg PUBLIC "-//W3C//DTD SVG 1.1//EN" "http://www.w3.org/Graphics/SVG/1.1/DTD/svg11.dtd" >
<svg>
<metadata>
Created by FontForge 20090914 at Tue Jan 14 11:35:41 2020
 By www-data
Copyright 2017 The Spectral Project Authors (http://github.com/productiontype/spectral)
</metadata>
<defs>
<font id="Spectral-Bold" horiz-adv-x="561" >
  <font-face 
    font-family="Spectral"
    font-weight="700"
    font-stretch="normal"
    units-per-em="1000"
    panose-1="2 2 8 2 6 0 0 0 0 0"
    ascent="800"
    descent="-200"
    x-height="456"
    cap-height="660"
    bbox="-213 -250 1411 1057"
    underline-thickness="50"
    underline-position="-95"
    unicode-range="U+0020-U+FB06"
  />
<missing-glyph horiz-adv-x="500" 
d="M55 0v750h390v-750h-390zM250 406l150 312h-300zM85 62l150 313l-150 313v-626zM415 62v626l-150 -313zM100 32h300l-150 312z" />
    <glyph glyph-name="uniFB00" unicode="ff" horiz-adv-x="741" 
d="M36 0l0.00195312 15.999l67 32v363h-76v45h76v31c0 13.333 4.33301 30.833 13 52.5s21.167 44.5 37.5 68.5s35.5 46.833 57.5 68.5s46.333 39.334 73 53.001s54.667 20.5 84 20.5c6.66699 0 13 -0.666992 19 -2s11.333 -2.66602 16 -3.99902
c7.33301 -2.66699 12.166 -5.5 14.499 -8.5s3.5 -6.5 3.5 -10.5c0 -2.66699 -0.666992 -5.5 -2 -8.5s-3 -6.5 -5 -10.5l-26 -56h-9l-16 7c-6.66699 3.33301 -13.834 6.16602 -21.501 8.49902s-15.5 3.5 -23.5 3.5c-28 0 -47.333 -11.833 -58 -35.5s-16 -62.167 -16 -115.5
v-62h230v31c0 13.333 4.33301 30.833 13 52.5s21.167 44.5 37.5 68.5s35.5 46.833 57.5 68.5s46.333 39.334 73 53.001s55 20.5 85 20.5c8 0 15.667 -1 23 -3s13.666 -4.33301 18.999 -7c9.33301 -4.66699 15.666 -8.83398 18.999 -12.501s5 -8.16699 5 -13.5
c0 -6 -1.66699 -12.333 -5 -19l-27 -54h-8l-19 8c-11.333 5.33301 -21.666 9.5 -30.999 12.5s-19.666 4.5 -30.999 4.5c-28.667 0 -47.667 -11.167 -57 -33.5s-14 -60.5 -14 -114.5v-62h119v-45h-119v-364l78 -31v-16h-285v16l67 32v363h-230v-364l77 -31v-16h-285z" />
    <glyph glyph-name="uniFB01" unicode="fi" horiz-adv-x="704" 
d="M36 0l0.00195312 16l67 32v363h-76v45h76v32c0 23.333 8.5 50 25.5 80s40.833 58.833 71.5 86.5s66 50.5 106 68.5s83 27 129 27c19.333 0 36.666 -1.16699 51.999 -3.5s28.666 -5.5 39.999 -9.5c19.333 -7.33301 29 -16 29 -26c0 -5.33301 -2 -12 -6 -20l-34 -62h-10
l-24 12c-20 11.333 -38 20.333 -54 27s-34.667 10 -56 10c-45.333 0 -78 -14 -98 -42s-30 -68.333 -30 -121v-59h367v-408l60 -32v-16h-267v16l67 32v363h-227v-364l77 -31v-16h-285z" />
    <glyph glyph-name="uniFB02" unicode="fl" horiz-adv-x="696" 
d="M36 0v16l67 32v363h-76v45h76v32c0 23.333 8.5 50 25.5 80s40.833 58.833 71.5 86.5s66 50.5 106 68.5s83 27 129 27c19.333 0 36.666 -1.16699 51.999 -3.5s28.666 -5.5 39.999 -9.5c3.33301 -1.33301 6.33301 -2.66602 9 -3.99902l55 17h16v-702l60 -32v-16h-267v16
l67 32v607c-14.667 8 -29.167 14.167 -43.5 18.5s-30.166 6.5 -47.499 6.5c-45.333 0 -78.666 -14.333 -99.999 -43s-32 -69.334 -32 -122.001v-59h118v-45h-118v-364l77 -31v-16h-285z" />
    <glyph glyph-name="uniFB03" unicode="ffi" horiz-adv-x="1074" 
d="M36 0l0.000976562 15.999l67 32v363h-76v45h76v31c0 13.333 4.33301 30.833 13 52.5s21.167 44.5 37.5 68.5s35.5 46.833 57.5 68.5s46.333 39.334 73 53.001s54.667 20.5 84 20.5c6.66699 0 13 -0.666992 19 -2s11.333 -2.66602 16 -3.99902
c7.33301 -2.66699 12.166 -5.5 14.499 -8.5s3.5 -6.5 3.5 -10.5c0 -2.66699 -0.666992 -5.5 -2 -8.5s-3 -6.5 -5 -10.5l-26 -56h-9l-16 7c-6.66699 3.33301 -13.834 6.16602 -21.501 8.49902s-15.5 3.5 -23.5 3.5c-28 0 -47.333 -11.833 -58 -35.5s-16 -62.167 -16 -115.5
v-62h230v32c0 23.333 8.5 50 25.5 80s40.667 58.833 71 86.5s65.5 50.5 105.5 68.5s83 27 129 27c19.333 0 36.833 -1.16699 52.5 -3.5s29.167 -5.5 40.5 -9.5c10.667 -4 18 -8.16699 22 -12.5s6 -8.83301 6 -13.5c0 -2.66699 -0.333008 -5.66699 -1 -9s-2 -7 -4 -11
l-35 -62h-10l-23 12c-20 11.333 -38.167 20.333 -54.5 27s-34.833 10 -55.5 10c-45.333 0 -78.166 -14 -98.499 -42s-30.5 -68.333 -30.5 -121v-59h368v-408l59 -32v-16h-267v16l67 32v363h-227v-364l78 -31v-16h-285v16l67 32v363h-230v-364l77 -31v-16h-285z" />
    <glyph glyph-name="uniFB04" unicode="ffl" horiz-adv-x="1067" 
d="M36 0l0.00195312 15.999l67 32v363h-76v45h76v31c0 13.333 4.33301 30.833 13 52.5s21.167 44.5 37.5 68.5s35.5 46.833 57.5 68.5s46.333 39.334 73 53.001s54.667 20.5 84 20.5c6.66699 0 13 -0.666992 19 -2s11.333 -2.66602 16 -3.99902
c7.33301 -2.66699 12.166 -5.5 14.499 -8.5s3.5 -6.5 3.5 -10.5c0 -2.66699 -0.666992 -5.5 -2 -8.5s-3 -6.5 -5 -10.5l-26 -56h-9l-16 7c-6.66699 3.33301 -13.834 6.16602 -21.501 8.49902s-15.5 3.5 -23.5 3.5c-28 0 -47.333 -11.833 -58 -35.5s-16 -62.167 -16 -115.5
v-62h230v32c0 23.333 8.5 50 25.5 80s40.667 58.833 71 86.5s65.5 50.5 105.5 68.5s83 27 129 27c19.333 0 36.833 -1.16699 52.5 -3.5s29.167 -5.5 40.5 -9.5c3.33301 -1.33301 6.33301 -2.66602 9 -3.99902l55 17h16v-702l59 -32v-16h-267v16l67 32v607
c-14.667 8 -29.167 14.167 -43.5 18.5s-29.833 6.5 -46.5 6.5c-46 0 -79.667 -14.333 -101 -43s-32 -69.334 -32 -122.001v-59h119v-45h-119v-364l78 -31v-16h-285v16l67 32v363h-230v-364l77 -31v-16h-285z" />
    <glyph glyph-name="uni00660062" unicode="fb" horiz-adv-x="955" 
d="M36 0v16.001l67 32v363h-76v45h76v32c0 23.333 8.5 50 25.5 80s40.833 58.833 71.5 86.5s66 50.5 106 68.5s83 27 129 27c19.333 0 36.666 -1.16699 51.999 -3.5s28.666 -5.5 39.999 -9.5l6 -2l56 15h12v-345h3c25.333 21.333 49.333 36.833 72 46.5
s47.334 14.5 74.001 14.5c30 0 57.833 -8.83301 83.5 -26.5s46.167 -42.834 61.5 -75.501s23 -71.667 23 -117c0 -53.333 -10.833 -99.166 -32.5 -137.499s-50.334 -67.833 -86.001 -88.5s-74.5 -31 -116.5 -31c-28.667 0 -55.167 3 -79.5 9s-46.833 15.667 -67.5 29
l-64 -32h-12v662c-13.333 7.33301 -26.666 12.833 -39.999 16.5s-28 5.5 -44 5.5c-45.333 0 -78.666 -14.333 -99.999 -43s-32 -69.334 -32 -122.001v-59h118v-45h-118v-364l77 -31v-16h-285zM668 384.001c-12 0 -23.335 -1.66602 -34.002 -4.99902
s-21.667 -8.33301 -33 -15v-289c18.667 -22 43.334 -33 74.001 -33c16.667 0 32.834 5.16699 48.501 15.5s28.5 28.5 38.5 54.5s15 62.667 15 110c0 55.333 -11.167 96.166 -33.5 122.499s-47.5 39.5 -75.5 39.5z" />
    <glyph glyph-name="uni006600660062" unicode="ffb" horiz-adv-x="1326" 
d="M36 0l0.00292969 16.001l67 32v363h-76v45h76v31c0 13.333 4.33301 30.833 13 52.5s21.167 44.5 37.5 68.5s35.5 46.833 57.5 68.5s46.333 39.334 73 53.001s54.667 20.5 84 20.5c6.66699 0 13 -0.666992 19 -2s11.333 -2.66602 16 -3.99902
c7.33301 -2.66699 12.166 -5.5 14.499 -8.5s3.5 -6.5 3.5 -10.5c0 -2.66699 -0.666992 -5.5 -2 -8.5s-3 -6.5 -5 -10.5l-26 -56h-9l-16 7c-6.66699 3.33301 -13.834 6.16602 -21.501 8.49902s-15.5 3.5 -23.5 3.5c-28 0 -47.333 -11.833 -58 -35.5s-16 -62.167 -16 -115.5
v-62h230v32c0 23.333 8.5 50 25.5 80s40.667 58.833 71 86.5s65.5 50.5 105.5 68.5s83 27 129 27c19.333 0 36.833 -1.16699 52.5 -3.5s29.167 -5.5 40.5 -9.5c2 -0.666992 3.66699 -1.33398 5 -2.00098l56 15h12v-345h4c24.667 21.333 48.5 36.833 71.5 46.5
s47.833 14.5 74.5 14.5c30 0 57.667 -8.83301 83 -26.5s45.666 -42.834 60.999 -75.501s23 -71.667 23 -117c0 -53.333 -10.833 -99.166 -32.5 -137.499s-50.334 -67.833 -86.001 -88.5s-74.5 -31 -116.5 -31c-28.667 0 -55 3 -79 9s-46.333 15.667 -67 29l-64 -32h-12v662
c-13.333 7.33301 -26.666 12.833 -39.999 16.5s-28 5.5 -44 5.5c-46 0 -79.667 -14.333 -101 -43s-32 -69.334 -32 -122.001v-59h119v-45h-119v-364l78 -31v-16h-285v16l67 32v363h-230v-364l77 -31v-16h-285zM1038 384.001c-12 0 -23.168 -1.66602 -33.501 -4.99902
s-21.5 -8.33301 -33.5 -15v-289c19.333 -22 44.333 -33 75 -33c16.667 0 32.834 5.16699 48.501 15.5s28.5 28.5 38.5 54.5s15 62.667 15 110c0 55.333 -11.333 96.166 -34 122.499s-48 39.5 -76 39.5z" />
    <glyph glyph-name="uni00660068" unicode="fh" horiz-adv-x="988" 
d="M36 0l-0.00195312 16.0029l67 32v363h-76v45h76v32c0 23.333 8.5 50 25.5 80s40.833 58.833 71.5 86.5s66 50.5 106 68.5s83 27 129 27c19.333 0 36.666 -1.16699 51.999 -3.5s28.666 -5.5 39.999 -9.5c4.66699 -2 8.33398 -3.66699 11.001 -5l59 18h12v-358h4
c23.333 23.333 46.333 41.5 69 54.5s49.334 19.5 80.001 19.5c41.333 0 74.833 -10.333 100.5 -31s38.5 -51.334 38.5 -92.001v-295l66 -32v-16h-257v16l50 31v255c0 23.333 -6.83301 41.166 -20.5 53.499s-31.167 18.5 -52.5 18.5c-12.667 0 -26.334 -2.33301 -41.001 -7
s-27 -11 -37 -19v-301l50 -31v-16h-257v16l66 32v606c-15.333 8 -30.166 14.333 -44.499 19s-30.166 7 -47.499 7c-45.333 0 -78.666 -14.333 -99.999 -43s-32 -69.334 -32 -122.001v-59h118v-45h-118v-364l77 -31v-16h-285z" />
    <glyph glyph-name="uni006600660068" unicode="ffh" horiz-adv-x="1359" 
d="M36 0l0.00488281 16.0029l67 32v363h-76v45h76v31c0 13.333 4.33301 30.833 13 52.5s21.167 44.5 37.5 68.5s35.5 46.833 57.5 68.5s46.333 39.334 73 53.001s54.667 20.5 84 20.5c6.66699 0 13 -0.666992 19 -2s11.333 -2.66602 16 -3.99902
c7.33301 -2.66699 12.166 -5.5 14.499 -8.5s3.5 -6.5 3.5 -10.5c0 -2.66699 -0.666992 -5.5 -2 -8.5s-3 -6.5 -5 -10.5l-26 -56h-9l-16 7c-6.66699 3.33301 -13.834 6.16602 -21.501 8.49902s-15.5 3.5 -23.5 3.5c-28 0 -47.333 -11.833 -58 -35.5s-16 -62.167 -16 -115.5
v-62h230v32c0 23.333 8.5 50 25.5 80s40.667 58.833 71 86.5s65.5 50.5 105.5 68.5s83 27 129 27c19.333 0 36.833 -1.16699 52.5 -3.5s29.167 -5.5 40.5 -9.5c7.33301 -2.66699 13.666 -6 18.999 -10l59 23h12v-358h4c23.333 23.333 46.166 41.5 68.499 54.5
s49.166 19.5 80.499 19.5c40.667 0 74 -10.333 100 -31s39 -51.334 39 -92.001v-295l66 -32v-16h-258v16l51 31v255c0 23.333 -6.83301 41.166 -20.5 53.499s-31.167 18.5 -52.5 18.5c-12.667 0 -26.334 -2.33301 -41.001 -7s-27 -11 -37 -19v-301l50 -31v-16h-258v16l67 32
v602c-17.333 9.33301 -33.666 16.666 -48.999 21.999s-32.333 8 -51 8c-46 0 -79.667 -14.333 -101 -43s-32 -69.334 -32 -122.001v-59h119v-45h-119v-364l78 -31v-16h-285v16l67 32v363h-230v-364l77 -31v-16h-285z" />
    <glyph glyph-name="uni0066006A" unicode="fj" horiz-adv-x="701" 
d="M36 0l0.00195312 15.9961l67 32v363h-76v45h76v32c0 23.333 8.5 50 25.5 80s40.833 58.833 71.5 86.5s66 50.5 106 68.5s83 27 129 27c19.333 0 36.666 -1.16699 51.999 -3.5s28.666 -5.5 39.999 -9.5c19.333 -7.33301 29 -16 29 -26c0 -5.33301 -2 -12 -6 -20l-34 -62
h-10l-24 12c-20 11.333 -38 20.333 -54 27s-34.667 10 -56 10c-45.333 0 -78 -14 -98 -42s-30 -68.333 -30 -121v-59h365v-432c0 -40 -5.83301 -74.667 -17.5 -104s-32.167 -55.666 -61.5 -78.999s-70.666 -47 -123.999 -71v18c17.333 14.667 30.666 28.834 39.999 42.501
s15.5 29.334 18.5 47.001s4.5 39.834 4.5 66.501v467h-225v-364l77 -31v-16h-285z" />
    <glyph glyph-name="uni00660066006A" unicode="ffj" horiz-adv-x="1071" 
d="M36 0l0.00195312 15.9951l67 32v363h-76v45h76v31c0 13.333 4.33301 30.833 13 52.5s21.167 44.5 37.5 68.5s35.5 46.833 57.5 68.5s46.333 39.334 73 53.001s54.667 20.5 84 20.5c6.66699 0 13 -0.666992 19 -2s11.333 -2.66602 16 -3.99902
c7.33301 -2.66699 12.166 -5.5 14.499 -8.5s3.5 -6.5 3.5 -10.5c0 -2.66699 -0.666992 -5.5 -2 -8.5s-3 -6.5 -5 -10.5l-26 -56h-9l-16 7c-6.66699 3.33301 -13.834 6.16602 -21.501 8.49902s-15.5 3.5 -23.5 3.5c-28 0 -47.333 -11.833 -58 -35.5s-16 -62.167 -16 -115.5
v-62h230v32c0 23.333 8.5 50 25.5 80s40.667 58.833 71 86.5s65.5 50.5 105.5 68.5s83 27 129 27c19.333 0 36.833 -1.16699 52.5 -3.5s29.167 -5.5 40.5 -9.5c10.667 -4 18 -8.16699 22 -12.5s6 -8.83301 6 -13.5c0 -2.66699 -0.333008 -5.66699 -1 -9s-2 -7 -4 -11
l-35 -62h-10l-23 12c-20 11.333 -38.167 20.333 -54.5 27s-34.833 10 -55.5 10c-45.333 0 -78.166 -14 -98.499 -42s-30.5 -68.333 -30.5 -121v-59h366v-432c0 -40 -5.83301 -74.667 -17.5 -104s-32.334 -55.666 -62.001 -78.999s-71.167 -47 -124.5 -71v18
c18 14.667 31.5 28.834 40.5 42.501s15 29.334 18 47.001s4.5 39.834 4.5 66.501v467h-225v-364l78 -31v-16h-285v16l67 32v363h-230v-364l77 -31v-16h-285z" />
    <glyph glyph-name="uni0066006B" unicode="fk" horiz-adv-x="973" 
d="M36 0l-0.000976562 16l67 32v363h-76v45h76v32c0 23.333 8.5 50 25.5 80s40.833 58.833 71.5 86.5s66 50.5 106 68.5s83 27 129 27c19.333 0 36.666 -1.16699 51.999 -3.5s28.666 -5.5 39.999 -9.5c3.33301 -1.33301 6 -2.66602 8 -3.99902l62 17h12v-488l150 136v6
l-49 36v16h211v-16l-64 -35l-136 -107l184 -248l64 -34v-16h-196l-30 52l-134 185v-190l64 -31v-16h-271v16l66 32v606c-15.333 8 -30.166 14.333 -44.499 19s-30.166 7 -47.499 7c-45.333 0 -78.666 -14.333 -99.999 -43s-32 -69.334 -32 -122.001v-59h118v-45h-118v-364
l77 -31v-16h-285z" />
    <glyph glyph-name="uni00660066006B" unicode="ffk" horiz-adv-x="1344" 
d="M36 0v15.999l67 32v363h-76v45h76v31c0 13.333 4.33301 30.833 13 52.5s21.167 44.5 37.5 68.5s35.5 46.833 57.5 68.5s46.333 39.334 73 53.001s54.667 20.5 84 20.5c6.66699 0 13 -0.666992 19 -2s11.333 -2.66602 16 -3.99902
c7.33301 -2.66699 12.166 -5.5 14.499 -8.5s3.5 -6.5 3.5 -10.5c0 -2.66699 -0.666992 -5.5 -2 -8.5s-3 -6.5 -5 -10.5l-26 -56h-9l-16 7c-6.66699 3.33301 -13.834 6.16602 -21.501 8.49902s-15.5 3.5 -23.5 3.5c-28 0 -47.333 -11.833 -58 -35.5s-16 -62.167 -16 -115.5
v-62h230v32c0 23.333 8.5 50 25.5 80s40.667 58.833 71 86.5s65.5 50.5 105.5 68.5s83 27 129 27c19.333 0 36.833 -1.16699 52.5 -3.5s29.167 -5.5 40.5 -9.5c3.33301 -1.33301 6 -2.66602 8 -3.99902l61 17h12v-489l151 137v6l-50 36v16h212v-16l-64 -35l-136 -107
l183 -248l64 -34v-16h-195l-31 52l-134 187v-192l65 -31v-16h-272v16l67 32v606c-15.333 8 -30.166 14.333 -44.499 19s-30.166 7 -47.499 7c-46 0 -79.667 -14.333 -101 -43s-32 -69.334 -32 -122.001v-59h119v-45h-119v-364l78 -31v-16h-285v16l67 32v363h-230v-364
l77 -31v-16h-285z" />
    <glyph glyph-name="uni00660074" unicode="ft" horiz-adv-x="757" 
d="M36 0l0.00195312 16l67 32v363h-76v45h76v31c0 13.333 4.33301 30.833 13 52.5s21.167 44.5 37.5 68.5s35.666 46.833 57.999 68.5s46.833 39.334 73.5 53.001s55 20.5 85 20.5c7.33301 0 14.833 -1 22.5 -3s14.167 -4.33301 19.5 -7c16 -8 24 -16.667 24 -26
c0 -4.66699 -2 -11 -6 -19l-26 -54h-9l-19 8c-10.667 5.33301 -20.834 9.5 -30.501 12.5s-20.167 4.5 -31.5 4.5c-29.333 0 -48.333 -11.167 -57 -33.5s-13 -60.5 -13 -114.5v-62h229l100 110h20v-110h138v-45h-138v-297c0 -17.333 7.33301 -30 22 -38s32 -12 52 -12
c12 0 23 0.833008 33 2.5s19.667 3.5 29 5.5l3 -2v-17c-10.667 -16 -29 -30.5 -55 -43.5s-54.333 -19.5 -85 -19.5c-41.333 0 -75 8.66699 -101 26s-39 41.666 -39 72.999v322h-208v-364l77 -31v-16h-285z" />
    <glyph glyph-name="uni006600660074" unicode="fft" horiz-adv-x="1127" 
d="M36 0l0.00195312 16l67 32v363h-76v45h76v31c0 13.333 4.33301 30.833 13 52.5s21.167 44.5 37.5 68.5s35.5 46.833 57.5 68.5s46.333 39.334 73 53.001s54.667 20.5 84 20.5c6.66699 0 13 -0.666992 19 -2s11.333 -2.66602 16 -3.99902
c7.33301 -2.66699 12.166 -5.5 14.499 -8.5s3.5 -6.5 3.5 -10.5c0 -2.66699 -0.666992 -5.5 -2 -8.5s-3 -6.5 -5 -10.5l-26 -56h-9l-16 7c-6.66699 3.33301 -13.834 6.16602 -21.501 8.49902s-15.5 3.5 -23.5 3.5c-28 0 -47.333 -11.833 -58 -35.5s-16 -62.167 -16 -115.5
v-62h230v31c0 13.333 4.33301 30.833 13 52.5s21.167 44.5 37.5 68.5s35.5 46.833 57.5 68.5s46.333 39.334 73 53.001s55 20.5 85 20.5c8 0 15.667 -1 23 -3s13.666 -4.33301 18.999 -7c9.33301 -4.66699 15.666 -8.83398 18.999 -12.501s5 -8.16699 5 -13.5
c0 -6 -1.66699 -12.333 -5 -19l-27 -54h-8l-19 8c-11.333 5.33301 -21.666 9.5 -30.999 12.5s-19.666 4.5 -30.999 4.5c-28.667 0 -47.667 -11.167 -57 -33.5s-14 -60.5 -14 -114.5v-62h229l101 110h20v-110h138v-45h-138v-297c0 -17.333 7.16699 -30 21.5 -38
s31.833 -12 52.5 -12c12 0 23 0.833008 33 2.5s19.333 3.5 28 5.5l3 -2v-17c-10.667 -16 -29 -30.5 -55 -43.5s-54.333 -19.5 -85 -19.5c-40.667 0 -74 8.66699 -100 26s-39 41.666 -39 72.999v322h-209v-364l78 -31v-16h-285v16l67 32v363h-230v-364l77 -31v-16h-285z" />
    <glyph glyph-name=".notdef" horiz-adv-x="500" 
d="M55 0v750h390v-750h-390zM250 406l150 312h-300zM85 62l150 313l-150 313v-626zM415 62v626l-150 -313zM100 32h300l-150 312z" />
    <glyph glyph-name="uni0000" horiz-adv-x="0" 
 />
    <glyph glyph-name="uni0000" horiz-adv-x="0" 
 />
    <glyph glyph-name="uni0020" unicode=" " horiz-adv-x="250" 
 />
    <glyph glyph-name="uni0021" unicode="!" horiz-adv-x="269" 
d="M118 218l-62 442h157l-63 -442h-32zM134 -5c-20 0 -37.333 7.33301 -52 22s-22 32 -22 52c0 20.667 7.33301 38.334 22 53.001s32 22 52 22s37.333 -7.33301 52 -22s22 -32.334 22 -53.001c0 -20 -7.33301 -37.333 -22 -52s-32 -22 -52 -22z" />
    <glyph glyph-name="uni0022" unicode="&#x22;" horiz-adv-x="450" 
d="M113 490l-39 250h102l-39 -250h-24zM313 490l-39 250h102l-39 -250h-24z" />
    <glyph glyph-name="uni0023" unicode="#" 
d="M69 0l59 202h-97v49h111l44 151h-97v49h111l61 209h53l-61 -209h127l61 209h53l-61 -209h96v-49h-110l-44 -151h96v-49h-110l-59 -202h-53l59 202h-127l-59 -202h-53zM195 251h127l44 151h-127z" />
    <glyph glyph-name="uni0024" unicode="$" 
d="M220 -80l-0.000976562 74.9932c-25.333 4.66699 -47.666 11.5 -66.999 20.5s-34 18.167 -44 27.5c-16.667 14 -29 29.833 -37 47.5s-12 34.167 -12 49.5c0 13.333 4.5 22 13.5 26s17.5 6 25.5 6h43l5 -4v-27c0 -20.667 6.5 -39.167 19.5 -55.5
s30.833 -28.166 53.5 -35.499v230c-40 17.333 -71.833 35 -95.5 53s-40.5 38.333 -50.5 61s-15 49.334 -15 80.001c0 28 7.16699 54.333 21.5 79s33.666 46.334 57.999 65.001s51.5 32.334 81.5 41.001v81h38v-72c11.333 1.33301 23 2 35 2c8 0 16 -0.333008 24 -1v71h38
v-76c18 -3.33301 33.833 -8 47.5 -14s25.167 -12.667 34.5 -20c16.667 -13.333 30 -27.5 40 -42.5s15 -30.167 15 -45.5c0 -13.333 -4.16699 -22.666 -12.5 -27.999s-16.5 -8 -24.5 -8h-46l-5 4v27c0 16.667 -4.33301 30.834 -13 42.501s-20.667 20.834 -36 27.501v-224
c36 -16 65.833 -32.5 89.5 -49.5s41.334 -37 53.001 -60s17.5 -51.167 17.5 -84.5c0 -46 -15.333 -85.5 -46 -118.5s-68.667 -56.167 -114 -69.5v-81h-38v73c-14 -2 -28 -3 -42 -3h-17v-70h-38zM312.999 400.993l4.00098 -2v217c-8.66699 1.33301 -17.667 2 -27 2
c-11.333 0 -22 -1 -32 -3v-190c15.333 -7.33301 33.666 -15.333 54.999 -24zM179 529.993c0 -16 2.66699 -30.5 8 -43.5s16.333 -25.833 33 -38.5v152c-12.667 -8 -22.667 -18 -30 -30s-11 -25.333 -11 -40zM276 40.9932c14.667 0 28.333 1.33301 41 4v191
c-15.333 8 -35 17.333 -59 28v-222c6 -0.666992 12 -1 18 -1zM397.999 133.993c0 16.667 -3 31.166 -9 43.499s-17.333 24.5 -34 36.5v-155c13.333 8 23.833 18.333 31.5 31s11.5 27.334 11.5 44.001z" />
    <glyph glyph-name="uni0025" unicode="%" horiz-adv-x="792" 
d="M186 345c-47.333 0 -85.168 18.334 -113.501 55.001s-42.5 86 -42.5 148c0 38 6.83301 72.333 20.5 103s32.334 54.834 56.001 72.501s50.167 26.5 79.5 26.5c48.667 0 87.167 -18.167 115.5 -54.5s42.5 -85.5 42.5 -147.5c0 -38.667 -7 -73.334 -21 -104.001
s-32.833 -54.834 -56.5 -72.501s-50.5 -26.5 -80.5 -26.5zM193.998 373.001c10.667 0 18.668 8 24.001 24s9.16602 36 11.499 60s3.5 48.333 3.5 73c0 32.667 -1.5 63.5 -4.5 92.5s-8.33301 52.667 -16 71s-18.167 27.5 -31.5 27.5c-10.667 0 -19 -7.83301 -25 -23.5
s-10.167 -35.5 -12.5 -59.5s-3.5 -48.333 -3.5 -73c0 -32 1.66699 -62.667 5 -92s9 -53.333 17 -72s18.667 -28 32 -28zM160.999 20.001l472 730l45 -30l-472 -730zM626.999 -9.99902c-47.333 0 -85.168 18.334 -113.501 55.001s-42.5 86 -42.5 148
c0 38 6.83301 72.333 20.5 103s32.334 54.834 56.001 72.501s50.167 26.5 79.5 26.5c48.667 0 87.167 -18.167 115.5 -54.5s42.5 -85.5 42.5 -147.5c0 -38.667 -7 -73.334 -21 -104.001s-32.833 -54.834 -56.5 -72.501s-50.5 -26.5 -80.5 -26.5zM634.997 18.002
c10.667 0 18.668 8 24.001 24s9.16602 36 11.499 60s3.5 48.333 3.5 73c0 32.667 -1.5 63.5 -4.5 92.5s-8.33301 52.667 -16 71s-18.167 27.5 -31.5 27.5c-10.667 0 -19 -7.83301 -25 -23.5s-10.167 -35.5 -12.5 -59.5s-3.5 -48.333 -3.5 -73c0 -32 1.66699 -62.667 5 -92
s9 -53.333 17 -72s18.667 -28 32 -28z" />
    <glyph glyph-name="uni0026" unicode="&#x26;" horiz-adv-x="765" 
d="M248 -10c-62.667 0 -113.503 14.6709 -152.503 44.0039s-58.5 70.666 -58.5 123.999c0 37.333 11.333 71.666 34 102.999s57.334 58.666 104.001 81.999c-26.667 28 -46.667 53.667 -60 77s-20 50.666 -20 81.999c0 33.333 9.33301 62.666 28 87.999s43.834 45 75.501 59
s67.167 21 106.5 21c59.333 0 106.333 -12.667 141 -38s52 -58 52 -98c0 -28 -12.333 -54.333 -37 -79s-68 -48.667 -130 -72c6 -5.33301 12 -11.166 18 -17.499l19 -19.5l148 -150c32.667 48 62 107.667 88 179l-98 39v16h247v-16l-86 -37
c-20 -40.667 -40 -78.5 -60 -113.5s-40.333 -67.167 -61 -96.5l113 -115l83 -36v-16h-227l-63 64c-29.333 -24 -60.666 -42.333 -93.999 -55s-70 -19 -110 -19zM228.997 544.004c0 -22.667 6.33398 -43.999 19.001 -63.999s31 -42.667 55 -68
c19.333 17.333 34.166 36.833 44.499 58.5s15.5 45.5 15.5 71.5c0 22.667 -5.66699 42.167 -17 58.5s-28.333 24.5 -51 24.5c-22 0 -38.5 -7.83301 -49.5 -23.5s-16.5 -34.834 -16.5 -57.501zM171.998 199.005c0 -43.333 11.667 -77.167 35 -101.5s55.333 -36.5 96 -36.5
c41.333 0 80 12 116 36l-161 162l-26.5 26.5l-23.5 23.5c-14 -16 -23.5 -32.833 -28.5 -50.5s-7.5 -37.5 -7.5 -59.5z" />
    <glyph glyph-name="uni0027" unicode="'" horiz-adv-x="250" 
d="M113 490l-39 250h102l-39 -250h-24z" />
    <glyph glyph-name="uni0028" unicode="(" horiz-adv-x="262" 
d="M224 -150c-116.667 131.333 -174.999 279.669 -174.999 445.002s58.333 313.666 175 444.999h24v-3c-40.667 -64.667 -71.834 -131.667 -93.501 -201s-32.5 -149.666 -32.5 -240.999c0 -60.667 4.83301 -116.334 14.5 -167.001s24 -98.334 43 -143.001
s41.833 -88.667 68.5 -132v-3h-24z" />
    <glyph glyph-name="uni0029" unicode=")" horiz-adv-x="262" 
d="M14 -150l0.000976562 2.99707c26.667 43.333 49.5 87.333 68.5 132s33.333 92.334 43 143.001s14.5 106.334 14.5 167.001c0 91.333 -10.833 171.666 -32.5 240.999s-52.834 136.333 -93.501 201v3h24c116.667 -131.333 175 -279.666 175 -444.999
s-58.333 -313.666 -175 -444.999h-24z" />
    <glyph glyph-name="uni002A" unicode="*" horiz-adv-x="399" 
d="M71 473l107 100l-142 19l25 76l126 -68l-27 140h78l-26 -140l125 68l26 -76l-143 -19l107 -100l-65 -45l-63 126l-62 -126z" />
    <glyph glyph-name="uni002B" unicode="+" 
d="M70 245v54h181v183h58v-183h181v-54h-181v-183h-58v183h-181z" />
    <glyph glyph-name="uni002C" unicode="," horiz-adv-x="268" 
d="M56 -213v30.999c32.667 16 55 33.833 67 53.5s18 38.5 18 56.5c0 19.333 -4.83301 35.5 -14.5 48.5s-22.167 24.167 -37.5 33.5l-34 19l-3 12l41 68c4.66699 8 8.66699 13.667 12 17s7.66602 5 12.999 5s13.666 -3 24.999 -9c24.667 -14 43.834 -32.833 57.501 -56.5
s20.5 -49.167 20.5 -76.5c0 -37.333 -12.167 -74.166 -36.5 -110.499s-67.166 -66.833 -128.499 -91.5z" />
    <glyph glyph-name="uni002D" unicode="-" horiz-adv-x="369" 
d="M47 222v70h275v-70h-275z" />
    <glyph glyph-name="uni002E" unicode="." horiz-adv-x="268" 
d="M134 -5c-20 0 -37.333 7.33301 -52 22s-22 32 -22 52c0 20.667 7.33301 38.334 22 53.001s32 22 52 22s37.333 -7.33301 52 -22s22 -32.334 22 -53.001c0 -20 -7.33301 -37.333 -22 -52s-32 -22 -52 -22z" />
    <glyph glyph-name="uni002F" unicode="/" horiz-adv-x="250" 
d="M0 -120l200 870h50l-200 -870h-50z" />
    <glyph glyph-name="uni0030" unicode="0" 
d="M280 -10c-52 0 -96.501 13.667 -133.501 41s-65.333 66.5 -85 117.5s-29.5 111.5 -29.5 181.5c0 65.333 10.5 123.5 31.5 174.5s50.167 91.333 87.5 121s80.333 44.5 129 44.5c52 0 96.667 -13.667 134 -41s65.833 -66.5 85.5 -117.5s29.5 -111.5 29.5 -181.5
c0 -65.333 -10.667 -123.5 -32 -174.5s-50.666 -91.333 -87.999 -121s-80.333 -44.5 -129 -44.5zM296.999 39c17.333 0 31.668 11.167 43.001 33.5s19.666 53 24.999 92s8 83.833 8 134.5c0 59.333 -3.5 113.333 -10.5 162s-18.167 87.667 -33.5 117s-36 44 -62 44
c-26.667 0 -46.5 -23.5 -59.5 -70.5s-19.5 -109.833 -19.5 -188.5c0 -59.333 3.66699 -113.5 11 -162.5s19 -88.167 35 -117.5s37 -44 63 -44z" />
    <glyph glyph-name="uni0031" unicode="1" 
d="M148 0v16l95 35v494l-166 -75v40l249 150h63v-609l85 -35v-16h-326z" />
    <glyph glyph-name="uni0032" unicode="2" 
d="M52 0l0.000976562 37.001l134 147.5c35.333 39.667 63.5 73.5 84.5 101.5s36.667 53.167 47 75.5s17 44.666 20 66.999s4.5 48.166 4.5 77.499c0 32 -7.33301 59 -22 81s-37 33 -67 33c-32 0 -56.167 -10 -72.5 -30s-24.5 -48.333 -24.5 -85v-47l-7 -9h-68
c-13.333 0 -23.333 2.33301 -30 7s-10 16.334 -10 35.001c0 19.333 6 38.833 18 58.5s32 39.5 60 59.5c26 19.333 51.667 34.333 77 45s58.666 16 99.999 16c40 0 75.333 -7.83301 106 -23.5s54.5 -37 71.5 -64s25.5 -56.833 25.5 -89.5c0 -20.667 -2.5 -40 -7.5 -58
s-13.833 -36.5 -26.5 -55.5s-30.667 -40.667 -54 -65s-53.5 -52.833 -90.5 -85.5l-136.5 -117h265l58 100h16l-10 -212h-461z" />
    <glyph glyph-name="uni0033" unicode="3" 
d="M267 -10c-28.667 0 -57.499 3.66797 -86.499 11.001s-55.167 18.666 -78.5 33.999c-18.667 12.667 -34.167 26.5 -46.5 41.5s-18.5 31.5 -18.5 49.5c0 17.333 3.16699 28 9.5 32s16.166 6 29.499 6h66l10 -10v-35c0 -27.333 9.33301 -47.666 28 -60.999
s43.667 -20 75 -20c37.333 0 65.666 12.667 84.999 38s29 57.333 29 96c0 46.667 -11.833 82.667 -35.5 108s-64.167 38 -121.5 38h-53v48h50c40 0 71 13.833 93 41.5s33 61.5 33 101.5c0 76 -28.333 114 -85 114c-23.333 0 -43.166 -7.83301 -59.499 -23.5
s-24.5 -38.167 -24.5 -67.5v-44l-8 -9h-67c-12.667 0 -22.334 2.16699 -29.001 6.5s-10 15.166 -10 32.499c0 38 22 70.667 66 98c28.667 18.667 55.167 32.334 79.5 41.001s54.166 13 89.499 13c38.667 0 73.5 -6.33301 104.5 -19s55.5 -30.667 73.5 -54s27 -51.333 27 -84
c0 -26.667 -7.83301 -50.334 -23.5 -71.001s-36.667 -38 -63 -52s-56.166 -24 -89.499 -30c66.667 -8 118.5 -26.5 155.5 -55.5s55.5 -69.833 55.5 -122.5c0 -37.333 -12.167 -70.5 -36.5 -99.5s-56.166 -51.667 -95.499 -68s-82 -24.5 -128 -24.5z" />
    <glyph glyph-name="uni0034" unicode="4" 
d="M189 0v16l95 35v124h-269v29l352 456h63v-406h119v-79h-119v-124l85 -35v-16h-326zM113 254h171v227z" />
    <glyph glyph-name="uni0035" unicode="5" 
d="M229 -10c-38.667 0 -71.8311 4.83203 -99.498 14.499s-48.834 24.167 -63.501 43.5c-5.33301 7.33301 -8 14 -8 20c0 9.33301 6 18.333 18 27l52 40h14l11 -23c11.333 -24 24.666 -42.667 39.999 -56s36.333 -20 63 -20c32 0 58.333 12.333 79 37s31 57.667 31 99
c0 46.667 -14.333 83.167 -43 109.5s-75 39.5 -139 39.5c-16.667 0 -32.167 -0.833008 -46.5 -2.5s-30.5 -3.83398 -48.5 -6.50098v348h356v-101h-303v-125c10.667 0.666992 22.334 1.33398 35.001 2.00098s27 1 43 1c63.333 0 115.666 -9.33301 156.999 -28s72 -44 92 -76
s30 -68.333 30 -109c0 -44.667 -11.667 -84.667 -35 -120s-55.333 -63.166 -96 -83.499s-87 -30.5 -139 -30.5z" />
    <glyph glyph-name="uni0036" unicode="6" 
d="M283 -10c-50 0 -93.501 10.5039 -130.501 31.5039s-65.833 50.5 -86.5 88.5s-31 82.667 -31 134c0 73.333 17.333 138.666 52 195.999s83.834 105.666 147.501 144.999s139.834 67.666 228.501 84.999v-35c-78 -24 -139.167 -63 -183.5 -117
s-72.166 -118.667 -83.499 -194c17.333 22.667 39.166 40 65.499 52s56.166 18 89.499 18c37.333 0 69.333 -8.33301 96 -25s47 -39.334 61 -68.001s21 -60.667 21 -96c0 -38 -9.16699 -73.333 -27.5 -106s-45.833 -59 -82.5 -79s-82 -30 -136 -30zM189.999 243.004
c0 -64.667 8.33203 -115.002 24.999 -151.002s40.667 -54 72 -54c22 0 39.5 7.33301 52.5 22s22.5 32.834 28.5 54.501s9 42.834 9 63.501c0 41.333 -7.66699 75.333 -23 102s-39.333 40 -72 40c-19.333 0 -36.666 -4.66699 -51.999 -14s-28.333 -22 -39 -38
c-0.666992 -8 -1 -16.333 -1 -25z" />
    <glyph glyph-name="uni0037" unicode="7" 
d="M109 0c21.333 51.333 45.834 103.333 73.501 156s59.5 109.5 95.5 170.5l125 206.5h-346v127h446v-38l-98.5 -198c-33.667 -70 -64.334 -141 -92.001 -213s-48.5 -142.333 -62.5 -211h-141z" />
    <glyph glyph-name="uni0038" unicode="8" 
d="M276 -10c-44 0 -83.8311 6.49707 -119.498 19.4971s-64 31.333 -85 55s-31.5 51.5 -31.5 83.5c0 18.667 3.66699 37.334 11 56.001s20.333 37.334 39 56.001s45.667 36.667 81 54c-41.333 26 -69.833 52.5 -85.5 79.5s-23.5 58.833 -23.5 95.5
c0 32.667 10.5 62.834 31.5 90.501s48.667 49.667 83 66s71.833 24.5 112.5 24.5c38 0 72.5 -6.83301 103.5 -20.5s55.833 -32.667 74.5 -57s28 -51.833 28 -82.5c0 -27.333 -11.667 -52.333 -35 -75s-53.333 -43.334 -90 -62.001
c53.333 -29.333 91.666 -58.5 114.999 -87.5s35 -62.833 35 -101.5c0 -37.333 -10.833 -70.666 -32.5 -99.999s-50.834 -52.333 -87.501 -69s-78 -25 -124 -25zM196.002 537.997c0 -16 2.83398 -31.168 8.50098 -45.501s17.667 -29 36 -44s46.166 -32.167 83.499 -51.5
c17.333 12.667 31.333 28.5 42 47.5s16 40.833 16 65.5c0 38.667 -9.16699 67.334 -27.5 86.001s-41.5 28 -69.5 28c-26 0 -47.333 -7.66699 -64 -23s-25 -36.333 -25 -63zM159.003 162.996c0 -39.333 10.833 -70.501 32.5 -93.501s49.167 -34.5 82.5 -34.5
c34.667 0 61.167 8.83301 79.5 26.5s27.5 40.834 27.5 69.501c0 22 -4.83301 40.5 -14.5 55.5s-26.5 30.167 -50.5 45.5s-57.333 34 -100 56l-2 1c-21.333 -14.667 -35.833 -32.167 -43.5 -52.5s-11.5 -44.833 -11.5 -73.5z" />
    <glyph glyph-name="uni0039" unicode="9" 
d="M98 -10l-0.000976562 34.9961c78 24 139.167 63 183.5 117s72.166 118.667 83.499 194c-17.333 -22.667 -39.166 -40 -65.499 -52s-56.166 -18 -89.499 -18c-37.333 0 -69.333 8.33301 -96 25s-47 39.334 -61 68.001s-21 60.667 -21 96c0 38 9.16699 73.333 27.5 106
s45.666 59 81.999 79s81.833 30 136.5 30c49.333 0 92.833 -10.5 130.5 -31.5s66.834 -50.5 87.501 -88.5s31 -82.667 31 -134c0 -73.333 -17.333 -138.666 -52 -195.999s-84.167 -105.666 -148.5 -144.999s-140.5 -67.666 -228.5 -84.999zM184.999 481.996
c0 -41.333 7.5 -75.3311 22.5 -101.998s38.833 -40 71.5 -40c19.333 0 36.666 4.66699 51.999 14s28.333 22 39 38c0.666992 8 1 16.333 1 25c0 64.667 -8.5 115 -25.5 151s-40.833 54 -71.5 54c-21.333 0 -38.666 -7.33301 -51.999 -22s-22.833 -32.834 -28.5 -54.501
s-8.5 -42.834 -8.5 -63.501z" />
    <glyph glyph-name="uni003A" unicode=":" horiz-adv-x="268" 
d="M134 -5c-20 0 -37.333 7.33301 -52 22s-22 32 -22 52c0 20.667 7.33301 38.334 22 53.001s32 22 52 22s37.333 -7.33301 52 -22s22 -32.334 22 -53.001c0 -20 -7.33301 -37.333 -22 -52s-32 -22 -52 -22zM134 314c-20 0 -37.333 7.33301 -52 22s-22 32 -22 52
c0 20.667 7.33301 38.334 22 53.001s32 22 52 22s37.333 -7.33301 52 -22s22 -32.334 22 -53.001c0 -20 -7.33301 -37.333 -22 -52s-32 -22 -52 -22z" />
    <glyph glyph-name="uni003B" unicode=";" horiz-adv-x="268" 
d="M134 314c-20 0 -37.333 7.33301 -52 22s-22 32 -22 52c0 20.667 7.33301 38.334 22 53.001s32 22 52 22s37.333 -7.33301 52 -22s22 -32.334 22 -53.001c0 -20 -7.33301 -37.333 -22 -52s-32 -22 -52 -22zM56 -213v30.999c32.667 16 55 33.833 67 53.5s18 38.5 18 56.5
c0 19.333 -4.83301 35.5 -14.5 48.5s-22.167 24.167 -37.5 33.5l-34 19l-3 12l41 68c4.66699 8 8.66699 13.667 12 17s7.66602 5 12.999 5s13.666 -3 24.999 -9c24.667 -14 43.834 -32.833 57.501 -56.5s20.5 -49.167 20.5 -76.5c0 -37.333 -12.167 -74.166 -36.5 -110.499
s-67.166 -66.833 -128.499 -91.5z" />
    <glyph glyph-name="uni003C" unicode="&#x3c;" 
d="M490 62l-420 185v50l420 185v-61l-338 -149l338 -149v-61z" />
    <glyph glyph-name="uni003D" unicode="=" 
d="M70 347v54h420v-54h-420zM70 143v54h420v-54h-420z" />
    <glyph glyph-name="uni003E" unicode="&#x3e;" 
d="M70 62v61l338 149l-338 149v61l420 -185v-50z" />
    <glyph glyph-name="uni003F" unicode="?" horiz-adv-x="479" 
d="M195 218l-31.999 160.001c53.333 8.66699 93.166 24.5 119.499 47.5s39.5 52.167 39.5 87.5c0 38 -8.5 66.5 -25.5 85.5s-38.833 28.5 -65.5 28.5c-24.667 0 -45 -9 -61 -27s-24 -45 -24 -81v-34l-10 -12h-73c-11.333 0 -19.833 2.16699 -25.5 6.5s-8.5 14.833 -8.5 31.5
c0 20 5.5 38.5 16.5 55.5s26.167 32.833 45.5 47.5c24 17.333 47.833 31 71.5 41s51.834 15 84.501 15c60.667 0 108.667 -16.333 144 -49s53 -75.334 53 -128.001c0 -47.333 -17.333 -88.333 -52 -123s-85.334 -59.667 -152.001 -75l-13 -77h-32zM209.001 -4.99902
c-20 0 -37.333 7.33301 -52 22s-22 32 -22 52c0 20.667 7.33301 38.334 22 53.001s32 22 52 22s37.5 -7.33301 52.5 -22s22.5 -32.334 22.5 -53.001c0 -20 -7.5 -37.333 -22.5 -52s-32.5 -22 -52.5 -22z" />
    <glyph glyph-name="uni0040" unicode="@" horiz-adv-x="808" 
d="M370 -118c-62 0 -116.5 11.833 -163.5 35.5s-83.5 57 -109.5 100s-39 93.167 -39 150.5c0 53.333 10.333 103.833 31 151.5s49.334 89.667 86.001 126s79.167 64.833 127.5 85.5s100.166 31 155.499 31c60 0 111.833 -12 155.5 -36s77.334 -57 101.001 -99
s35.5 -89.667 35.5 -143c0 -33.333 -5.33301 -65.5 -16 -96.5s-26 -59.167 -46 -84.5s-44.167 -45.333 -72.5 -60s-59.833 -22 -94.5 -22c-29.333 0 -51 8.33301 -65 25s-19 42 -15 76c-26 -36.667 -50.167 -62.667 -72.5 -78s-46.5 -23 -72.5 -23
c-22.667 0 -41.834 9.5 -57.501 28.5s-23.5 46.5 -23.5 82.5c0 41.333 7.33301 80 22 116s34.167 67.5 58.5 94.5s51.333 48.167 81 63.5s59.5 23 89.5 23c30.667 0 56 -7.33301 76 -22l44 17h18l-52 -291c-4 -24 -4.33301 -40.333 -1 -49s11.666 -13 24.999 -13
c21.333 0 41.5 10 60.5 30s34.333 46.167 46 78.5s17.5 66.166 17.5 101.499c0 47.333 -10.833 89.833 -32.5 127.5s-52.334 67.667 -92.001 90s-86.167 33.5 -139.5 33.5c-61.333 0 -114.833 -15.5 -160.5 -46.5s-81 -72.667 -106 -125s-37.5 -110.5 -37.5 -174.5
c0 -57.333 11.167 -106.166 33.5 -146.499s53.333 -71.333 93 -93s85.834 -32.5 138.501 -32.5c43.333 0 81.666 5 114.999 15s64.333 24.667 93 44l10 -22c-35.333 -22 -72.166 -39 -110.499 -51s-83.166 -18 -134.499 -18zM330 179
c0 -29.333 2.83203 -49.833 8.49902 -61.5s15.167 -17.5 28.5 -17.5c12.667 0 25.834 5.5 39.501 16.5s27.167 26.167 40.5 45.5l36 205c-6.66699 6.66699 -13.667 12.167 -21 16.5s-16.333 6.5 -27 6.5c-19.333 0 -37 -9.66699 -53 -29s-28.667 -45 -38 -77
s-14 -67 -14 -105z" />
    <glyph glyph-name="uni0041" unicode="A" horiz-adv-x="774" 
d="M19 0v16l61 34l261 615h88l258 -613l68 -36v-16h-316v16l87 36l-68 166h-237l-68 -166l83 -36v-16h-217zM244 273h191l-95 233z" />
    <glyph glyph-name="uni0042" unicode="B" horiz-adv-x="706" 
d="M44 0l-0.000976562 16l85 41v546l-85 41v16h320c48 0 90.833 -5.5 128.5 -16.5s67.334 -27.333 89.001 -49s32.5 -49.167 32.5 -82.5c0 -34 -12.833 -65.333 -38.5 -94s-62.5 -48.667 -110.5 -60c64.667 -8.66699 115.5 -27.5 152.5 -56.5s55.5 -65.5 55.5 -109.5
c0 -36.667 -12.333 -69.5 -37 -98.5s-58.5 -51.833 -101.5 -68.5s-91.833 -25 -146.5 -25h-344zM313.999 605h-34v-240h40c44 0 78.333 10.5 103 31.5s37 49.5 37 85.5c0 82 -48.667 123 -146 123zM348.999 316l-69 -0.000976562v-261h76c49.333 0 87.833 12.333 115.5 37
s41.5 56.334 41.5 95.001c0 44 -14.167 76.5 -42.5 97.5s-68.833 31.5 -121.5 31.5z" />
    <glyph glyph-name="uni0043" unicode="C" horiz-adv-x="711" 
d="M399 -10c-70 0 -131.333 14.3301 -184 42.9971s-93.5 67.5 -122.5 116.5s-43.5 104.5 -43.5 166.5c0 50 10 96.333 30 139s47.167 80.167 81.5 112.5s73.333 57.5 117 75.5s89.5 27 137.5 27c35.333 0 64.666 -2 87.999 -6s44.333 -9.66699 63 -17
s37.334 -15.666 56.001 -24.999l11 -187h-18l-95 155c-16.667 10.667 -32.334 18.334 -47.001 23.001s-32.334 7 -53.001 7c-40.667 0 -77.167 -12.167 -109.5 -36.5s-57.833 -58.666 -76.5 -102.999s-28 -95.833 -28 -154.5c0 -58 9 -108.167 27 -150.5s42.5 -75 73.5 -98
s65.833 -34.5 104.5 -34.5c24.667 0 46.834 3.16699 66.501 9.5s38.5 14.5 56.5 24.5l90 134h17l-14 -169c-27.333 -16 -60.166 -28.667 -98.499 -38s-81.5 -14 -129.5 -14z" />
    <glyph glyph-name="uni0044" unicode="D" horiz-adv-x="802" 
d="M44 0l0.000976562 15.999l85 41v546l-85 41v16h341c79.333 0 146.666 -13 201.999 -39s97.5 -61.667 126.5 -107s43.5 -96.666 43.5 -153.999c0 -52 -9.5 -100 -28.5 -144s-45.5 -82 -79.5 -114s-74 -57 -120 -75s-96.333 -27 -151 -27h-334zM344.001 604.999h-64v-550
h78c77.333 0 137 24.833 179 74.5s63 116.167 63 199.5c0 84 -21.5 151 -64.5 201s-106.833 75 -191.5 75z" />
    <glyph glyph-name="uni0045" unicode="E" horiz-adv-x="681" 
d="M44 0v16l85 41v546l-85 41v16h545v-173h-16l-74 118h-219v-237h154l56 86h16v-225h-16l-56 84h-154v-258h243l78 149h16v-204h-573z" />
    <glyph glyph-name="uni0046" unicode="F" horiz-adv-x="631" 
d="M44 0v16l85 41v546l-85 41v16h535v-173h-16l-68 118h-215v-240h144l56 86h16v-219h-16l-56 84h-144v-259l102 -41v-16h-338z" />
    <glyph glyph-name="uni0047" unicode="G" horiz-adv-x="756" 
d="M395 -10c-48 0 -92.8271 8.16602 -134.494 24.499s-78.334 39.166 -110.001 68.499s-56.334 63.833 -74.001 103.5s-26.5 82.834 -26.5 129.501c0 51.333 10 98.5 30 141.5s47.667 80.5 83 112.5s75.666 56.667 120.999 74s93 26 143 26c35.333 0 65.5 -2 90.5 -6
s47.333 -9.66699 67 -17s39.167 -15.666 58.5 -24.999l11 -176h-18l-96 145c-18 11.333 -35.333 19.166 -52 23.499s-35.667 6.5 -57 6.5c-42 0 -80 -12 -114 -36s-61 -57.5 -81 -100.5s-30 -93.167 -30 -150.5c0 -60 9.66699 -111.5 29 -154.5s45.5 -76.167 78.5 -99.5
s69.833 -35 110.5 -35c11.333 0 23.666 0.5 36.999 1.5s26.666 2.83301 39.999 5.5v185l-89 47v16h314v-16l-75 -48v-162c-20.667 -17.333 -45.5 -32.166 -74.5 -44.499s-59.333 -22 -91 -29s-61.834 -10.5 -90.501 -10.5z" />
    <glyph glyph-name="uni0048" unicode="H" horiz-adv-x="836" 
d="M44 0v16l85 41v546l-85 41v16h314v-16l-78 -41v-236h277v236l-80 41v16h315v-16l-84 -41v-546l84 -41v-16h-315v16l80 41v255h-277v-255l78 -41v-16h-314z" />
    <glyph glyph-name="uni0049" unicode="I" horiz-adv-x="413" 
d="M46 0v16l85 41v546l-85 41v16h321v-16l-85 -41v-546l85 -41v-16h-321z" />
    <glyph glyph-name="uni004A" unicode="J" horiz-adv-x="432" 
d="M58 -173c-9.33301 0 -17.001 2.16602 -23.001 6.49902s-9 11.833 -9 22.5c0 6 1.16699 14.833 3.5 26.5l9.5 47.5h9c9.33301 -2.66699 17 -4.66699 23 -6s12.667 -2 20 -2c12 0 22.5 2.83301 31.5 8.5s15.833 17.667 20.5 36s7 46.166 7 83.499v553l-85 41v16h321v-16
l-85 -41v-358c0 -51.333 -6.16699 -98.666 -18.5 -141.999s-27.5 -81.333 -45.5 -114s-35.667 -58.667 -53 -78c-23.333 -27.333 -44.666 -48.166 -63.999 -62.499s-40 -21.5 -62 -21.5z" />
    <glyph glyph-name="uni004B" unicode="K" horiz-adv-x="774" 
d="M44 0v16l85 41v546l-85 41v16h321v-16l-85 -41v-546l85 -41v-16h-321zM280 333l274 274l-74 37v16h236v-16l-66 -28l-232 -223l278 -348l70 -29v-16h-222z" />
    <glyph glyph-name="uni004C" unicode="L" horiz-adv-x="649" 
d="M44 0v16l85 41v546l-85 41v16h331v-16l-95 -41v-548h220l81 189h16v-244h-553z" />
    <glyph glyph-name="uni004D" unicode="M" horiz-adv-x="995" 
d="M42 0v16l85 41l21 546l-88 41v16h248l201 -465l199 465h240v-16l-87 -31l17 -556l76 -41v-16h-303v16l80 40l-10 475l-228 -536h-56l-230 534l-13 -473l87 -40v-16h-239z" />
    <glyph glyph-name="uni004E" unicode="N" horiz-adv-x="816" 
d="M42 0v16l85 41v545l-85 42v16h190l388 -438v382l-114 40v16h268v-16l-84 -41v-608h-62l-431 482v-420l114 -41v-16h-269z" />
    <glyph glyph-name="uni004F" unicode="O" horiz-adv-x="789" 
d="M394 -10c-49.333 0 -95 8.5 -137 25.5s-78.5 40.667 -109.5 71s-55.167 66.166 -72.5 107.499s-26 86.666 -26 135.999s8.66699 94.666 26 135.999s41.5 77.166 72.5 107.499s67.5 54 109.5 71s87.667 25.5 137 25.5c50 0 96 -8.5 138 -25.5s78.5 -40.667 109.5 -71
s55.167 -66.166 72.5 -107.499s26 -86.666 26 -135.999s-8.66699 -94.666 -26 -135.999s-41.5 -77.166 -72.5 -107.499s-67.5 -54 -109.5 -71s-88 -25.5 -138 -25.5zM410 42c33.333 0 62.833 10.667 88.5 32s45.667 51.333 60 90s21.5 84 21.5 136
c0 64 -8.83301 120 -26.5 168s-41.5 85.167 -71.5 111.5s-63.667 39.5 -101 39.5c-33.333 0 -63 -10.5 -89 -31.5s-46.5 -50.833 -61.5 -89.5s-22.5 -84 -22.5 -136c0 -64 9 -120 27 -168s42.333 -85.333 73 -112s64.667 -40 102 -40z" />
    <glyph glyph-name="uni0050" unicode="P" horiz-adv-x="684" 
d="M44 0v15.999l85 41v546l-85 41v16h346c78.667 0 141.834 -14.167 189.501 -42.5s71.5 -73.5 71.5 -135.5c0 -37.333 -12.5 -70.166 -37.5 -98.499s-58.833 -50.333 -101.5 -66s-91.334 -23.5 -146.001 -23.5h-86v-237l102 -41v-16h-338zM280 604.999v-262.001h48
c53.333 0 95 12.333 125 37s45 55.667 45 93c0 46.667 -15.333 80.334 -46 101.001s-74 31 -130 31h-42z" />
    <glyph glyph-name="uni0051" unicode="Q" horiz-adv-x="789" 
d="M686 -155c-31.333 0 -63.667 4.16797 -97 12.501s-70.166 23.166 -110.499 44.499s-85.833 51.666 -136.5 90.999c-56.667 8 -107.167 27.333 -151.5 58s-79 70 -104 118s-37.5 101.667 -37.5 161c0 49.333 8.66699 94.666 26 135.999s41.5 77.166 72.5 107.499
s67.5 54 109.5 71s87.667 25.5 137 25.5c50 0 96 -8.5 138 -25.5s78.5 -40.667 109.5 -71s55.167 -66.166 72.5 -107.499s26 -86.666 26 -135.999c0 -52 -9.66699 -99.667 -29 -143s-46.333 -80.5 -81 -111.5s-75 -53.833 -121 -68.5
c55.333 -46.667 101.333 -78.5 138 -95.5s69.667 -25.5 99 -25.5c14.667 0 27.5 1 38.5 3s20.167 4 27.5 6v-23c-14.667 -7.33301 -32.334 -13.666 -53.001 -18.999s-45 -8 -73 -8zM409.999 42.001c33.333 0 62.833 10.667 88.5 32s45.667 51.333 60 90s21.5 84 21.5 136
c0 64 -8.83301 120 -26.5 168s-41.5 85.167 -71.5 111.5s-63.667 39.5 -101 39.5c-33.333 0 -63 -10.5 -89 -31.5s-46.5 -50.833 -61.5 -89.5s-22.5 -84 -22.5 -136c0 -64 9 -120 27 -168s42.333 -85.333 73 -112s64.667 -40 102 -40z" />
    <glyph glyph-name="uni0052" unicode="R" horiz-adv-x="727" 
d="M44 0v15.999l85 41v546l-85 41v16h342c70 0 125.167 -14.5 165.5 -43.5s60.5 -68.833 60.5 -119.5c0 -36.667 -12.333 -68.167 -37 -94.5s-57 -47.166 -97 -62.499l185 -284l72 -40v-16h-217l-185 306h-53v-248l75 -42v-16h-311zM320 604.999l-40 0.000976562v-250h46
c41.333 0 74 11.667 98 35s36 53.666 36 90.999c0 39.333 -11.833 69.833 -35.5 91.5s-58.5 32.5 -104.5 32.5z" />
    <glyph glyph-name="uni0053" unicode="S" horiz-adv-x="572" 
d="M271 -10c-44 0 -82.8359 4.49805 -116.503 13.498s-66.167 21.5 -97.5 37.5l-10 169h18l71 -123c18 -14.667 37.5 -26 58.5 -34s42.5 -12 64.5 -12c36 0 65.333 8.5 88 25.5s34 42.167 34 75.5c0 22.667 -5.16699 41.334 -15.5 56.001s-27.5 28.5 -51.5 41.5
s-57 28.833 -99 47.5c-47.333 20.667 -83.666 45.334 -108.999 74.001s-38 64.334 -38 107.001c0 26.667 6.83301 52.167 20.5 76.5s32 46 55 65s48.667 33.833 77 44.5s57.5 16 87.5 16c34 0 66.667 -4 98 -12s60.333 -19.333 87 -34l10 -160h-17l-70 113
c-17.333 13.333 -34.166 23.5 -50.499 30.5s-34.833 10.5 -55.5 10.5c-27.333 0 -50 -8.66699 -68 -26s-27 -40.333 -27 -69c0 -27.333 9.83301 -49.833 29.5 -67.5s53.834 -37.5 102.501 -59.5c60.667 -28 105.334 -56.667 134.001 -86s43 -68 43 -116
c0 -42.667 -12.333 -79.334 -37 -110.001s-56.334 -54 -95.001 -70s-79 -24 -121 -24z" />
    <glyph glyph-name="uni0054" unicode="T" horiz-adv-x="701" 
d="M169 0v16l106 41v548h-143l-80 -165h-16v220h629v-220h-16l-80 165h-143v-548l106 -41v-16h-363z" />
    <glyph glyph-name="uni0055" unicode="U" horiz-adv-x="838" 
d="M423 -10c-58 0 -108.997 9.5 -152.997 28.5s-78.333 50 -103 93s-37 100.5 -37 172.5v319l-86 41v16h323v-16l-86 -41v-320c0 -55.333 8.5 -98.833 25.5 -130.5s40 -54.167 69 -67.5s61.167 -20 96.5 -20c29.333 0 56.666 6 81.999 18s45.666 31.5 60.999 58.5
s23 62.5 23 106.5v357l-94 39v16h250v-16l-86 -40v-320c0 -72 -12 -129.5 -36 -172.5s-57.333 -74 -100 -93s-92.334 -28.5 -149.001 -28.5z" />
    <glyph glyph-name="uni0056" unicode="V" horiz-adv-x="764" 
d="M356 -5l-266 610l-71 39v16h312v-16l-82 -39l178 -409h8l176 410l-81 38v16h214v-16l-58 -32l-272 -617h-58z" />
    <glyph glyph-name="uni0057" unicode="W" horiz-adv-x="1042" 
d="M281 -5l-192 609l-77 40v16h315v-16l-84 -38l115 -385h5l174 444h59l173 -444h5l116 384l-86 39v16h226v-16l-67 -36l-196 -613h-58l-179 444h-7l-184 -444h-58z" />
    <glyph glyph-name="uni0058" unicode="X" horiz-adv-x="780" 
d="M26 0v16l79 40l208 255l-209 296l-66 37v16h330v-16l-79 -39v-5l136 -188l150 188v4l-78 40v16h235v-16l-67 -35l-204 -247l222 -306l71 -40v-16h-335v16l72 38v4l-142 202l-161 -201l-2 -4l80 -39v-16h-240z" />
    <glyph glyph-name="uni0059" unicode="Y" horiz-adv-x="754" 
d="M216 0v16l90 41v251l-218 297l-68 39v16h309v-16l-75 -37v-4l174 -235l156 233v4l-77 39v16h228v-16l-67 -33l-211 -302v-252l89 -41v-16h-330z" />
    <glyph glyph-name="uni005A" unicode="Z" horiz-adv-x="701" 
d="M84 0v32l341 573h-239l-74 -149h-16v204h510v-32l-343 -573h259l79 159h16v-214h-533z" />
    <glyph glyph-name="uni005B" unicode="[" horiz-adv-x="262" 
d="M59 -150v890h186v-26h-116v-838h116v-26h-186z" />
    <glyph glyph-name="uni005C" unicode="\" horiz-adv-x="250" 
d="M200 -120l-200 870h50l200 -870h-50z" />
    <glyph glyph-name="uni005D" unicode="]" horiz-adv-x="262" 
d="M17 -150v26h116v838h-116v26h186v-890h-186z" />
    <glyph glyph-name="uni005E" unicode="^" 
d="M70 250l185 420h50l185 -420h-61l-149 338l-149 -338h-61z" />
    <glyph glyph-name="uni005F" unicode="_" horiz-adv-x="500" 
d="M25 -140v50h450v-50h-450z" />
    <glyph glyph-name="uni0060" unicode="`" horiz-adv-x="500" 
d="M324 530l-131 108c-15.333 12.667 -25.833 24.167 -31.5 34.5s-8.5 21.833 -8.5 34.5h110l83 -177h-22z" />
    <glyph glyph-name="uni0061" unicode="a" horiz-adv-x="514" 
d="M151 -9c-32.667 0 -60.666 9.83398 -83.999 29.501s-34.333 48.167 -33 85.5c0 24 4.66699 44.5 14 61.5s25.666 31.833 48.999 44.5s56 24.334 98 35.001l94 23v62c0 25.333 -7.66699 45.666 -23 60.999s-35 23 -59 23c-21.333 0 -36.666 -4.66699 -45.999 -14
s-14 -23.333 -14 -42v-46l-4 -4h-66c-10 0 -17 2.33301 -21 7s-6 12.667 -6 24c0 14.667 5.83301 29 17.5 43s27.167 27 46.5 39c24 15.333 46.5 26.333 67.5 33s43.833 10 68.5 10c32.667 0 62.667 -4.33301 90 -13s49.166 -22.5 65.499 -41.5s24.5 -43.5 24.5 -73.5v-264
c10.667 -10.667 26.667 -16 48 -16h29l3 -3v-14c-7.33301 -12.667 -19.833 -24.334 -37.5 -35.001s-40.5 -16 -68.5 -16s-50.833 5.83301 -68.5 17.5s-31.167 28.5 -40.5 50.5h-6c-16.667 -18.667 -36.667 -34.5 -60 -47.5s-49.333 -19.5 -78 -19.5zM166.001 134.001
c0 -21.333 5.83301 -37.167 17.5 -47.5s27.834 -15.5 48.501 -15.5c18 0 37 4 57 12v147c-33.333 -7.33301 -58.833 -15.333 -76.5 -24s-29.834 -18.667 -36.501 -30s-10 -25.333 -10 -42z" />
    <glyph glyph-name="uni0062" unicode="b" horiz-adv-x="582" 
d="M90 -4l-0.000976562 640.001l-64 47v12l192 55h12v-344h6c24 21.333 47.333 36.666 70 45.999s47.334 14 74.001 14c29.333 0 56.833 -8.83301 82.5 -26.5s46.167 -42.834 61.5 -75.501s23 -71.667 23 -117c0 -53.333 -10.833 -99.166 -32.5 -137.499
s-50.167 -67.833 -85.5 -88.5s-74.333 -31 -117 -31c-28.667 0 -55 3 -79 9s-46.333 15.667 -67 29l-64 -32h-12zM296.999 384.001c-12 0 -23.168 -1.66602 -33.501 -4.99902s-21.5 -8.33301 -33.5 -15v-289c19.333 -22 44.333 -33 75 -33
c16.667 0 32.834 5.16699 48.501 15.5s28.5 28.5 38.5 54.5s15 62.667 15 110c0 55.333 -11.333 96.166 -34 122.499s-48 39.5 -76 39.5z" />
    <glyph glyph-name="uni0063" unicode="c" horiz-adv-x="484" 
d="M254 -10c-42.667 0 -80.332 8.99902 -112.999 26.999s-58 43.333 -76 76s-27 70.667 -27 114c0 50.667 10.5 95.5 31.5 134.5s50.333 69.5 88 91.5s81.5 33 131.5 33c31.333 0 59.666 -4.33301 84.999 -13s44.333 -20.667 57 -36c10.667 -12.667 16 -22.667 16 -30
c0 -8 -4.33301 -16 -13 -24l-47 -40h-7l-35 49c-11.333 15.333 -22.666 27.5 -33.999 36.5s-26.333 13.5 -45 13.5c-30.667 0 -53.834 -15.167 -69.501 -45.5s-23.5 -70.833 -23.5 -121.5c0 -28.667 5 -55 15 -79s25.833 -43 47.5 -57s49.834 -21 84.501 -21
c18.667 0 38.667 2.33301 60 7s43.333 12.667 66 24h3v-16c-16.667 -35.333 -41.834 -64.666 -75.501 -87.999s-73.5 -35 -119.5 -35z" />
    <glyph glyph-name="uni0064" unicode="d" horiz-adv-x="583" 
d="M200 -10c-29.333 0 -56.8301 8.33105 -82.4971 24.998s-46.334 40.334 -62.001 71.001s-23.5 67 -23.5 109c0 55.333 10 103.333 30 144s47.667 72 83 94s76 33 122 33c32 0 59.667 -3 83 -9v179l-69 48v11l197 55h12v-705l70 -29v-16h-200l-8 50h-7
c-24.667 -21.333 -48.334 -36.666 -71.001 -45.999s-47.334 -14 -74.001 -14zM173.003 225.998c0 -53.333 11.333 -92.333 34 -117s48 -37 76 -37c12 0 23.167 1.66699 33.5 5s21.5 8.33301 33.5 15v290c-8.66699 10 -18.667 17.667 -30 23s-24 8 -38 8
c-19.333 0 -37.333 -5.33301 -54 -16s-30 -29.5 -40 -56.5s-15 -65.167 -15 -114.5z" />
    <glyph glyph-name="uni0065" unicode="e" horiz-adv-x="496" 
d="M260 -10c-68.667 0 -122.833 19.832 -162.5 59.499s-59.5 92.167 -59.5 157.5c0 50.667 11 95.5 33 134.5s51.667 69.5 89 91.5s79 33 125 33c54 0 96 -18 126 -54s45.333 -87 46 -153l-4 -5h-280v-5c0 -28 5.33301 -53.5 16 -76.5s27.5 -41.167 50.5 -54.5
s52.833 -20 89.5 -20c19.333 0 39.5 2.33301 60.5 7s42.833 12.667 65.5 24h3v-16c-16.667 -35.333 -42.167 -64.666 -76.5 -87.999s-74.833 -35 -121.5 -35zM262.001 420.999c-23.333 0 -42.5 -10.667 -57.5 -32s-24.5 -51.333 -28.5 -90h169
c-4.66699 46 -14.167 77.833 -28.5 95.5s-32.5 26.5 -54.5 26.5z" />
    <glyph glyph-name="uni0066" unicode="f" horiz-adv-x="371" 
d="M36 0l0.00195312 16.001l67 32v363h-76v45h76v31c0 18.667 5.16699 39.5 15.5 62.5s24.666 46.167 42.999 69.5s38.833 45 61.5 65s46.667 36 72 48s50.333 18 75 18c7.33301 0 14.833 -1 22.5 -3s14.167 -4.33301 19.5 -7c16 -8.66699 24 -17.334 24 -26.001
c0 -4.66699 -2 -11 -6 -19l-26 -54h-9l-19 8c-10.667 5.33301 -20.834 9.5 -30.501 12.5s-20.167 4.5 -31.5 4.5c-29.333 0 -48.333 -11.167 -57 -33.5s-13 -60.5 -13 -114.5v-62h118v-45h-118v-364l77 -31v-16h-285z" />
    <glyph glyph-name="uni0067" unicode="g" horiz-adv-x="541" 
d="M257 152c-31.333 0 -60.3369 5.33398 -87.0039 16.001c-14.667 -9.33301 -22 -22.333 -22 -39c0 -32 25.667 -48 77 -48h110c52.667 0 91.334 -11.5 116.001 -34.5s37 -56.833 37 -101.5c0 -30.667 -10.667 -60.167 -32 -88.5s-51.5 -51.5 -90.5 -69.5
s-85.5 -27 -139.5 -27c-64.667 0 -111 10.167 -139 30.5s-42 45.833 -42 76.5c0 12 1.5 22.833 4.5 32.5s7.5 19.5 13.5 29.5l63 40v5c-51.333 16.667 -77 49.667 -77 99c0 30.667 9.33301 55.667 28 75l57 33v6c-21.333 14 -38.166 31.5 -50.499 52.5
s-18.5 44.167 -18.5 69.5c0 30 8.5 56.667 25.5 80s39.833 41.833 68.5 55.5s61.334 20.5 98.001 20.5c19.333 0 38.333 -2 57 -6s33.334 -8.66699 44.001 -14l154 10v-60l-100 8l-4 -4c12 -10.667 21.667 -24 29 -40s11 -32.667 11 -50c0 -30 -8.33301 -56.833 -25 -80.5
s-39.5 -42.334 -68.5 -56.001s-61.5 -20.5 -97.5 -20.5zM263.996 195.001c21.333 0 37.5 10.168 48.5 30.501s16.5 47.166 16.5 80.499c0 38 -7 67.167 -21 87.5s-32 30.5 -54 30.5c-22.667 0 -39.667 -10.333 -51 -31s-17 -47.667 -17 -81c0 -38 7 -67 21 -87
s33 -30 57 -30zM129.996 -113.998c0 -26 8.99805 -47.501 26.998 -64.501s44.333 -25.5 79 -25.5c42.667 0 76.334 9.83301 101.001 29.5s37 42.834 37 69.501c0 25.333 -6.66699 43 -20 53s-36.666 15 -69.999 15h-86c-10 0 -19.667 0.333008 -29 1
c-26 -16.667 -39 -42.667 -39 -78z" />
    <glyph glyph-name="uni0068" unicode="h" horiz-adv-x="618" 
d="M31 0l-0.000976562 16.0029l67 32v588l-64 47v12l192 55h12v-358h4c24 23.333 47.333 41.5 70 54.5s49.334 19.5 80.001 19.5c40.667 0 73.834 -10.333 99.501 -31s38.5 -51.334 38.5 -92.001v-295l67 -32v-16h-258v16l50 31v255c0 23.333 -6.83301 41.166 -20.5 53.499
s-30.834 18.5 -51.501 18.5c-12.667 0 -26.5 -2.33301 -41.5 -7s-27.5 -11.334 -37.5 -20.001v-300l51 -31v-16h-258z" />
    <glyph glyph-name="uni0069" unicode="i" horiz-adv-x="333" 
d="M168 565c-21.333 0 -38.833 6.83301 -52.5 20.5s-20.5 30.834 -20.5 51.501c0 21.333 6.83301 38.833 20.5 52.5s31.167 20.5 52.5 20.5s38.833 -6.83301 52.5 -20.5s20.5 -31.167 20.5 -52.5c0 -20.667 -6.83301 -37.834 -20.5 -51.501s-31.167 -20.5 -52.5 -20.5zM33 0
v16l67 32v304l-64 47v12l193 55h12v-418l59 -32v-16h-267z" />
    <glyph glyph-name="uni006A" unicode="j" horiz-adv-x="330" 
d="M166 565c-21.333 0 -38.833 6.83301 -52.5 20.5s-20.5 30.834 -20.5 51.501c0 21.333 6.83301 38.833 20.5 52.5s31.167 20.5 52.5 20.5s38.833 -6.83301 52.5 -20.5s20.5 -31.167 20.5 -52.5c0 -20.667 -6.83301 -37.834 -20.5 -51.501s-31.167 -20.5 -52.5 -20.5z
M35 -230v17.9961c18 14.667 31.5 28.834 40.5 42.501s15 29.334 18 47.001s4.5 39.834 4.5 66.501v408l-63 47v12l192 55h12v-442c0 -40 -5.83301 -74.667 -17.5 -104s-32.167 -55.666 -61.5 -78.999s-71 -47 -125 -71z" />
    <glyph glyph-name="uni006B" unicode="k" horiz-adv-x="603" 
d="M31 0v16l67 32v588l-64 47v12l192 55h12v-489l150 137v6l-49 36v16h212v-16l-64 -35l-136 -107l183 -248l64 -34v-16h-195l-31 52l-134 187v-192l65 -31v-16h-272z" />
    <glyph glyph-name="uni006C" unicode="l" horiz-adv-x="326" 
d="M29 0v16l67 32v588l-64 47v12l193 55h12v-702l59 -32v-16h-267z" />
    <glyph glyph-name="uni006D" unicode="m" horiz-adv-x="901" 
d="M31 0l0.00195312 16.002l67 32v304l-64 41v12l182 61h12l9 -74h5c23.333 23.333 46 41.5 68 54.5s48.333 19.5 79 19.5c32.667 0 60.667 -7 84 -21s38.666 -35 45.999 -63h4c25.333 26.667 49.5 47.334 72.5 62.001s50.833 22 83.5 22
c39.333 0 71.666 -10.333 96.999 -31s38 -51.334 38 -92.001v-295l66 -32v-16h-258v16l51 32v254c0 23.333 -6.5 41.166 -19.5 53.499s-29.833 18.5 -50.5 18.5c-14.667 0 -29 -2.66699 -43 -8s-26 -13 -36 -23v0v-295l50 -32v-16h-240v16l49 32v254
c0 23.333 -6.5 41.166 -19.5 53.499s-29.833 18.5 -50.5 18.5c-12 0 -25 -2.33301 -39 -7s-26 -11 -36 -19v-300l48 -32v-16h-255z" />
    <glyph glyph-name="uni006E" unicode="n" horiz-adv-x="618" 
d="M31 0l-0.000976562 16.0029l67 32v304l-64 41v12l182 61h12l9 -74h5c24 23.333 47.333 41.5 70 54.5s49.334 19.5 80.001 19.5c40.667 0 73.834 -10.333 99.501 -31s38.5 -51.334 38.5 -92.001v-295l67 -32v-16h-258v16l50 32v254c0 23.333 -6.83301 41.166 -20.5 53.499
s-30.834 18.5 -51.501 18.5c-12.667 0 -26.5 -2.33301 -41.5 -7s-27.5 -11.334 -37.5 -20.001v-299l51 -32v-16h-258z" />
    <glyph glyph-name="uni006F" unicode="o" horiz-adv-x="547" 
d="M274 -10c-47.333 0 -89 10.833 -125 32.5s-64 50.5 -84 86.5s-30 75.667 -30 119c0 44 10 84 30 120s48 64.667 84 86s77.667 32 125 32s88.833 -10.667 124.5 -32s63.5 -50 83.5 -86s30 -76 30 -120c0 -43.333 -10 -83 -30 -119s-47.833 -64.833 -83.5 -86.5
s-77.167 -32.5 -124.5 -32.5zM285 39c19.333 0 35.166 7.83496 47.499 23.502s21.333 36.5 27 62.5s8.5 53.667 8.5 83c0 36 -3.5 70 -10.5 102s-18 58 -33 78s-34.833 30 -59.5 30c-20 0 -36.333 -7.83301 -49 -23.5s-22 -36.334 -28 -62.001s-9 -53.5 -9 -83.5
c0 -36.667 3.66699 -70.834 11 -102.501s18.833 -57.5 34.5 -77.5s35.834 -30 60.501 -30z" />
    <glyph glyph-name="uni0070" unicode="p" horiz-adv-x="589" 
d="M31 -230l-0.00292969 16l67 32v528l-64 47v12l182 61h12l8 -61h6c24.667 21.333 48.5 36.833 71.5 46.5s47.833 14.5 74.5 14.5c29.333 0 56.833 -8.83301 82.5 -26.5s46.167 -42.834 61.5 -75.501s23 -71.667 23 -117c0 -53.333 -10.667 -99.166 -32 -137.499
s-49.666 -67.833 -84.999 -88.5s-73.666 -31 -114.999 -31c-15.333 0 -30.166 0.666992 -44.499 2s-27.833 4 -40.5 8v-182l78 -32v-16h-285zM304.997 384c-12 0 -23.166 -1.66699 -33.499 -5s-21.5 -8.33301 -33.5 -15v-289c19.333 -22 45.666 -33 78.999 -33
c16 0 31.5 5 46.5 15s27.333 27.667 37 53s14.5 61.333 14.5 108c0 57.333 -11.333 99.333 -34 126s-48 40 -76 40z" />
    <glyph glyph-name="uni0071" unicode="q" horiz-adv-x="580" 
d="M273 -230l-0.000976562 15.999l78 30v232h-7c-25.333 -21.333 -49.333 -36.333 -72 -45s-46 -13 -70 -13c-30 0 -57.833 8.33301 -83.5 25s-46.167 40.334 -61.5 71.001s-23 67 -23 109c0 55.333 10.333 103.333 31 144s49.334 72 86.001 94s79 33 127 33
c24 0 45.5 -2 64.5 -6s37.833 -10.333 56.5 -19l81 25h12v-648l66 -32v-16h-285zM174.999 224.999c0 -52.667 11.167 -91.335 33.5 -116.002s47.5 -37 75.5 -37c10 0 20.333 1.5 31 4.5s22.667 8.16699 36 15.5v261c0 14.667 -0.5 24.334 -1.5 29.001s-3.5 8.66699 -7.5 12
c-8 6.66699 -17.333 11.5 -28 14.5s-22 4.5 -34 4.5c-19.333 0 -37 -5.33301 -53 -16s-28.667 -29.667 -38 -57s-14 -65.666 -14 -114.999z" />
    <glyph glyph-name="uni0072" unicode="r" horiz-adv-x="425" 
d="M33 0l0.000976562 16l66 32v298l-63 47v12l182 61h12l9 -90h5c16 25.333 30.333 44.5 43 57.5s24.667 21.667 36 26s23.666 6.5 36.999 6.5c5.33301 0 11.5 -0.833008 18.5 -2.5s13.167 -3.5 18.5 -5.5c20 -6 30 -15.333 30 -28c0 -6 -1.33301 -11.667 -4 -17l-24 -65h-7
l-26 9c-17.333 6 -35 9 -53 9c-28 0 -52.333 -13 -73 -39v-279l81 -32v-16h-288z" />
    <glyph glyph-name="uni0073" unicode="s" horiz-adv-x="437" 
d="M209 -10c-32.667 0 -61.1709 3.16992 -85.5039 9.50293s-48.166 15.166 -71.499 26.499v116h15l35 -52c24.667 -37.333 59 -56 103 -56c52 0 78 19 78 57c0 14 -3.66699 25.333 -11 34s-19.166 17 -35.499 25s-38.833 18 -67.5 30c-37.333 15.333 -65 33.333 -83 54
s-27 46.334 -27 77.001c0 28.667 7.5 54.667 22.5 78s35.5 42 61.5 56s55.333 21 88 21c22.667 0 44.834 -2.33301 66.501 -7s42.834 -12.334 63.501 -23.001v-119h-15l-31 47c-12.667 19.333 -25.667 33.666 -39 42.999s-29.333 14 -48 14c-20 0 -36.167 -5 -48.5 -15
s-18.5 -24 -18.5 -42c0 -12 2.83301 -22.167 8.5 -30.5s15.834 -16.5 30.501 -24.5s35.667 -17.333 63 -28c18.667 -7.33301 37.167 -15.833 55.5 -25.5s33.666 -23.334 45.999 -41.001s18.5 -42.167 18.5 -73.5s-8.33301 -58.333 -25 -81s-38.167 -40 -64.5 -52
s-54.5 -18 -84.5 -18z" />
    <glyph glyph-name="uni0074" unicode="t" horiz-adv-x="386" 
d="M221 -10c-40.667 0 -74.0029 8.66797 -100.003 26.001s-39 41.666 -39 72.999v322h-72v14l92 31l101 110h19v-110h139v-45h-139v-297c0 -17.333 7.33301 -30 22 -38s32 -12 52 -12c12.667 0 23.834 0.833008 33.501 2.5s19.167 3.5 28.5 5.5l3 -2v-17
c-11.333 -16 -29.666 -30.5 -54.999 -43.5s-53.666 -19.5 -84.999 -19.5z" />
    <glyph glyph-name="uni0075" unicode="u" horiz-adv-x="590" 
d="M218 -10c-40 0 -72.833 10.3311 -98.5 30.998s-38.5 51.334 -38.5 92.001v295l-66 32v16h207v-302c0 -23.333 6.66699 -41.166 20 -53.499s30.333 -18.5 51 -18.5c12.667 0 26 2.33301 40 7s26 11 36 19v300l-60 32v16h201v-409l63 -31v-16h-204v64h-4
c-23.333 -23.333 -46 -41.5 -68 -54.5s-48.333 -19.5 -79 -19.5z" />
    <glyph glyph-name="uni0076" unicode="v" horiz-adv-x="476" 
d="M216 0l-190 413l-62 27v16h283v-16l-69 -29v-3l104 -223h4l92 219v4l-63 32v16h197v-16l-71 -34l-187 -406h-38z" />
    <glyph glyph-name="uni0077" unicode="w" horiz-adv-x="728" 
d="M191 0l-165 413l-62 27v16h283v-16l-69 -29v-3l84 -223h5l115 271h38l120 -270h4l86 218v4l-63 32v16h196v-16l-70 -34l-176 -406h-38l-123 271l-127 -271h-38z" />
    <glyph glyph-name="uni0078" unicode="x" horiz-adv-x="549" 
d="M18 0v16l52 31l138 162l-145 204l-45 27v16h272v-16l-56 -26v-6l76 -107l78 101v6l-51 32v16h179v-16l-53 -31l-125 -148l154 -218l41 -27v-16h-266v16l55 26v6l-87 122l-87 -116v-6l55 -32v-16h-185z" />
    <glyph glyph-name="uni0079" unicode="y" horiz-adv-x="476" 
d="M83 -241c-15.333 0 -24.834 2.16797 -28.501 6.50098s-5.5 11.833 -5.5 22.5v69l5 5h45c16.667 0 30.5 1.16699 41.5 3.5s21 8.66602 30 18.999s18.5 27.5 28.5 51.5l26 63l-199 414l-62 27v16h276v-16l-62 -29v-3l110 -231h7l85 227v4l-59 32v16h191v-16l-71 -33
l-200 -486l-15.5 -38.5c-4.33301 -10.333 -9.16602 -20.333 -14.499 -30s-13 -21.5 -23 -35.5c-13.333 -19.333 -29.833 -33.833 -49.5 -43.5s-38.167 -14.5 -55.5 -14.5z" />
    <glyph glyph-name="uni007A" unicode="z" horiz-adv-x="502" 
d="M52 0v20l216 389h-144l-54 -109h-19l11 166h5c9.33301 -2.66699 20.833 -5 34.5 -7s26.167 -3 37.5 -3h301v-20l-216 -389h159l46 116h19v-163h-396z" />
    <glyph glyph-name="uni007B" unicode="{" horiz-adv-x="262" 
d="M220 -150c-55.333 0 -95.5 12.335 -120.5 37.002s-37.5 56.667 -37.5 96c0 27.333 4 53.166 12 77.499l24 70.5c8 22.667 12 45.334 12 68.001c0 22 -6.16699 41.5 -18.5 58.5s-34.833 25.5 -67.5 25.5h-25v25h25c32.667 0 55.167 8.5 67.5 25.5s18.5 36.167 18.5 57.5
c0 22.667 -4 45.334 -12 68.001l-24 70.5c-8 24.333 -12 50.166 -12 77.499c0 39.333 12.5 71.333 37.5 96s65.167 37 120.5 37h25v-26h-27c-29.333 0 -51 -8.16699 -65 -24.5s-21 -37.833 -21 -64.5c0 -26 3.66699 -50.833 11 -74.5l21.5 -69
c7 -22.333 10.5 -45.166 10.5 -68.499c0 -24.667 -6.83301 -47.334 -20.5 -68.001s-37.5 -37.334 -71.5 -50.001c34 -12.667 57.833 -29.334 71.5 -50.001s20.5 -43.334 20.5 -68.001c0 -23.333 -3.5 -46.166 -10.5 -68.499l-21.5 -69c-7.33301 -23.667 -11 -48.5 -11 -74.5
c0 -26.667 7 -48.167 21 -64.5s35.667 -24.5 65 -24.5h27v-26h-25z" />
    <glyph glyph-name="uni007C" unicode="|" horiz-adv-x="250" 
d="M100 -250v1000h50v-1000h-50z" />
    <glyph glyph-name="uni007D" unicode="}" horiz-adv-x="262" 
d="M42 -150l-25 -0.00195312v26h27c29.333 0 51 8.16699 65 24.5s21 37.833 21 64.5c0 26 -3.66699 50.833 -11 74.5l-21.5 69c-7 22.333 -10.5 45.166 -10.5 68.499c0 24.667 7 47.334 21 68.001s37.667 37.334 71 50.001c-33.333 12.667 -57 29.334 -71 50.001
s-21 43.334 -21 68.001c0 23.333 3.5 46.166 10.5 68.499l21.5 69c7.33301 23.667 11 48.5 11 74.5c0 26.667 -7 48.167 -21 64.5s-35.667 24.5 -65 24.5h-27v26h25c55.333 0 95.5 -12.333 120.5 -37s37.5 -56.667 37.5 -96c0 -27.333 -4 -53.166 -12 -77.499l-24 -70.5
c-8 -22.667 -12 -45.334 -12 -68.001c0 -21.333 6.16699 -40.5 18.5 -57.5s34.833 -25.5 67.5 -25.5h25v-25h-25c-32.667 0 -55.167 -8.5 -67.5 -25.5s-18.5 -36.5 -18.5 -58.5c0 -22.667 4 -45.334 12 -68.001l24 -70.5c8 -24.333 12 -50.166 12 -77.499
c0 -39.333 -12.5 -71.333 -37.5 -96s-65.167 -37 -120.5 -37z" />
    <glyph glyph-name="uni007E" unicode="~" 
d="M70 201c0 44.667 10.3311 79.5 30.998 104.5s48.334 37.5 83.001 37.5c24 0 44.667 -4.5 62 -13.5s33 -19.333 47 -31s27.667 -22 41 -31s28.333 -13.5 45 -13.5c20 0 34.333 7.33301 43 22s13 37 13 67h55c0 -46 -10 -81.167 -30 -105.5s-48 -36.5 -84 -36.5
c-24 0 -44.5 4.5 -61.5 13.5s-32.5 19.333 -46.5 31s-27.833 22 -41.5 31s-28.5 13.5 -44.5 13.5c-17.333 0 -31.166 -7.66699 -41.499 -23s-15.5 -37.333 -15.5 -66h-55z" />
    <glyph glyph-name="uni00A0" unicode="&#xa0;" horiz-adv-x="250" 
 />
    <glyph glyph-name="uni00A1" unicode="&#xa1;" horiz-adv-x="269" 
d="M135 317c-20.667 0 -38.334 7.33301 -53.001 22s-22 32.334 -22 53.001c0 20 7.33301 37.333 22 52s32.334 22 53.001 22c20 0 37.333 -7.33301 52 -22s22 -32 22 -52c0 -20.667 -7.33301 -38.334 -22 -53.001s-32 -22 -52 -22zM56 -199l63 442h32l62 -442h-157z" />
    <glyph glyph-name="uni00A2" unicode="&#xa2;" 
d="M193 26l19.001 76.001c-44.667 13.333 -80.167 38.166 -106.5 74.499s-39.5 80.833 -39.5 133.5c0 50.667 10.5 95.334 31.5 134.001s50.333 69 88 91s81.834 33 132.501 33h8l17 67h42l-18 -71c42 -7.33301 73 -22.333 93 -45c10 -12 15 -22 15 -30
c0 -4.66699 -0.833008 -8.66699 -2.5 -12s-4.83398 -7.33301 -9.50098 -12l-47 -39h-7l-34 45c-4 6 -7.83301 11.333 -11.5 16s-7.5 9 -11.5 13l-71 -286c18.667 -7.33301 40.667 -11 66 -11c18.667 0 39 3.16699 61 9.5s44 16.166 66 29.499h3v-35
c-19.333 -32.667 -45.333 -60 -78 -82s-71.334 -33 -116.001 -33c-10.667 0 -21 0.666992 -31 2l-17 -68h-42zM204.001 357.001c0 -54 13.667 -94 41 -120l70 284c-6 1.33301 -12.333 2 -19 2c-30.667 0 -53.667 -15 -69 -45s-23 -70.333 -23 -121z" />
    <glyph glyph-name="uni00A3" unicode="&#xa3;" 
d="M54 0l0.00195312 57.998c34 26.667 59.667 49.834 77 69.501s29 37.5 35 53.5s9 32.667 9 50c0 12 -2.5 24.833 -7.5 38.5s-10.833 28.167 -17.5 43.5h-100v42h80c-10 20.667 -18.833 41.334 -26.5 62.001s-11.5 40.334 -11.5 59.001c0 34.667 9.16699 66.667 27.5 96
s43.666 53 75.999 71s69.5 27 111.5 27s76.667 -6.5 104 -19.5s47.666 -27.5 60.999 -43.5c10.667 -12.667 16 -22.667 16 -30c0 -9.33301 -4.33301 -17.333 -13 -24l-58 -43h-7l-14 26l-23.5 40.5c-7.66699 13 -16.667 23.833 -27 32.5s-23.5 13 -39.5 13
c-26 0 -45 -9 -57 -27s-18 -38.667 -18 -62c0 -16 3.83301 -33.833 11.5 -53.5s17 -40.167 28 -61.5s21.167 -42.333 30.5 -63h138v-42h-122c5.33301 -16.667 8 -31.667 8 -45c0 -34 -12.5 -62.833 -37.5 -86.5s-61.833 -46.834 -110.5 -69.501h260l30 97h36l-10 -209h-439z
" />
    <glyph glyph-name="uni00A4" unicode="&#xa4;" 
d="M69 100l78.0029 78c-8.66699 13.333 -15.834 28 -21.501 44s-8.5 32.667 -8.5 50s2.83301 34 8.5 50s12.834 30.667 21.501 44l-78 78l41 40l78 -78c13.333 9.33301 27.666 16.5 42.999 21.5s31.666 7.5 48.999 7.5c35.333 0 66.333 -9.66699 93 -29l78 78l41 -40
l-78 -78c9.33301 -13.333 16.666 -28 21.999 -44s8 -32.667 8 -50s-2.66699 -34 -8 -50s-12.666 -30.667 -21.999 -44l78 -78l-41 -40l-78 78c-12.667 -9.33301 -27 -16.5 -43 -21.5s-32.667 -7.5 -50 -7.5s-33.833 2.5 -49.5 7.5s-29.834 12.167 -42.501 21.5l-78 -78z
M280.003 160c30.667 0 56.167 10.5 76.5 31.5s30.5 47.833 30.5 80.5s-10.167 59.5 -30.5 80.5s-45.833 31.5 -76.5 31.5c-30 0 -55.167 -10.5 -75.5 -31.5s-30.5 -47.833 -30.5 -80.5s10.167 -59.5 30.5 -80.5s45.5 -31.5 75.5 -31.5z" />
    <glyph glyph-name="uni00A5" unicode="&#xa5;" 
d="M123 0v16l87 41v181h-133v41h133v108h-133v42h110l-134 189l-52 26v16h284v-16l-63 -25v-3l108 -161l93 158v3l-65 28v16h202v-16l-56 -23l-127 -192h111v-42h-132v-108h132v-41h-132v-181l88 -41v-16h-321z" />
    <glyph glyph-name="uni00A6" unicode="&#xa6;" horiz-adv-x="250" 
d="M100 350v400h50v-400h-50zM100 -250v400h50v-400h-50z" />
    <glyph glyph-name="uni00A7" unicode="&#xa7;" horiz-adv-x="535" 
d="M220 -121c-33.333 0 -60.998 4.66699 -82.998 14s-38.667 19.333 -50 30c-7.33301 6 -11.666 11.333 -12.999 16s-1.66602 9.33398 -0.999023 14.001c0.666992 2.66699 1.83398 5.66699 3.50098 9s4.5 6.66602 8.5 9.99902l44 41l8 -1l15 -16
c6.66699 -8 15 -17.167 25 -27.5s21.667 -19.333 35 -27s28.333 -11.5 45 -11.5c22.667 0 41 6 55 18s21 28.333 21 49c0 22.667 -7.33301 40.334 -22 53.001s-33.334 22.667 -56.001 30s-47 14.666 -73 21.999s-50.333 16.5 -73 27.5s-41.334 26.167 -56.001 45.5
s-22 45.333 -22 78c0 34 9.66699 63.167 29 87.5s45.333 43.166 78 56.499c-12 11.333 -21.5 25 -28.5 41s-10.5 35.333 -10.5 58c0 32 9.16699 61.167 27.5 87.5s43.833 47.333 76.5 63s70 23.5 112 23.5c32.667 0 59.167 -4.5 79.5 -13.5s36.166 -18.5 47.499 -28.5
c10.667 -10.667 15 -20.334 13 -29.001c-0.666992 -4.66699 -4.66699 -11 -12 -19l-43 -40l-8 2l-14 15l-22.5 26c-8.33301 10 -18.333 18.667 -30 26s-25.167 11 -40.5 11c-22.667 0 -41.167 -6.16699 -55.5 -18.5s-21.5 -28.5 -21.5 -48.5
c0 -22.667 7.16699 -40.334 21.5 -53.001s32.666 -23 54.999 -31s46 -15.5 71 -22.5s48.667 -16 71 -27s40.666 -26 54.999 -45s21.5 -44.167 21.5 -75.5c0 -35.333 -9.66699 -65.166 -29 -89.499s-45.333 -43.166 -78 -56.499c14 -11.333 25.167 -25.166 33.5 -41.499
s12.5 -36.833 12.5 -61.5c0 -30 -10.167 -58 -30.5 -84s-47.333 -47 -81 -63s-70.5 -24 -110.5 -24zM137.002 306c0 -22 6.66895 -39.334 20.002 -52.001s30.666 -22.667 51.999 -30s44.333 -14.166 69 -20.499s48.334 -14.166 71.001 -23.499
c14 5.33301 25.667 13.5 35 24.5s14 24.167 14 39.5c0 23.333 -7.33301 41.166 -22 53.499s-33.334 22 -56.001 29s-46.834 13.667 -72.501 20s-49.5 14.833 -71.5 25.5c-26 -14.667 -39 -36.667 -39 -66z" />
    <glyph glyph-name="uni00A8" unicode="&#xa8;" horiz-adv-x="500" 
d="M151 559c-16.667 0 -30.5 5.66699 -41.5 17s-16.5 25 -16.5 41s5.5 29.667 16.5 41s24.833 17 41.5 17s30.5 -5.66699 41.5 -17s16.5 -25 16.5 -41s-5.5 -29.667 -16.5 -41s-24.833 -17 -41.5 -17zM349 559c-16.667 0 -30.5 5.66699 -41.5 17s-16.5 25 -16.5 41
s5.5 29.667 16.5 41s24.833 17 41.5 17s30.5 -5.66699 41.5 -17s16.5 -25 16.5 -41s-5.5 -29.667 -16.5 -41s-24.833 -17 -41.5 -17z" />
    <glyph glyph-name="uni00A9" unicode="&#xa9;" horiz-adv-x="806" 
d="M403 -10c-48 0 -92.167 8.5 -132.5 25.5s-75.5 40.667 -105.5 71s-53.333 66.166 -70 107.499s-25 86.666 -25 135.999s8.33301 94.666 25 135.999s40 77.166 70 107.499s65.167 54 105.5 71s84.5 25.5 132.5 25.5s92.167 -8.5 132.5 -25.5s75.5 -40.667 105.5 -71
s53.333 -66.166 70 -107.499s25 -86.666 25 -135.999s-8.33301 -94.666 -25 -135.999s-40 -77.166 -70 -107.499s-65.167 -54 -105.5 -71s-84.5 -25.5 -132.5 -25.5zM403 30c55.333 0 105 13 149 39s78.667 61.5 104 106.5s38 96.5 38 154.5
c0 57.333 -12.667 108.666 -38 153.999s-60 81 -104 107s-93.667 39 -149 39s-105 -13 -149 -39s-78.667 -61.667 -104 -107s-38 -96.666 -38 -153.999c0 -58 12.667 -109.5 38 -154.5s60 -80.5 104 -106.5s93.667 -39 149 -39zM418 129c-66.667 0 -118.832 18 -156.499 54
s-56.5 83 -56.5 141c0 40 10.167 76.333 30.5 109s47.333 58.667 81 78s70.834 29 111.501 29c30.667 0 55 -2.83301 73 -8.5s36.333 -13.167 55 -22.5l4 -115h-30l-43 82c-10 6.66699 -19.333 11.5 -28 14.5s-18.334 4.5 -29.001 4.5c-36 0 -65.667 -14.5 -89 -43.5
s-35 -65.833 -35 -110.5c0 -52 11.333 -92.667 34 -122s51 -44 85 -44c13.333 0 25 1.33301 35 4s19.667 6 29 10l49 77h28l-8 -103c-19.333 -10 -39.833 -18.167 -61.5 -24.5s-47.834 -9.5 -78.501 -9.5z" />
    <glyph glyph-name="uni00AA" unicode="&#xaa;" horiz-adv-x="414" 
d="M144 417c-17.333 0 -32.001 5.16895 -44.001 15.502s-18 25.166 -18 44.499s6 34.5 18 45.5s34.667 20.833 68 29.5l50 13v35c0 12 -3.33301 21.833 -10 29.5s-15.667 11.5 -27 11.5c-17.333 0 -26 -8.33301 -26 -25v-28l-2 -2h-48c-9.33301 0 -14 5.33301 -14 16
c0 16 11 30.667 33 44c13.333 8 26 14 38 18s25.333 6 40 6c28.667 0 52.334 -5.5 71.001 -16.5s28 -28.167 28 -51.5v-137c6 -6 15 -9 27 -9h15l2 -2v-9c-4.66699 -7.33301 -11.834 -13.833 -21.501 -19.5s-23.167 -8.5 -40.5 -8.5c-31.333 0 -51.666 12 -60.999 36h-3
c-9.33301 -10.667 -20.5 -19.334 -33.5 -26.001s-26.833 -10 -41.5 -10zM161.999 493.002c0 -10 3.16797 -17.832 9.50098 -23.499s14.166 -8.5 23.499 -8.5c8 0 15.667 1.33301 23 4v78c-22 -5.33301 -36.833 -11.833 -44.5 -19.5s-11.5 -17.834 -11.5 -30.501zM85 291.003
v53h248v-53h-248z" />
    <glyph glyph-name="uni00AB" unicode="&#xab;" horiz-adv-x="466" 
d="M229 70l-203 177l203 177h19l-106 -177l106 -177h-19zM421 70l-203 177l203 177h19l-106 -177l106 -177h-19z" />
    <glyph glyph-name="uni00AC" unicode="&#xac;" 
d="M433 62v183h-363v54h420v-237h-57z" />
    <glyph glyph-name="uni00AD" unicode="&#xad;" horiz-adv-x="369" 
d="M47 222v70h275v-70h-275z" />
    <glyph glyph-name="uni00AE" unicode="&#xae;" horiz-adv-x="552" 
d="M276 227c-42 0 -79.333 9.66699 -112 29s-58.334 45.833 -77.001 79.5s-28 71.5 -28 113.5s9.33301 79.667 28 113s44.334 59.666 77.001 78.999s70 29 112 29s79.5 -9.66699 112.5 -29s58.833 -45.666 77.5 -78.999s28 -71 28 -113s-9.33301 -79.833 -28 -113.5
s-44.5 -60.167 -77.5 -79.5s-70.5 -29 -112.5 -29zM276 260c36 0 67.5 8.33301 94.5 25s48 39.167 63 67.5s22.5 60.5 22.5 96.5c0 35.333 -7.5 67.333 -22.5 96s-36 51.167 -63 67.5s-58.5 24.5 -94.5 24.5s-67.5 -8.16699 -94.5 -24.5s-48 -38.833 -63 -67.5
s-22.5 -60.667 -22.5 -96c0 -36 7.5 -68.167 22.5 -96.5s36 -50.833 63 -67.5s58.5 -25 94.5 -25zM161 323l0.000976562 6.99902l31 16v210l-31 16v6h120c27.333 0 48.666 -5.66699 63.999 -17s23 -26.666 23 -45.999c0 -14.667 -4.83301 -27.667 -14.5 -39
s-22.5 -20 -38.5 -26l54 -107l26 -13v-7h-78l-53 117h-17v-94l30 -16v-7h-116zM256.001 554.999l-9.00098 0.000976562v-92h11c14.667 0 27 4 37 12s15 19.667 15 35s-5.16699 26.666 -15.5 33.999s-23.166 11 -38.499 11z" />
    <glyph glyph-name="uni00AF" unicode="&#xaf;" horiz-adv-x="500" 
d="M105 587v60h290v-60h-290z" />
    <glyph glyph-name="uni00B0" unicode="&#xb0;" horiz-adv-x="500" 
d="M250 410c-25.333 0 -47.666 6 -66.999 18s-34.666 27.833 -45.999 47.5s-17 41.167 -17 64.5s5.66699 44.833 17 64.5s26.666 35.5 45.999 47.5s41.666 18 66.999 18s47.666 -6 66.999 -18s34.666 -27.833 45.999 -47.5s17 -41.167 17 -64.5s-5.66699 -44.833 -17 -64.5
s-26.666 -35.5 -45.999 -47.5s-41.666 -18 -66.999 -18zM250 453c22.667 0 41.834 7.83301 57.501 23.5s23.5 36.834 23.5 63.501s-7.83301 47.834 -23.5 63.501s-34.834 23.5 -57.501 23.5s-41.834 -7.83301 -57.501 -23.5s-23.5 -36.834 -23.5 -63.501
s7.83301 -47.834 23.5 -63.501s34.834 -23.5 57.501 -23.5z" />
    <glyph glyph-name="uni00B1" unicode="&#xb1;" 
d="M251 152v133h-181v54h181v143h58v-143h181v-54h-181v-133h-58zM70 60v54h420v-54h-420z" />
    <glyph glyph-name="uni00B2" unicode="&#xb2;" horiz-adv-x="342" 
d="M26 505l0.00292969 23.999c38 41.333 68.333 76.333 91 105s39.667 53 51 73s18.833 37.667 22.5 53s5.5 30 5.5 44c0 16 -3.33301 30 -10 42s-18.667 18 -36 18c-16.667 0 -29.334 -5.83301 -38.001 -17.5s-13 -27.5 -13 -47.5v-28l-4 -6h-53
c-6.66699 0 -12 1.33301 -16 4s-6 9.33398 -6 20.001c0 13.333 3.66699 25.833 11 37.5s19.666 23.834 36.999 36.501c13.333 9.33301 28.166 17.833 44.499 25.5s39.166 11.5 68.499 11.5c37.333 0 67.5 -9.83301 90.5 -29.5s34.5 -45.5 34.5 -77.5
c0 -14.667 -2.33301 -28.667 -7 -42s-13.667 -27.833 -27 -43.5s-33.166 -34.334 -59.499 -56.001s-61.5 -48.167 -105.5 -79.5h167l32 59h16l-6 -126h-290z" />
    <glyph glyph-name="uni00B3" unicode="&#xb3;" horiz-adv-x="342" 
d="M162 495c-18.667 0 -36.833 2.00195 -54.5 6.00195s-33.834 10.667 -48.501 20c-11.333 6.66699 -20.666 14.667 -27.999 24s-11 19.666 -11 30.999c0 10.667 2 17.167 6 19.5s9.66699 3.5 17 3.5h50l6 -6v-15c0 -15.333 4.83301 -27 14.5 -35s22.5 -12 38.5 -12
c20.667 0 35.834 6.66699 45.501 20s14.5 30.333 14.5 51c0 27.333 -6.5 48.166 -19.5 62.499s-36.5 21.5 -70.5 21.5h-31v32h12c26.667 0 48.167 7.5 64.5 22.5s24.5 36.833 24.5 65.5c0 18 -3.66699 32.167 -11 42.5s-18.333 15.5 -33 15.5
c-12.667 0 -22.834 -4 -30.501 -12s-11.5 -19.667 -11.5 -35v-27l-5 -6h-51c-7.33301 0 -13 1.5 -17 4.5s-6 9.83301 -6 20.5c0 22 12.667 41 38 57c18 12 34.667 20.667 50 26s34.666 8 57.999 8c38.667 0 69.834 -8.16699 93.501 -24.5s35.5 -38.833 35.5 -67.5
c0 -26 -11.333 -47 -34 -63s-51 -27 -85 -33c92.667 -7.33301 139 -41.333 139 -102c0 -33.333 -15.167 -60.833 -45.5 -82.5s-68.5 -32.5 -114.5 -32.5z" />
    <glyph glyph-name="uni00B4" unicode="&#xb4;" horiz-adv-x="500" 
d="M153 530l83 177h110c0 -12.667 -3 -24.167 -9 -34.5s-16.333 -21.833 -31 -34.5l-131 -108h-22z" />
    <glyph glyph-name="uni00B5" unicode="&#xb5;" 
d="M219 -10c-15.333 0 -29.502 2.16699 -42.502 6.5s-24.833 11.5 -35.5 21.5l47 -228l-120 -20h-2v686h140v-302c0 -23.333 6.66699 -41.166 20 -53.499s30.333 -18.5 51 -18.5c12.667 0 26.167 2.33301 40.5 7s26.5 11 36.5 19v348h140v-382
c10.667 -10.667 26.667 -16 48 -16h29l3 -3v-14c-7.33301 -12.667 -19.833 -24.334 -37.5 -35.001s-40.167 -16 -67.5 -16c-30 0 -54 6.5 -72 19.5s-31 31.167 -39 54.5h-8c-21.333 -22.667 -41.666 -40.667 -60.999 -54s-42.666 -20 -69.999 -20z" />
    <glyph glyph-name="uni00B6" unicode="&#xb6;" horiz-adv-x="515" 
d="M264 -110l-0.000976562 469h-41c-36 0 -68.167 6.66699 -96.5 20s-50.666 31.833 -66.999 55.5s-24.5 50.167 -24.5 79.5c0 50.667 15.833 87.667 47.5 111s73.167 35 124.5 35h115v-770h-58zM375.999 -110v770h143v-16l-85 -41v-713h-58z" />
    <glyph glyph-name="uni00B7" unicode="&#xb7;" horiz-adv-x="250" 
d="M125 197c-20 0 -37.333 7.33301 -52 22s-22 32.334 -22 53.001c0 20 7.33301 37.333 22 52s32 22 52 22s37.333 -7.33301 52 -22s22 -32 22 -52c0 -20.667 -7.33301 -38.334 -22 -53.001s-32 -22 -52 -22z" />
    <glyph glyph-name="uni00B8" unicode="&#xb8;" horiz-adv-x="500" 
d="M238 -240c-34 0 -61.001 8 -81.001 24v19h4c16 -8 35 -12 57 -12c36.667 0 55 13 55 39c0 14 -6.66699 26 -20 36s-39.666 20.333 -78.999 31l58 127h38l-30 -67c38 -11.333 64.667 -25 80 -41s23 -37.333 23 -64s-9.5 -48.667 -28.5 -66s-44.5 -26 -76.5 -26z" />
    <glyph glyph-name="uni00B9" unicode="&#xb9;" horiz-adv-x="293" 
d="M56 505v16l57 21v271l-98 -45v35l146 87h56v-348l51 -21v-16h-212z" />
    <glyph glyph-name="uni00BA" unicode="&#xba;" horiz-adv-x="414" 
d="M207 416c-40 0 -72.001 12.333 -96.001 37s-36 54.667 -36 90c0 23.333 5.5 44.5 16.5 63.5s26.5 34.333 46.5 46s43 17.5 69 17.5s49 -5.83301 69 -17.5s35.5 -27 46.5 -46s16.5 -40.167 16.5 -63.5c0 -35.333 -12.167 -65.333 -36.5 -90s-56.166 -37 -95.499 -37z
M211.999 443c14 0 24.167 9 30.5 27s9.5 38.667 9.5 62c0 29.333 -4 55.166 -12 77.499s-20.667 33.5 -38 33.5c-14 0 -24.167 -9.16699 -30.5 -27.5s-9.5 -38.833 -9.5 -61.5c0 -29.333 4 -55.166 12 -77.499s20.667 -33.5 38 -33.5zM84.999 291v53h248v-53h-248z" />
    <glyph glyph-name="uni00BB" unicode="&#xbb;" horiz-adv-x="466" 
d="M26 70l106 177l-106 177h19l203 -177l-203 -177h-19zM218 70l106 177l-106 177h19l203 -177l-203 -177h-19z" />
    <glyph glyph-name="uni00BC" unicode="&#xbc;" horiz-adv-x="792" 
d="M56 355v16l57 21v271l-98 -45v35l146 87h56v-348l51 -21v-16h-212zM80 20l472 730l45 -30l-472 -730zM519 0v16l57 27v56h-163v19l183 267h85v-237h70v-49h-70v-56l50 -27v-16h-212zM478 148h98v150z" />
    <glyph glyph-name="uni00BD" unicode="&#xbd;" horiz-adv-x="792" 
d="M56 355v16l57 21v271l-98 -45v35l146 87h56v-348l51 -21v-16h-212zM80 20l472 730l45 -30l-472 -730zM443 0l0.00292969 23.999c38 41.333 68.333 76.333 91 105s39.667 53 51 73s18.833 37.667 22.5 53s5.5 30 5.5 44c0 16 -3.33301 30 -10 42s-18.667 18 -36 18
c-16.667 0 -29.334 -5.83301 -38.001 -17.5s-13 -27.5 -13 -47.5v-28l-4 -6h-53c-6.66699 0 -12 1.33301 -16 4s-6 9.33398 -6 20.001c0 13.333 3.66699 25.833 11 37.5s19.666 23.834 36.999 36.501c13.333 9.33301 28.166 17.833 44.499 25.5s39.166 11.5 68.499 11.5
c37.333 0 67.5 -9.83301 90.5 -29.5s34.5 -45.5 34.5 -77.5c0 -14.667 -2.33301 -28.667 -7 -42s-13.667 -27.833 -27 -43.5s-33.166 -34.334 -59.499 -56.001s-61.5 -48.167 -105.5 -79.5h167l32 59h16l-6 -126h-290z" />
    <glyph glyph-name="uni00BE" unicode="&#xbe;" horiz-adv-x="792" 
d="M162 345c-18.667 0 -36.833 2.00195 -54.5 6.00195s-33.834 10.667 -48.501 20c-11.333 6.66699 -20.666 14.667 -27.999 24s-11 19.666 -11 30.999c0 10.667 2 17.167 6 19.5s9.66699 3.5 17 3.5h50l6 -6v-15c0 -15.333 4.83301 -27 14.5 -35s22.5 -12 38.5 -12
c20.667 0 35.834 6.66699 45.501 20s14.5 30.333 14.5 51c0 27.333 -6.5 48.166 -19.5 62.499s-36.5 21.5 -70.5 21.5h-31v32h12c26.667 0 48.167 7.5 64.5 22.5s24.5 36.833 24.5 65.5c0 18 -3.66699 32.167 -11 42.5s-18.333 15.5 -33 15.5
c-12.667 0 -22.834 -4 -30.501 -12s-11.5 -19.667 -11.5 -35v-27l-5 -6h-51c-7.33301 0 -13 1.5 -17 4.5s-6 9.83301 -6 20.5c0 22 12.667 41 38 57c18 12 34.667 20.667 50 26s34.666 8 57.999 8c38.667 0 69.834 -8.16699 93.501 -24.5s35.5 -38.833 35.5 -67.5
c0 -26 -11.333 -47 -34 -63s-51 -27 -85 -33c92.667 -7.33301 139 -41.333 139 -102c0 -33.333 -15.167 -60.833 -45.5 -82.5s-68.5 -32.5 -114.5 -32.5zM129.001 20.002l472 730l45 -30l-472 -730zM543.001 0.00195312v16l57 27v56h-163v19l183 267h85v-237h70v-49h-70v-56
l50 -27v-16h-212zM502.001 148.002h98v150z" />
    <glyph glyph-name="uni00BF" unicode="&#xbf;" horiz-adv-x="479" 
d="M270 317c-20 0 -37.5 7.33301 -52.5 22s-22.5 32.334 -22.5 53.001c0 20 7.5 37.333 22.5 52s32.5 22 52.5 22s37.333 -7.33301 52 -22s22 -32 22 -52c0 -20.667 -7.33301 -38.334 -22 -53.001s-32 -22 -52 -22zM232 -209c-60.667 0 -108.667 16.332 -144 48.999
s-53 75.334 -53 128.001c0 47.333 17.333 88.333 52 123s85.334 59.667 152.001 75l13 77h32l32 -160c-106.667 -16.667 -160 -61.667 -160 -135c0 -38 8.66699 -66.5 26 -85.5s39.333 -28.5 66 -28.5c25.333 0 45.833 9 61.5 27s23.5 45 23.5 81v34l10 12h73
c11.333 0 19.833 -2 25.5 -6s8.5 -14.667 8.5 -32c0 -20 -5.5 -38.5 -16.5 -55.5s-26.167 -32.833 -45.5 -47.5c-24 -17.333 -47.833 -31 -71.5 -41s-51.834 -15 -84.501 -15z" />
    <glyph glyph-name="uni00C0" unicode="&#xc0;" horiz-adv-x="774" 
d="M19 0v16l61 34l261 615h88l258 -613l68 -36v-16h-316v16l87 36l-68 166h-237l-68 -166l83 -36v-16h-217zM244 273h191l-95 233zM374 710l-131 83c-16.667 10.667 -27.5 21.667 -32.5 33s-7.5 23.333 -7.5 36h110l83 -152h-22z" />
    <glyph glyph-name="uni00C1" unicode="&#xc1;" horiz-adv-x="774" 
d="M19 0v16l61 34l261 615h88l258 -613l68 -36v-16h-316v16l87 36l-68 166h-237l-68 -166l83 -36v-16h-217zM244 273h191l-95 233zM374 710l83 152.001h110c0 -12.667 -2.66699 -24.834 -8 -36.501s-16 -22.5 -32 -32.5l-131 -83h-22z" />
    <glyph glyph-name="uni00C2" unicode="&#xc2;" horiz-adv-x="774" 
d="M19 0v16l61 34l261 615h88l258 -613l68 -36v-16h-316v16l87 36l-68 166h-237l-68 -166l83 -36v-16h-217zM244 273h191l-95 233zM226 710l136 152h48l136 -152h-22l-138 64l-138 -64h-22z" />
    <glyph glyph-name="uni00C3" unicode="&#xc3;" horiz-adv-x="774" 
d="M19 0v16l61 34l261 615h88l258 -613l68 -36v-16h-316v16l87 36l-68 166h-237l-68 -166l83 -36v-16h-217zM244 273h191l-95 233zM221 722c16.667 50.667 33 84.334 49 101.001s34.333 25 55 25c19.333 0 37.5 -4.33301 54.5 -13s33 -17.5 48 -26.5
s29.833 -13.5 44.5 -13.5c10.667 0 20.5 3.16699 29.5 9.5s18.167 20.833 27.5 43.5h22c-16 -50.667 -32.167 -84.334 -48.5 -101.001s-34.833 -25 -55.5 -25c-19.333 0 -37.5 4.33301 -54.5 13s-33 17.5 -48 26.5s-29.833 13.5 -44.5 13.5
c-10.667 0 -20.5 -3.16699 -29.5 -9.5s-18.167 -20.833 -27.5 -43.5h-22z" />
    <glyph glyph-name="uni00C4" unicode="&#xc4;" horiz-adv-x="774" 
d="M19 0v16l61 34l261 615h88l258 -613l68 -36v-16h-316v16l87 36l-68 166h-237l-68 -166l83 -36v-16h-217zM244 273h191l-95 233zM287 727c-16.667 0 -30.5 5.66699 -41.5 17s-16.5 25 -16.5 41c0 16.667 5.5 30.667 16.5 42s24.833 17 41.5 17s30.5 -5.66699 41.5 -17
s16.5 -25.333 16.5 -42c0 -16 -5.5 -29.667 -16.5 -41s-24.833 -17 -41.5 -17zM485 727c-16.667 0 -30.5 5.66699 -41.5 17s-16.5 25 -16.5 41c0 16.667 5.5 30.667 16.5 42s24.833 17 41.5 17s30.5 -5.66699 41.5 -17s16.5 -25.333 16.5 -42c0 -16 -5.5 -29.667 -16.5 -41
s-24.833 -17 -41.5 -17z" />
    <glyph glyph-name="uni00C5" unicode="&#xc5;" horiz-adv-x="774" 
d="M19 0v16l61 34l261 615h88l258 -613l68 -36v-16h-316v16l87 36l-68 166h-237l-68 -166l83 -36v-16h-217zM244 273h191l-95 233zM386 710c-26 0 -47.333 8 -64 24s-25 36.333 -25 61c0 24 8.33301 44.167 25 60.5s38 24.5 64 24.5c26.667 0 48.167 -8.16699 64.5 -24.5
s24.5 -36.5 24.5 -60.5c0 -24.667 -8.16699 -45 -24.5 -61s-37.833 -24 -64.5 -24zM390 735c20 0 30 17.667 30 53c0 44.667 -12.667 67 -38 67c-20 0 -30 -18 -30 -54c0 -44 12.667 -66 38 -66z" />
    <glyph glyph-name="uni00C6" unicode="&#xc6;" horiz-adv-x="1029" 
d="M464 660h473v-173h-16l-74 118h-219v-237h154l56 86h16v-225h-16l-56 84h-154v-258h242l79 149h16v-204h-574v16l86 41v173h-211l-112 -179l79 -35v-16h-216v16l65 35zM300 285h177v285z" />
    <glyph glyph-name="uni00C7" unicode="&#xc7;" horiz-adv-x="711" 
d="M375 -209c36.667 0 55.001 12.9951 55.001 38.9951c0 14 -6.5 26 -19.5 36s-39.167 20.333 -78.5 31l43 94c-65.333 3.33301 -122.5 19.5 -171.5 48.5s-87 67.5 -114 115.5s-40.5 101.667 -40.5 161c0 50 10 96.333 30 139s47.167 80.167 81.5 112.5
s73.333 57.5 117 75.5s89.5 27 137.5 27c35.333 0 64.666 -2 87.999 -6s44.333 -9.66699 63 -17s37.334 -15.666 56.001 -24.999l11 -187h-18l-95 155c-16.667 10.667 -32.334 18.334 -47.001 23.001s-32.334 7 -53.001 7c-40.667 0 -77.167 -12.167 -109.5 -36.5
s-57.833 -58.666 -76.5 -102.999s-28 -95.833 -28 -154.5c0 -58 9 -108.167 27 -150.5s42.5 -75 73.5 -98s65.833 -34.5 104.5 -34.5c24.667 0 46.834 3.16699 66.501 9.5s38.5 14.5 56.5 24.5l90 134h17l-14 -169c-26 -15.333 -57 -27.666 -93 -36.999
s-76.333 -14.333 -121 -15l-15 -33c38 -11.333 64.667 -25.166 80 -41.499s23 -37.5 23 -63.5c0 -26.667 -9.5 -48.667 -28.5 -66s-44.5 -26 -76.5 -26c-34.667 0 -61.667 8 -81 24v19h3c16 -8 35 -12 57 -12z" />
    <glyph glyph-name="uni00C8" unicode="&#xc8;" horiz-adv-x="681" 
d="M44 0v16l85 41v546l-85 41v16h545v-173h-16l-74 118h-219v-237h154l56 86h16v-225h-16l-56 84h-154v-258h243l78 149h16v-204h-573zM342 710l-131 83c-16.667 10.667 -27.5 21.667 -32.5 33s-7.5 23.333 -7.5 36h110l83 -152h-22z" />
    <glyph glyph-name="uni00C9" unicode="&#xc9;" horiz-adv-x="681" 
d="M44 0v16l85 41v546l-85 41v16h545v-173h-16l-74 118h-219v-237h154l56 86h16v-225h-16l-56 84h-154v-258h243l78 149h16v-204h-573zM342 710l83 152.001h110c0 -12.667 -2.66699 -24.834 -8 -36.501s-16 -22.5 -32 -32.5l-131 -83h-22z" />
    <glyph glyph-name="uni00CA" unicode="&#xca;" horiz-adv-x="681" 
d="M44 0v16l85 41v546l-85 41v16h545v-173h-16l-74 118h-219v-237h154l56 86h16v-225h-16l-56 84h-154v-258h243l78 149h16v-204h-573zM194 710l136 152h48l136 -152h-22l-138 64l-138 -64h-22z" />
    <glyph glyph-name="uni00CB" unicode="&#xcb;" horiz-adv-x="681" 
d="M44 0v16l85 41v546l-85 41v16h545v-173h-16l-74 118h-219v-237h154l56 86h16v-225h-16l-56 84h-154v-258h243l78 149h16v-204h-573zM255 727c-16.667 0 -30.5 5.66699 -41.5 17s-16.5 25 -16.5 41c0 16.667 5.5 30.667 16.5 42s24.833 17 41.5 17s30.5 -5.66699 41.5 -17
s16.5 -25.333 16.5 -42c0 -16 -5.5 -29.667 -16.5 -41s-24.833 -17 -41.5 -17zM453 727c-16.667 0 -30.5 5.66699 -41.5 17s-16.5 25 -16.5 41c0 16.667 5.5 30.667 16.5 42s24.833 17 41.5 17s30.5 -5.66699 41.5 -17s16.5 -25.333 16.5 -42c0 -16 -5.5 -29.667 -16.5 -41
s-24.833 -17 -41.5 -17z" />
    <glyph glyph-name="uni00CC" unicode="&#xcc;" horiz-adv-x="413" 
d="M46 0v16l85 41v546l-85 41v16h321v-16l-85 -41v-546l85 -41v-16h-321zM195 710l-131 83c-16.667 10.667 -27.5 21.667 -32.5 33s-7.5 23.333 -7.5 36h110l83 -152h-22z" />
    <glyph glyph-name="uni00CD" unicode="&#xcd;" horiz-adv-x="413" 
d="M46 0v16l85 41v546l-85 41v16h321v-16l-85 -41v-546l85 -41v-16h-321zM195 710l83 152.001h110c0 -12.667 -2.66699 -24.834 -8 -36.501s-16 -22.5 -32 -32.5l-131 -83h-22z" />
    <glyph glyph-name="uni00CE" unicode="&#xce;" horiz-adv-x="413" 
d="M46 0v16l85 41v546l-85 41v16h321v-16l-85 -41v-546l85 -41v-16h-321zM47 710l136 152h48l136 -152h-22l-138 64l-138 -64h-22z" />
    <glyph glyph-name="uni00CF" unicode="&#xcf;" horiz-adv-x="413" 
d="M46 0v16l85 41v546l-85 41v16h321v-16l-85 -41v-546l85 -41v-16h-321zM108 727c-16.667 0 -30.5 5.66699 -41.5 17s-16.5 25 -16.5 41c0 16.667 5.5 30.667 16.5 42s24.833 17 41.5 17s30.5 -5.66699 41.5 -17s16.5 -25.333 16.5 -42c0 -16 -5.5 -29.667 -16.5 -41
s-24.833 -17 -41.5 -17zM306 727c-16.667 0 -30.5 5.66699 -41.5 17s-16.5 25 -16.5 41c0 16.667 5.5 30.667 16.5 42s24.833 17 41.5 17s30.5 -5.66699 41.5 -17s16.5 -25.333 16.5 -42c0 -16 -5.5 -29.667 -16.5 -41s-24.833 -17 -41.5 -17z" />
    <glyph glyph-name="uni00D0" unicode="&#xd0;" horiz-adv-x="802" 
d="M44 0l0.000976562 15.999l85 41v259h-85v53h85v234l-85 41v16h341c79.333 0 146.666 -13 201.999 -39s97.5 -61.667 126.5 -107s43.5 -96.666 43.5 -153.999c0 -52 -9.5 -100 -28.5 -144s-45.5 -82 -79.5 -114s-74 -57 -120 -75s-96.333 -27 -151 -27h-334z
M431.001 315.999h-151v-261h78c77.333 0 137 24.833 179 74.5s63 116.167 63 199.5c0 84 -21.5 151 -64.5 201s-106.833 75 -191.5 75h-64v-236h151v-53z" />
    <glyph glyph-name="uni00D1" unicode="&#xd1;" horiz-adv-x="816" 
d="M42 0v16l85 41v545l-85 42v16h190l388 -438v382l-114 40v16h268v-16l-84 -41v-608h-62l-431 482v-420l114 -41v-16h-269zM248 722c16.667 50.667 33 84.334 49 101.001s34.333 25 55 25c19.333 0 37.5 -4.33301 54.5 -13s33 -17.5 48 -26.5s29.833 -13.5 44.5 -13.5
c10.667 0 20.5 3.16699 29.5 9.5s18.167 20.833 27.5 43.5h22c-16 -50.667 -32.167 -84.334 -48.5 -101.001s-34.833 -25 -55.5 -25c-19.333 0 -37.5 4.33301 -54.5 13s-33 17.5 -48 26.5s-29.833 13.5 -44.5 13.5c-10.667 0 -20.5 -3.16699 -29.5 -9.5
s-18.167 -20.833 -27.5 -43.5h-22z" />
    <glyph glyph-name="uni00D2" unicode="&#xd2;" horiz-adv-x="789" 
d="M394 -10c-49.333 0 -95 8.5 -137 25.5s-78.5 40.667 -109.5 71s-55.167 66.166 -72.5 107.499s-26 86.666 -26 135.999s8.66699 94.666 26 135.999s41.5 77.166 72.5 107.499s67.5 54 109.5 71s87.667 25.5 137 25.5c50 0 96 -8.5 138 -25.5s78.5 -40.667 109.5 -71
s55.167 -66.166 72.5 -107.499s26 -86.666 26 -135.999s-8.66699 -94.666 -26 -135.999s-41.5 -77.166 -72.5 -107.499s-67.5 -54 -109.5 -71s-88 -25.5 -138 -25.5zM410 42c33.333 0 62.833 10.667 88.5 32s45.667 51.333 60 90s21.5 84 21.5 136
c0 64 -8.83301 120 -26.5 168s-41.5 85.167 -71.5 111.5s-63.667 39.5 -101 39.5c-33.333 0 -63 -10.5 -89 -31.5s-46.5 -50.833 -61.5 -89.5s-22.5 -84 -22.5 -136c0 -64 9 -120 27 -168s42.333 -85.333 73 -112s64.667 -40 102 -40zM378 710l-131 83
c-16.667 10.667 -27.5 21.667 -32.5 33s-7.5 23.333 -7.5 36h110l83 -152h-22z" />
    <glyph glyph-name="uni00D3" unicode="&#xd3;" horiz-adv-x="789" 
d="M394 -10c-49.333 0 -95 8.5 -137 25.5s-78.5 40.667 -109.5 71s-55.167 66.166 -72.5 107.499s-26 86.666 -26 135.999s8.66699 94.666 26 135.999s41.5 77.166 72.5 107.499s67.5 54 109.5 71s87.667 25.5 137 25.5c50 0 96 -8.5 138 -25.5s78.5 -40.667 109.5 -71
s55.167 -66.166 72.5 -107.499s26 -86.666 26 -135.999s-8.66699 -94.666 -26 -135.999s-41.5 -77.166 -72.5 -107.499s-67.5 -54 -109.5 -71s-88 -25.5 -138 -25.5zM410 42c33.333 0 62.833 10.667 88.5 32s45.667 51.333 60 90s21.5 84 21.5 136
c0 64 -8.83301 120 -26.5 168s-41.5 85.167 -71.5 111.5s-63.667 39.5 -101 39.5c-33.333 0 -63 -10.5 -89 -31.5s-46.5 -50.833 -61.5 -89.5s-22.5 -84 -22.5 -136c0 -64 9 -120 27 -168s42.333 -85.333 73 -112s64.667 -40 102 -40zM378 710l83 152.001h110
c0 -12.667 -2.66699 -24.834 -8 -36.501s-16 -22.5 -32 -32.5l-131 -83h-22z" />
    <glyph glyph-name="uni00D4" unicode="&#xd4;" horiz-adv-x="789" 
d="M394 -10c-49.333 0 -95 8.5 -137 25.5s-78.5 40.667 -109.5 71s-55.167 66.166 -72.5 107.499s-26 86.666 -26 135.999s8.66699 94.666 26 135.999s41.5 77.166 72.5 107.499s67.5 54 109.5 71s87.667 25.5 137 25.5c50 0 96 -8.5 138 -25.5s78.5 -40.667 109.5 -71
s55.167 -66.166 72.5 -107.499s26 -86.666 26 -135.999s-8.66699 -94.666 -26 -135.999s-41.5 -77.166 -72.5 -107.499s-67.5 -54 -109.5 -71s-88 -25.5 -138 -25.5zM410 42c33.333 0 62.833 10.667 88.5 32s45.667 51.333 60 90s21.5 84 21.5 136
c0 64 -8.83301 120 -26.5 168s-41.5 85.167 -71.5 111.5s-63.667 39.5 -101 39.5c-33.333 0 -63 -10.5 -89 -31.5s-46.5 -50.833 -61.5 -89.5s-22.5 -84 -22.5 -136c0 -64 9 -120 27 -168s42.333 -85.333 73 -112s64.667 -40 102 -40zM230 710l136 152h48l136 -152h-22
l-138 64l-138 -64h-22z" />
    <glyph glyph-name="uni00D5" unicode="&#xd5;" horiz-adv-x="789" 
d="M394 -10c-49.333 0 -95 8.5 -137 25.5s-78.5 40.667 -109.5 71s-55.167 66.166 -72.5 107.499s-26 86.666 -26 135.999s8.66699 94.666 26 135.999s41.5 77.166 72.5 107.499s67.5 54 109.5 71s87.667 25.5 137 25.5c50 0 96 -8.5 138 -25.5s78.5 -40.667 109.5 -71
s55.167 -66.166 72.5 -107.499s26 -86.666 26 -135.999s-8.66699 -94.666 -26 -135.999s-41.5 -77.166 -72.5 -107.499s-67.5 -54 -109.5 -71s-88 -25.5 -138 -25.5zM410 42c33.333 0 62.833 10.667 88.5 32s45.667 51.333 60 90s21.5 84 21.5 136
c0 64 -8.83301 120 -26.5 168s-41.5 85.167 -71.5 111.5s-63.667 39.5 -101 39.5c-33.333 0 -63 -10.5 -89 -31.5s-46.5 -50.833 -61.5 -89.5s-22.5 -84 -22.5 -136c0 -64 9 -120 27 -168s42.333 -85.333 73 -112s64.667 -40 102 -40zM225 722
c16.667 50.667 33 84.334 49 101.001s34.333 25 55 25c19.333 0 37.5 -4.33301 54.5 -13s33 -17.5 48 -26.5s29.833 -13.5 44.5 -13.5c10.667 0 20.5 3.16699 29.5 9.5s18.167 20.833 27.5 43.5h22c-16 -50.667 -32.167 -84.334 -48.5 -101.001s-34.833 -25 -55.5 -25
c-19.333 0 -37.5 4.33301 -54.5 13s-33 17.5 -48 26.5s-29.833 13.5 -44.5 13.5c-10.667 0 -20.5 -3.16699 -29.5 -9.5s-18.167 -20.833 -27.5 -43.5h-22z" />
    <glyph glyph-name="uni00D6" unicode="&#xd6;" horiz-adv-x="789" 
d="M394 -10c-49.333 0 -95 8.5 -137 25.5s-78.5 40.667 -109.5 71s-55.167 66.166 -72.5 107.499s-26 86.666 -26 135.999s8.66699 94.666 26 135.999s41.5 77.166 72.5 107.499s67.5 54 109.5 71s87.667 25.5 137 25.5c50 0 96 -8.5 138 -25.5s78.5 -40.667 109.5 -71
s55.167 -66.166 72.5 -107.499s26 -86.666 26 -135.999s-8.66699 -94.666 -26 -135.999s-41.5 -77.166 -72.5 -107.499s-67.5 -54 -109.5 -71s-88 -25.5 -138 -25.5zM410 42c33.333 0 62.833 10.667 88.5 32s45.667 51.333 60 90s21.5 84 21.5 136
c0 64 -8.83301 120 -26.5 168s-41.5 85.167 -71.5 111.5s-63.667 39.5 -101 39.5c-33.333 0 -63 -10.5 -89 -31.5s-46.5 -50.833 -61.5 -89.5s-22.5 -84 -22.5 -136c0 -64 9 -120 27 -168s42.333 -85.333 73 -112s64.667 -40 102 -40zM291 727
c-16.667 0 -30.5 5.66699 -41.5 17s-16.5 25 -16.5 41c0 16.667 5.5 30.667 16.5 42s24.833 17 41.5 17s30.5 -5.66699 41.5 -17s16.5 -25.333 16.5 -42c0 -16 -5.5 -29.667 -16.5 -41s-24.833 -17 -41.5 -17zM489 727c-16.667 0 -30.5 5.66699 -41.5 17s-16.5 25 -16.5 41
c0 16.667 5.5 30.667 16.5 42s24.833 17 41.5 17s30.5 -5.66699 41.5 -17s16.5 -25.333 16.5 -42c0 -16 -5.5 -29.667 -16.5 -41s-24.833 -17 -41.5 -17z" />
    <glyph glyph-name="uni00D7" unicode="&#xd7;" 
d="M134 86l-40 41l146 146l-146 145l40 42l146 -146l147 146l40 -42l-146 -145l146 -146l-40 -41l-147 146z" />
    <glyph glyph-name="uni00D8" unicode="&#xd8;" horiz-adv-x="789" 
d="M49 -10l92.998 102.001c-29.333 30 -52.166 65.333 -68.499 106s-24.5 84.667 -24.5 132c0 49.333 8.66699 94.666 26 135.999s41.5 77.166 72.5 107.499s67.5 54 109.5 71s87.667 25.5 137 25.5c40.667 0 78.834 -5.66699 114.501 -17s67.834 -27.333 96.501 -48l59 65
h76l-93 -102c29.333 -30 52.166 -65.333 68.499 -106s24.5 -84.667 24.5 -132c0 -49.333 -8.66699 -94.666 -26 -135.999s-41.5 -77.166 -72.5 -107.499s-67.5 -54 -109.5 -71s-88 -25.5 -138 -25.5c-40.667 0 -78.667 5.66699 -114 17s-67.333 27.666 -96 48.999l-60 -66
h-75zM207.998 362.001c0 -32 2.33203 -61.833 6.99902 -89.5s11.334 -53.5 20.001 -77.5l294 326c-18 31.333 -39.667 55.5 -65 72.5s-53 25.5 -83 25.5c-33.333 0 -63 -10.5 -89 -31.5s-46.5 -50.833 -61.5 -89.5s-22.5 -84 -22.5 -136zM409.997 42.001
c33.333 0 62.832 10.667 88.499 32s45.667 51.333 60 90s21.5 84 21.5 136c0 31.333 -2.16699 60.833 -6.5 88.5s-10.833 53.167 -19.5 76.5l-294 -325c18.667 -30.667 40.834 -54.667 66.501 -72s53.5 -26 83.5 -26z" />
    <glyph glyph-name="uni00D9" unicode="&#xd9;" horiz-adv-x="838" 
d="M423 -10c-58 0 -108.997 9.5 -152.997 28.5s-78.333 50 -103 93s-37 100.5 -37 172.5v319l-86 41v16h323v-16l-86 -41v-320c0 -55.333 8.5 -98.833 25.5 -130.5s40 -54.167 69 -67.5s61.167 -20 96.5 -20c29.333 0 56.666 6 81.999 18s45.666 31.5 60.999 58.5
s23 62.5 23 106.5v357l-94 39v16h250v-16l-86 -40v-320c0 -72 -12 -129.5 -36 -172.5s-57.333 -74 -100 -93s-92.334 -28.5 -149.001 -28.5zM445.003 710l-131 83c-16.667 10.667 -27.5 21.667 -32.5 33s-7.5 23.333 -7.5 36h110l83 -152h-22z" />
    <glyph glyph-name="uni00DA" unicode="&#xda;" horiz-adv-x="838" 
d="M423 -10c-58 0 -108.997 9.5 -152.997 28.5s-78.333 50 -103 93s-37 100.5 -37 172.5v319l-86 41v16h323v-16l-86 -41v-320c0 -55.333 8.5 -98.833 25.5 -130.5s40 -54.167 69 -67.5s61.167 -20 96.5 -20c29.333 0 56.666 6 81.999 18s45.666 31.5 60.999 58.5
s23 62.5 23 106.5v357l-94 39v16h250v-16l-86 -40v-320c0 -72 -12 -129.5 -36 -172.5s-57.333 -74 -100 -93s-92.334 -28.5 -149.001 -28.5zM445.003 710l83 152.001h110c0 -12.667 -2.66699 -24.834 -8 -36.501s-16 -22.5 -32 -32.5l-131 -83h-22z" />
    <glyph glyph-name="uni00DB" unicode="&#xdb;" horiz-adv-x="838" 
d="M423 -10c-58 0 -108.997 9.5 -152.997 28.5s-78.333 50 -103 93s-37 100.5 -37 172.5v319l-86 41v16h323v-16l-86 -41v-320c0 -55.333 8.5 -98.833 25.5 -130.5s40 -54.167 69 -67.5s61.167 -20 96.5 -20c29.333 0 56.666 6 81.999 18s45.666 31.5 60.999 58.5
s23 62.5 23 106.5v357l-94 39v16h250v-16l-86 -40v-320c0 -72 -12 -129.5 -36 -172.5s-57.333 -74 -100 -93s-92.334 -28.5 -149.001 -28.5zM296.003 710l136 152h48l136 -152h-22l-138 64l-138 -64h-22z" />
    <glyph glyph-name="uni00DC" unicode="&#xdc;" horiz-adv-x="838" 
d="M423 -10c-58 0 -108.997 9.5 -152.997 28.5s-78.333 50 -103 93s-37 100.5 -37 172.5v319l-86 41v16h323v-16l-86 -41v-320c0 -55.333 8.5 -98.833 25.5 -130.5s40 -54.167 69 -67.5s61.167 -20 96.5 -20c29.333 0 56.666 6 81.999 18s45.666 31.5 60.999 58.5
s23 62.5 23 106.5v357l-94 39v16h250v-16l-86 -40v-320c0 -72 -12 -129.5 -36 -172.5s-57.333 -74 -100 -93s-92.334 -28.5 -149.001 -28.5zM358.003 727c-16.667 0 -30.5 5.66699 -41.5 17s-16.5 25 -16.5 41c0 16.667 5.5 30.667 16.5 42s24.833 17 41.5 17
s30.5 -5.66699 41.5 -17s16.5 -25.333 16.5 -42c0 -16 -5.5 -29.667 -16.5 -41s-24.833 -17 -41.5 -17zM556.003 727c-16.667 0 -30.5 5.66699 -41.5 17s-16.5 25 -16.5 41c0 16.667 5.5 30.667 16.5 42s24.833 17 41.5 17s30.5 -5.66699 41.5 -17s16.5 -25.333 16.5 -42
c0 -16 -5.5 -29.667 -16.5 -41s-24.833 -17 -41.5 -17z" />
    <glyph glyph-name="uni00DD" unicode="&#xdd;" horiz-adv-x="754" 
d="M216 0v16l90 41v251l-218 297l-68 39v16h309v-16l-75 -37v-4l174 -235l156 233v4l-77 39v16h228v-16l-67 -33l-211 -302v-252l89 -41v-16h-330zM404 710l83 152.001h110c0 -12.667 -2.66699 -24.834 -8 -36.501s-16 -22.5 -32 -32.5l-131 -83h-22z" />
    <glyph glyph-name="uni00DE" unicode="&#xde;" horiz-adv-x="684" 
d="M44 0v15.999l85 41v546l-85 41v16h321v-16l-85 -41v-71h110c78.667 0 141.834 -14.167 189.501 -42.5s71.5 -73.5 71.5 -135.5c0 -37.333 -12.5 -70.166 -37.5 -98.499s-58.833 -50.333 -101.5 -66s-91.334 -23.5 -146.001 -23.5h-86v-109l85 -41v-16h-321zM322 475.999
l-42 -0.000976562v-262h48c53.333 0 95 12.333 125 37s45 55.667 45 93c0 46.667 -15.333 80.334 -46 101.001s-74 31 -130 31z" />
    <glyph glyph-name="uni00DF" unicode="&#xdf;" horiz-adv-x="673" 
d="M44 0l-0.00195312 16.002l63 32v361h-78v47h78v24c0 34 6 67 18 99s29.667 61 53 87s51.833 46.5 85.5 61.5s71.834 22.5 114.501 22.5c66.667 0 116 -13 148 -39s48 -57 48 -93c0 -22.667 -4.66699 -41.834 -14 -57.501s-20.666 -29.667 -33.999 -42l-40.5 -36.5
c-13.667 -12 -25.167 -25 -34.5 -39s-14 -31 -14 -51c0 -16 5.16699 -29.667 15.5 -41s24.5 -22.333 42.5 -33s37.667 -23.667 59 -39c34.667 -24.667 57.834 -47.667 69.501 -69s17.5 -45.333 17.5 -72c0 -28 -8 -53.167 -24 -75.5s-37.167 -40 -63.5 -53
s-55.166 -19.5 -86.499 -19.5c-32.667 0 -60.834 3.16699 -84.501 9.5s-47.167 15.166 -70.5 26.499v116h16l35 -52c10.667 -16.667 24 -30.167 40 -40.5s33.667 -15.5 53 -15.5c22.667 0 40.667 6 54 18s20 27.667 20 47c0 17.333 -5 31.666 -15 42.999
s-23.5 22.166 -40.5 32.499l-57.5 34.5c-22 14 -40.667 30.167 -56 48.5s-23 43.5 -23 75.5c0 22 3.66699 40.667 11 56s16.666 29.5 27.999 42.5s22.5 26.833 33.5 41.5s20.167 31.834 27.5 51.501s11 43.834 11 72.501c0 30.667 -7.66699 56 -23 76s-38.333 30 -69 30
c-40.667 0 -69 -14.5 -85 -43.5s-24 -68.167 -24 -117.5v-542h-204z" />
    <glyph glyph-name="uni00E0" unicode="&#xe0;" horiz-adv-x="514" 
d="M151 -9c-32.667 0 -60.666 9.83398 -83.999 29.501s-34.333 48.167 -33 85.5c0 24 4.66699 44.5 14 61.5s25.666 31.833 48.999 44.5s56 24.334 98 35.001l94 23v62c0 25.333 -7.66699 45.666 -23 60.999s-35 23 -59 23c-21.333 0 -36.666 -4.66699 -45.999 -14
s-14 -23.333 -14 -42v-46l-4 -4h-66c-10 0 -17 2.33301 -21 7s-6 12.667 -6 24c0 14.667 5.83301 29 17.5 43s27.167 27 46.5 39c24 15.333 46.5 26.333 67.5 33s43.833 10 68.5 10c32.667 0 62.667 -4.33301 90 -13s49.166 -22.5 65.499 -41.5s24.5 -43.5 24.5 -73.5v-264
c10.667 -10.667 26.667 -16 48 -16h29l3 -3v-14c-7.33301 -12.667 -19.833 -24.334 -37.5 -35.001s-40.5 -16 -68.5 -16s-50.833 5.83301 -68.5 17.5s-31.167 28.5 -40.5 50.5h-6c-16.667 -18.667 -36.667 -34.5 -60 -47.5s-49.333 -19.5 -78 -19.5zM166.001 134.001
c0 -21.333 5.83301 -37.167 17.5 -47.5s27.834 -15.5 48.501 -15.5c18 0 37 4 57 12v147c-33.333 -7.33301 -58.833 -15.333 -76.5 -24s-29.834 -18.667 -36.501 -30s-10 -25.333 -10 -42zM234.001 530l-131 108c-15.333 12.667 -25.833 24.167 -31.5 34.5
s-8.5 21.833 -8.5 34.5h110l83 -177h-22z" />
    <glyph glyph-name="uni00E1" unicode="&#xe1;" horiz-adv-x="514" 
d="M151 -9c-32.667 0 -60.666 9.83398 -83.999 29.501s-34.333 48.167 -33 85.5c0 24 4.66699 44.5 14 61.5s25.666 31.833 48.999 44.5s56 24.334 98 35.001l94 23v62c0 25.333 -7.66699 45.666 -23 60.999s-35 23 -59 23c-21.333 0 -36.666 -4.66699 -45.999 -14
s-14 -23.333 -14 -42v-46l-4 -4h-66c-10 0 -17 2.33301 -21 7s-6 12.667 -6 24c0 14.667 5.83301 29 17.5 43s27.167 27 46.5 39c24 15.333 46.5 26.333 67.5 33s43.833 10 68.5 10c32.667 0 62.667 -4.33301 90 -13s49.166 -22.5 65.499 -41.5s24.5 -43.5 24.5 -73.5v-264
c10.667 -10.667 26.667 -16 48 -16h29l3 -3v-14c-7.33301 -12.667 -19.833 -24.334 -37.5 -35.001s-40.5 -16 -68.5 -16s-50.833 5.83301 -68.5 17.5s-31.167 28.5 -40.5 50.5h-6c-16.667 -18.667 -36.667 -34.5 -60 -47.5s-49.333 -19.5 -78 -19.5zM166.001 134.001
c0 -21.333 5.83301 -37.167 17.5 -47.5s27.834 -15.5 48.501 -15.5c18 0 37 4 57 12v147c-33.333 -7.33301 -58.833 -15.333 -76.5 -24s-29.834 -18.667 -36.501 -30s-10 -25.333 -10 -42zM235.001 530l83 177h110c0 -12.667 -3 -24.167 -9 -34.5s-16.333 -21.833 -31 -34.5
l-131 -108h-22z" />
    <glyph glyph-name="uni00E2" unicode="&#xe2;" horiz-adv-x="514" 
d="M151 -9c-32.667 0 -60.666 9.83398 -83.999 29.501s-34.333 48.167 -33 85.5c0 24 4.66699 44.5 14 61.5s25.666 31.833 48.999 44.5s56 24.334 98 35.001l94 23v62c0 25.333 -7.66699 45.666 -23 60.999s-35 23 -59 23c-21.333 0 -36.666 -4.66699 -45.999 -14
s-14 -23.333 -14 -42v-46l-4 -4h-66c-10 0 -17 2.33301 -21 7s-6 12.667 -6 24c0 14.667 5.83301 29 17.5 43s27.167 27 46.5 39c24 15.333 46.5 26.333 67.5 33s43.833 10 68.5 10c32.667 0 62.667 -4.33301 90 -13s49.166 -22.5 65.499 -41.5s24.5 -43.5 24.5 -73.5v-264
c10.667 -10.667 26.667 -16 48 -16h29l3 -3v-14c-7.33301 -12.667 -19.833 -24.334 -37.5 -35.001s-40.5 -16 -68.5 -16s-50.833 5.83301 -68.5 17.5s-31.167 28.5 -40.5 50.5h-6c-16.667 -18.667 -36.667 -34.5 -60 -47.5s-49.333 -19.5 -78 -19.5zM166.001 134.001
c0 -21.333 5.83301 -37.167 17.5 -47.5s27.834 -15.5 48.501 -15.5c18 0 37 4 57 12v147c-33.333 -7.33301 -58.833 -15.333 -76.5 -24s-29.834 -18.667 -36.501 -30s-10 -25.333 -10 -42zM85.001 530l136 177h48l136 -177h-22l-138 83l-138 -83h-22z" />
    <glyph glyph-name="uni00E3" unicode="&#xe3;" horiz-adv-x="514" 
d="M151 -9c-32.667 0 -60.666 9.83398 -83.999 29.501s-34.333 48.167 -33 85.5c0 24 4.66699 44.5 14 61.5s25.666 31.833 48.999 44.5s56 24.334 98 35.001l94 23v62c0 25.333 -7.66699 45.666 -23 60.999s-35 23 -59 23c-21.333 0 -36.666 -4.66699 -45.999 -14
s-14 -23.333 -14 -42v-46l-4 -4h-66c-10 0 -17 2.33301 -21 7s-6 12.667 -6 24c0 14.667 5.83301 29 17.5 43s27.167 27 46.5 39c24 15.333 46.5 26.333 67.5 33s43.833 10 68.5 10c32.667 0 62.667 -4.33301 90 -13s49.166 -22.5 65.499 -41.5s24.5 -43.5 24.5 -73.5v-264
c10.667 -10.667 26.667 -16 48 -16h29l3 -3v-14c-7.33301 -12.667 -19.833 -24.334 -37.5 -35.001s-40.5 -16 -68.5 -16s-50.833 5.83301 -68.5 17.5s-31.167 28.5 -40.5 50.5h-6c-16.667 -18.667 -36.667 -34.5 -60 -47.5s-49.333 -19.5 -78 -19.5zM166.001 134.001
c0 -21.333 5.83301 -37.167 17.5 -47.5s27.834 -15.5 48.501 -15.5c18 0 37 4 57 12v147c-33.333 -7.33301 -58.833 -15.333 -76.5 -24s-29.834 -18.667 -36.501 -30s-10 -25.333 -10 -42zM80.001 550c12.667 40 24.5 69.667 35.5 89s22 32 33 38s23.833 9 38.5 9
c18.667 0 36.167 -5.16699 52.5 -15.5l47 -31c15 -10.333 28.833 -15.5 41.5 -15.5c12 0 22.333 3.83301 31 11.5s18.334 24.5 29.001 50.5h22c-12.667 -40 -24.5 -69.667 -35.5 -89s-22 -32 -33 -38s-23.833 -9 -38.5 -9c-18.667 0 -36.167 5.16699 -52.5 15.5l-47 31
c-15 10.333 -28.833 15.5 -41.5 15.5c-12 0 -22.333 -3.83301 -31 -11.5s-18.334 -24.5 -29.001 -50.5h-22z" />
    <glyph glyph-name="uni00E4" unicode="&#xe4;" horiz-adv-x="514" 
d="M151 -9c-32.667 0 -60.666 9.83398 -83.999 29.501s-34.333 48.167 -33 85.5c0 24 4.66699 44.5 14 61.5s25.666 31.833 48.999 44.5s56 24.334 98 35.001l94 23v62c0 25.333 -7.66699 45.666 -23 60.999s-35 23 -59 23c-21.333 0 -36.666 -4.66699 -45.999 -14
s-14 -23.333 -14 -42v-46l-4 -4h-66c-10 0 -17 2.33301 -21 7s-6 12.667 -6 24c0 14.667 5.83301 29 17.5 43s27.167 27 46.5 39c24 15.333 46.5 26.333 67.5 33s43.833 10 68.5 10c32.667 0 62.667 -4.33301 90 -13s49.166 -22.5 65.499 -41.5s24.5 -43.5 24.5 -73.5v-264
c10.667 -10.667 26.667 -16 48 -16h29l3 -3v-14c-7.33301 -12.667 -19.833 -24.334 -37.5 -35.001s-40.5 -16 -68.5 -16s-50.833 5.83301 -68.5 17.5s-31.167 28.5 -40.5 50.5h-6c-16.667 -18.667 -36.667 -34.5 -60 -47.5s-49.333 -19.5 -78 -19.5zM166.001 134.001
c0 -21.333 5.83301 -37.167 17.5 -47.5s27.834 -15.5 48.501 -15.5c18 0 37 4 57 12v147c-33.333 -7.33301 -58.833 -15.333 -76.5 -24s-29.834 -18.667 -36.501 -30s-10 -25.333 -10 -42zM146.001 559c-16.667 0 -30.5 5.66699 -41.5 17s-16.5 25 -16.5 41
s5.5 29.667 16.5 41s24.833 17 41.5 17s30.5 -5.66699 41.5 -17s16.5 -25 16.5 -41s-5.5 -29.667 -16.5 -41s-24.833 -17 -41.5 -17zM344.001 559c-16.667 0 -30.5 5.66699 -41.5 17s-16.5 25 -16.5 41s5.5 29.667 16.5 41s24.833 17 41.5 17s30.5 -5.66699 41.5 -17
s16.5 -25 16.5 -41s-5.5 -29.667 -16.5 -41s-24.833 -17 -41.5 -17z" />
    <glyph glyph-name="uni00E5" unicode="&#xe5;" horiz-adv-x="514" 
d="M151 -9c-32.667 0 -60.666 9.83398 -83.999 29.501s-34.333 48.167 -33 85.5c0 24 4.66699 44.5 14 61.5s25.666 31.833 48.999 44.5s56 24.334 98 35.001l94 23v62c0 25.333 -7.66699 45.666 -23 60.999s-35 23 -59 23c-21.333 0 -36.666 -4.66699 -45.999 -14
s-14 -23.333 -14 -42v-46l-4 -4h-66c-10 0 -17 2.33301 -21 7s-6 12.667 -6 24c0 14.667 5.83301 29 17.5 43s27.167 27 46.5 39c24 15.333 46.5 26.333 67.5 33s43.833 10 68.5 10c32.667 0 62.667 -4.33301 90 -13s49.166 -22.5 65.499 -41.5s24.5 -43.5 24.5 -73.5v-264
c10.667 -10.667 26.667 -16 48 -16h29l3 -3v-14c-7.33301 -12.667 -19.833 -24.334 -37.5 -35.001s-40.5 -16 -68.5 -16s-50.833 5.83301 -68.5 17.5s-31.167 28.5 -40.5 50.5h-6c-16.667 -18.667 -36.667 -34.5 -60 -47.5s-49.333 -19.5 -78 -19.5zM166.001 134.001
c0 -21.333 5.83301 -37.167 17.5 -47.5s27.834 -15.5 48.501 -15.5c18 0 37 4 57 12v147c-33.333 -7.33301 -58.833 -15.333 -76.5 -24s-29.834 -18.667 -36.501 -30s-10 -25.333 -10 -42zM245.001 703c26.667 0 48.167 -8.16699 64.5 -24.5s24.5 -36.5 24.5 -60.5
c0 -24.667 -8.16699 -45 -24.5 -61s-37.833 -24 -64.5 -24c-26 0 -47.333 8 -64 24s-25 36.333 -25 61c0 24 8.33301 44.167 25 60.5s38 24.5 64 24.5zM241.001 678c-9.33301 0 -16.667 -4.16797 -22 -12.501s-8 -22.166 -8 -41.499c0 -44 12.667 -66 38 -66
c20 0 30 18 30 54c0 44 -12.667 66 -38 66z" />
    <glyph glyph-name="uni00E6" unicode="&#xe6;" horiz-adv-x="748" 
d="M152 -9c-32.667 0 -60.5 9.83203 -83.5 29.499s-34.5 48.167 -34.5 85.5c0 24 4.66699 44.5 14 61.5s25.666 31.833 48.999 44.5s56 24.334 98 35.001l95 23v62c0 25.333 -7.66699 45.666 -23 60.999s-35 23 -59 23c-21.333 0 -36.666 -4.66699 -45.999 -14
s-14 -23.333 -14 -42v-46l-4 -4h-67c-10 0 -16.833 2.33301 -20.5 7s-5.5 12.667 -5.5 24c0 14.667 5.66699 29 17 43s27 27 47 39c23.333 15.333 45.5 26.333 66.5 33s43.833 10 68.5 10c29.333 0 56.833 -3.66699 82.5 -11s46.5 -19 62.5 -35
c41.333 30.667 88.666 46 141.999 46c54 0 96 -18 126 -54s45.333 -87 46 -153l-4 -5h-279v-5c0 -28 5.16699 -53.5 15.5 -76.5s27 -41.167 50 -54.5s52.833 -20 89.5 -20c19.333 0 39.5 2.33301 60.5 7s42.833 12.667 65.5 24h3v-16
c-16.667 -35.333 -42 -64.666 -76 -87.999s-74.333 -35 -121 -35c-41.333 0 -77.666 7.5 -108.999 22.5s-56.333 35.833 -75 62.5h-8c-19.333 -24 -43 -44 -71 -60s-60.667 -24 -98 -24zM514 420.999c-22.667 0 -41.5 -10.667 -56.5 -32s-24.5 -51.333 -28.5 -90h169
c-5.33301 46 -15 77.833 -29 95.5s-32.333 26.5 -55 26.5zM166 133.999c0 -21.333 5.99902 -37.167 17.999 -47.5s28.333 -15.5 49 -15.5c14.667 0 28.834 2.16699 42.501 6.5s27.167 10.166 40.5 17.499c-17.333 32.667 -26 70.334 -26 113.001v22
c-33.333 -7.33301 -59 -15.333 -77 -24s-30.333 -18.667 -37 -30s-10 -25.333 -10 -42z" />
    <glyph glyph-name="uni00E7" unicode="&#xe7;" horiz-adv-x="484" 
d="M245 -209c37.333 0 56 12.999 56 38.999c0 14 -6.66699 26 -20 36s-39.666 20.333 -78.999 31l43 93c-41.333 1.33301 -77.5 11.166 -108.5 29.499s-55.167 43.5 -72.5 75.5s-26 69.333 -26 112c0 50.667 10.5 95.5 31.5 134.5s50.333 69.5 88 91.5s81.5 33 131.5 33
c31.333 0 59.666 -4.33301 84.999 -13s44.333 -20.667 57 -36c10.667 -12.667 16 -22.667 16 -30c0 -8 -4.33301 -16 -13 -24l-47 -40h-7l-33 46c-12 15.333 -23.333 28 -34 38s-26.334 15 -47.001 15c-30.667 0 -53.834 -15.167 -69.501 -45.5s-23.5 -70.833 -23.5 -121.5
c0 -28.667 5 -55 15 -79s25.833 -43 47.5 -57s49.834 -21 84.501 -21c18.667 0 38.667 2.33301 60 7s43.333 12.667 66 24h3v-16c-14.667 -31.333 -36.167 -58.166 -64.5 -80.499s-62.166 -35.833 -101.499 -40.5l-15 -35c38 -11.333 64.667 -25.166 80 -41.499
s23 -37.5 23 -63.5c0 -26.667 -9.5 -48.667 -28.5 -66s-44.5 -26 -76.5 -26c-34 0 -61 8 -81 24v19h3c17.333 -8 36.333 -12 57 -12z" />
    <glyph glyph-name="uni00E8" unicode="&#xe8;" horiz-adv-x="496" 
d="M260 -10c-68.667 0 -122.833 19.832 -162.5 59.499s-59.5 92.167 -59.5 157.5c0 50.667 11 95.5 33 134.5s51.667 69.5 89 91.5s79 33 125 33c54 0 96 -18 126 -54s45.333 -87 46 -153l-4 -5h-280v-5c0 -28 5.33301 -53.5 16 -76.5s27.5 -41.167 50.5 -54.5
s52.833 -20 89.5 -20c19.333 0 39.5 2.33301 60.5 7s42.833 12.667 65.5 24h3v-16c-16.667 -35.333 -42.167 -64.666 -76.5 -87.999s-74.833 -35 -121.5 -35zM262.001 420.999c-23.333 0 -42.5 -10.667 -57.5 -32s-24.5 -51.333 -28.5 -90h169
c-4.66699 46 -14.167 77.833 -28.5 95.5s-32.5 26.5 -54.5 26.5zM255.001 529.999l-131 108c-15.333 12.667 -25.833 24.167 -31.5 34.5s-8.5 21.833 -8.5 34.5h110l83 -177h-22z" />
    <glyph glyph-name="uni00E9" unicode="&#xe9;" horiz-adv-x="496" 
d="M260 -10c-68.667 0 -122.833 19.832 -162.5 59.499s-59.5 92.167 -59.5 157.5c0 50.667 11 95.5 33 134.5s51.667 69.5 89 91.5s79 33 125 33c54 0 96 -18 126 -54s45.333 -87 46 -153l-4 -5h-280v-5c0 -28 5.33301 -53.5 16 -76.5s27.5 -41.167 50.5 -54.5
s52.833 -20 89.5 -20c19.333 0 39.5 2.33301 60.5 7s42.833 12.667 65.5 24h3v-16c-16.667 -35.333 -42.167 -64.666 -76.5 -87.999s-74.833 -35 -121.5 -35zM262.001 420.999c-23.333 0 -42.5 -10.667 -57.5 -32s-24.5 -51.333 -28.5 -90h169
c-4.66699 46 -14.167 77.833 -28.5 95.5s-32.5 26.5 -54.5 26.5zM257.001 529.999l83 177h110c0 -12.667 -3 -24.167 -9 -34.5s-16.333 -21.833 -31 -34.5l-131 -108h-22z" />
    <glyph glyph-name="uni00EA" unicode="&#xea;" horiz-adv-x="496" 
d="M260 -10c-68.667 0 -122.833 19.832 -162.5 59.499s-59.5 92.167 -59.5 157.5c0 50.667 11 95.5 33 134.5s51.667 69.5 89 91.5s79 33 125 33c54 0 96 -18 126 -54s45.333 -87 46 -153l-4 -5h-280v-5c0 -28 5.33301 -53.5 16 -76.5s27.5 -41.167 50.5 -54.5
s52.833 -20 89.5 -20c19.333 0 39.5 2.33301 60.5 7s42.833 12.667 65.5 24h3v-16c-16.667 -35.333 -42.167 -64.666 -76.5 -87.999s-74.833 -35 -121.5 -35zM262.001 420.999c-23.333 0 -42.5 -10.667 -57.5 -32s-24.5 -51.333 -28.5 -90h169
c-4.66699 46 -14.167 77.833 -28.5 95.5s-32.5 26.5 -54.5 26.5zM106.001 529.999l136 177h48l136 -177h-22l-138 83l-138 -83h-22z" />
    <glyph glyph-name="uni00EB" unicode="&#xeb;" horiz-adv-x="496" 
d="M260 -10c-68.667 0 -122.833 19.832 -162.5 59.499s-59.5 92.167 -59.5 157.5c0 50.667 11 95.5 33 134.5s51.667 69.5 89 91.5s79 33 125 33c54 0 96 -18 126 -54s45.333 -87 46 -153l-4 -5h-280v-5c0 -28 5.33301 -53.5 16 -76.5s27.5 -41.167 50.5 -54.5
s52.833 -20 89.5 -20c19.333 0 39.5 2.33301 60.5 7s42.833 12.667 65.5 24h3v-16c-16.667 -35.333 -42.167 -64.666 -76.5 -87.999s-74.833 -35 -121.5 -35zM262.001 420.999c-23.333 0 -42.5 -10.667 -57.5 -32s-24.5 -51.333 -28.5 -90h169
c-4.66699 46 -14.167 77.833 -28.5 95.5s-32.5 26.5 -54.5 26.5zM167.001 558.999c-16.667 0 -30.5 5.66699 -41.5 17s-16.5 25 -16.5 41s5.5 29.667 16.5 41s24.833 17 41.5 17s30.5 -5.66699 41.5 -17s16.5 -25 16.5 -41s-5.5 -29.667 -16.5 -41s-24.833 -17 -41.5 -17z
M365.001 558.999c-16.667 0 -30.5 5.66699 -41.5 17s-16.5 25 -16.5 41s5.5 29.667 16.5 41s24.833 17 41.5 17s30.5 -5.66699 41.5 -17s16.5 -25 16.5 -41s-5.5 -29.667 -16.5 -41s-24.833 -17 -41.5 -17z" />
    <glyph glyph-name="uni00EC" unicode="&#xec;" horiz-adv-x="333" 
d="M33 0v16l67 32v304l-64 47v12l193 55h12v-418l59 -32v-16h-267zM155 530l-131 108c-15.333 12.667 -25.833 24.167 -31.5 34.5s-8.5 21.833 -8.5 34.5h110l83 -177h-22z" />
    <glyph glyph-name="uni00ED" unicode="&#xed;" horiz-adv-x="333" 
d="M33 0v16l67 32v304l-64 47v12l193 55h12v-418l59 -32v-16h-267zM157 530l83 177h110c0 -12.667 -3 -24.167 -9 -34.5s-16.333 -21.833 -31 -34.5l-131 -108h-22z" />
    <glyph glyph-name="uni00EE" unicode="&#xee;" horiz-adv-x="333" 
d="M33 0v16l67 32v304l-64 47v12l193 55h12v-418l59 -32v-16h-267zM7 530l136 177h48l136 -177h-22l-138 83l-138 -83h-22z" />
    <glyph glyph-name="uni00EF" unicode="&#xef;" horiz-adv-x="333" 
d="M33 0v16l67 32v304l-64 47v12l193 55h12v-418l59 -32v-16h-267zM68 559c-16.667 0 -30.5 5.66699 -41.5 17s-16.5 25 -16.5 41s5.5 29.667 16.5 41s24.833 17 41.5 17s30.5 -5.66699 41.5 -17s16.5 -25 16.5 -41s-5.5 -29.667 -16.5 -41s-24.833 -17 -41.5 -17zM266 559
c-16.667 0 -30.5 5.66699 -41.5 17s-16.5 25 -16.5 41s5.5 29.667 16.5 41s24.833 17 41.5 17s30.5 -5.66699 41.5 -17s16.5 -25 16.5 -41s-5.5 -29.667 -16.5 -41s-24.833 -17 -41.5 -17z" />
    <glyph glyph-name="uni00F0" unicode="&#xf0;" horiz-adv-x="552" 
d="M273 -10c-46 0 -86.998 10.332 -122.998 30.999s-64.167 48.667 -84.5 84s-30.5 75 -30.5 119c0 49.333 10.833 92 32.5 128s50.667 64 87 84s76.833 30 121.5 30c12.667 0 24.167 -0.5 34.5 -1.5s20.166 -2.5 29.499 -4.5c-17.333 48.667 -42 91.334 -74 128.001
l-70 -65h-73l108 100c-40.667 34.667 -90.334 62.334 -149.001 83.001v43c72 -17.333 137.667 -44.666 197 -81.999l80 74h73l-111 -103c60.667 -46 108.5 -101.5 143.5 -166.5s52.5 -134.833 52.5 -209.5c0 -54.667 -10.5 -102.334 -31.5 -143.001
s-49.833 -72.334 -86.5 -95.001s-78.667 -34 -126 -34zM179.002 230.999c0 -36.667 3.66699 -69.5 11 -98.5s18.5 -51.833 33.5 -68.5s33.5 -25 55.5 -25c28 0 50 18 66 54s24 94 24 174c0 32.667 -2 63.667 -6 93c-12 16.667 -24.5 30 -37.5 40s-29.833 15 -50.5 15
c-64 0 -96 -61.333 -96 -184z" />
    <glyph glyph-name="uni00F1" unicode="&#xf1;" horiz-adv-x="618" 
d="M31 0l-0.000976562 16.0029l67 32v304l-64 41v12l182 61h12l9 -74h5c24 23.333 47.333 41.5 70 54.5s49.334 19.5 80.001 19.5c40.667 0 73.834 -10.333 99.501 -31s38.5 -51.334 38.5 -92.001v-295l67 -32v-16h-258v16l50 32v254c0 23.333 -6.83301 41.166 -20.5 53.499
s-30.834 18.5 -51.501 18.5c-12.667 0 -26.5 -2.33301 -41.5 -7s-27.5 -11.334 -37.5 -20.001v-299l51 -32v-16h-258zM148.999 550.003c12.667 40 24.5 69.667 35.5 89s22 32 33 38s23.833 9 38.5 9c18.667 0 36.167 -5.16699 52.5 -15.5l47 -31
c15 -10.333 28.833 -15.5 41.5 -15.5c12 0 22.333 3.83301 31 11.5s18.334 24.5 29.001 50.5h22c-12.667 -40 -24.5 -69.667 -35.5 -89s-22 -32 -33 -38s-23.833 -9 -38.5 -9c-18.667 0 -36.167 5.16699 -52.5 15.5l-47 31c-15 10.333 -28.833 15.5 -41.5 15.5
c-12 0 -22.333 -3.83301 -31 -11.5s-18.334 -24.5 -29.001 -50.5h-22z" />
    <glyph glyph-name="uni00F2" unicode="&#xf2;" horiz-adv-x="547" 
d="M274 -10c-47.333 0 -89 10.833 -125 32.5s-64 50.5 -84 86.5s-30 75.667 -30 119c0 44 10 84 30 120s48 64.667 84 86s77.667 32 125 32s88.833 -10.667 124.5 -32s63.5 -50 83.5 -86s30 -76 30 -120c0 -43.333 -10 -83 -30 -119s-47.833 -64.833 -83.5 -86.5
s-77.167 -32.5 -124.5 -32.5zM285 39c19.333 0 35.166 7.83496 47.499 23.502s21.333 36.5 27 62.5s8.5 53.667 8.5 83c0 36 -3.5 70 -10.5 102s-18 58 -33 78s-34.833 30 -59.5 30c-20 0 -36.333 -7.83301 -49 -23.5s-22 -36.334 -28 -62.001s-9 -53.5 -9 -83.5
c0 -36.667 3.66699 -70.834 11 -102.501s18.833 -57.5 34.5 -77.5s35.834 -30 60.501 -30zM261 530.002l-131 108c-15.333 12.667 -25.833 24.167 -31.5 34.5s-8.5 21.833 -8.5 34.5h110l83 -177h-22z" />
    <glyph glyph-name="uni00F3" unicode="&#xf3;" horiz-adv-x="547" 
d="M274 -10c-47.333 0 -89 10.833 -125 32.5s-64 50.5 -84 86.5s-30 75.667 -30 119c0 44 10 84 30 120s48 64.667 84 86s77.667 32 125 32s88.833 -10.667 124.5 -32s63.5 -50 83.5 -86s30 -76 30 -120c0 -43.333 -10 -83 -30 -119s-47.833 -64.833 -83.5 -86.5
s-77.167 -32.5 -124.5 -32.5zM285 39c19.333 0 35.166 7.83496 47.499 23.502s21.333 36.5 27 62.5s8.5 53.667 8.5 83c0 36 -3.5 70 -10.5 102s-18 58 -33 78s-34.833 30 -59.5 30c-20 0 -36.333 -7.83301 -49 -23.5s-22 -36.334 -28 -62.001s-9 -53.5 -9 -83.5
c0 -36.667 3.66699 -70.834 11 -102.501s18.833 -57.5 34.5 -77.5s35.834 -30 60.501 -30zM263 530.002l83 177h110c0 -12.667 -3 -24.167 -9 -34.5s-16.333 -21.833 -31 -34.5l-131 -108h-22z" />
    <glyph glyph-name="uni00F4" unicode="&#xf4;" horiz-adv-x="547" 
d="M274 -10c-47.333 0 -89 10.833 -125 32.5s-64 50.5 -84 86.5s-30 75.667 -30 119c0 44 10 84 30 120s48 64.667 84 86s77.667 32 125 32s88.833 -10.667 124.5 -32s63.5 -50 83.5 -86s30 -76 30 -120c0 -43.333 -10 -83 -30 -119s-47.833 -64.833 -83.5 -86.5
s-77.167 -32.5 -124.5 -32.5zM285 39c19.333 0 35.166 7.83496 47.499 23.502s21.333 36.5 27 62.5s8.5 53.667 8.5 83c0 36 -3.5 70 -10.5 102s-18 58 -33 78s-34.833 30 -59.5 30c-20 0 -36.333 -7.83301 -49 -23.5s-22 -36.334 -28 -62.001s-9 -53.5 -9 -83.5
c0 -36.667 3.66699 -70.834 11 -102.501s18.833 -57.5 34.5 -77.5s35.834 -30 60.501 -30zM112 530.002l136 177h48l136 -177h-22l-138 83l-138 -83h-22z" />
    <glyph glyph-name="uni00F5" unicode="&#xf5;" horiz-adv-x="547" 
d="M274 -10c-47.333 0 -89 10.833 -125 32.5s-64 50.5 -84 86.5s-30 75.667 -30 119c0 44 10 84 30 120s48 64.667 84 86s77.667 32 125 32s88.833 -10.667 124.5 -32s63.5 -50 83.5 -86s30 -76 30 -120c0 -43.333 -10 -83 -30 -119s-47.833 -64.833 -83.5 -86.5
s-77.167 -32.5 -124.5 -32.5zM285 39c19.333 0 35.166 7.83496 47.499 23.502s21.333 36.5 27 62.5s8.5 53.667 8.5 83c0 36 -3.5 70 -10.5 102s-18 58 -33 78s-34.833 30 -59.5 30c-20 0 -36.333 -7.83301 -49 -23.5s-22 -36.334 -28 -62.001s-9 -53.5 -9 -83.5
c0 -36.667 3.66699 -70.834 11 -102.501s18.833 -57.5 34.5 -77.5s35.834 -30 60.501 -30zM107 550.002c12.667 40 24.5 69.667 35.5 89s22 32 33 38s23.833 9 38.5 9c18.667 0 36.167 -5.16699 52.5 -15.5l47 -31c15 -10.333 28.833 -15.5 41.5 -15.5
c12 0 22.333 3.83301 31 11.5s18.334 24.5 29.001 50.5h22c-12.667 -40 -24.5 -69.667 -35.5 -89s-22 -32 -33 -38s-23.833 -9 -38.5 -9c-18.667 0 -36.167 5.16699 -52.5 15.5l-47 31c-15 10.333 -28.833 15.5 -41.5 15.5c-12 0 -22.333 -3.83301 -31 -11.5
s-18.334 -24.5 -29.001 -50.5h-22z" />
    <glyph glyph-name="uni00F6" unicode="&#xf6;" horiz-adv-x="547" 
d="M274 -10c-47.333 0 -89 10.833 -125 32.5s-64 50.5 -84 86.5s-30 75.667 -30 119c0 44 10 84 30 120s48 64.667 84 86s77.667 32 125 32s88.833 -10.667 124.5 -32s63.5 -50 83.5 -86s30 -76 30 -120c0 -43.333 -10 -83 -30 -119s-47.833 -64.833 -83.5 -86.5
s-77.167 -32.5 -124.5 -32.5zM285 39c19.333 0 35.166 7.83496 47.499 23.502s21.333 36.5 27 62.5s8.5 53.667 8.5 83c0 36 -3.5 70 -10.5 102s-18 58 -33 78s-34.833 30 -59.5 30c-20 0 -36.333 -7.83301 -49 -23.5s-22 -36.334 -28 -62.001s-9 -53.5 -9 -83.5
c0 -36.667 3.66699 -70.834 11 -102.501s18.833 -57.5 34.5 -77.5s35.834 -30 60.501 -30zM173 559.002c-16.667 0 -30.5 5.66699 -41.5 17s-16.5 25 -16.5 41s5.5 29.667 16.5 41s24.833 17 41.5 17s30.5 -5.66699 41.5 -17s16.5 -25 16.5 -41s-5.5 -29.667 -16.5 -41
s-24.833 -17 -41.5 -17zM371 559.002c-16.667 0 -30.5 5.66699 -41.5 17s-16.5 25 -16.5 41s5.5 29.667 16.5 41s24.833 17 41.5 17s30.5 -5.66699 41.5 -17s16.5 -25 16.5 -41s-5.5 -29.667 -16.5 -41s-24.833 -17 -41.5 -17z" />
    <glyph glyph-name="uni00F7" unicode="&#xf7;" 
d="M245 413v69h70v-69h-70zM70 245v54h420v-54h-420zM245 62v69h70v-69h-70z" />
    <glyph glyph-name="uni00F8" unicode="&#xf8;" horiz-adv-x="547" 
d="M35 -10l62.999 73.999c-20 21.333 -35.5 46 -46.5 74s-16.5 58 -16.5 90c0 44 10 84 30 120s48 64.667 84 86s77.667 32 125 32c26 0 50.333 -3.5 73 -10.5s43.334 -16.5 62.001 -28.5l34 39h69l-63 -73c20 -21.333 35.5 -46.166 46.5 -74.499s16.5 -58.5 16.5 -90.5
c0 -43.333 -10 -83 -30 -119s-47.833 -64.833 -83.5 -86.5s-77.167 -32.5 -124.5 -32.5c-26 0 -50.5 3.5 -73.5 10.5s-43.833 16.833 -62.5 29.5l-34 -40h-69zM178.999 248.999c0 -30 2.33301 -57.666 7 -82.999l159 185c-8.66699 20.667 -19.5 37 -32.5 49
s-28.833 18 -47.5 18c-20 0 -36.333 -7.83301 -49 -23.5s-22 -36.334 -28 -62.001s-9 -53.5 -9 -83.5zM284.999 39c19.333 0 35.165 7.83301 47.498 23.5s21.333 36.5 27 62.5s8.5 53.667 8.5 83c0 30 -2 57.333 -6 82l-159 -184c8.66699 -20.667 19.834 -37 33.501 -49
s29.834 -18 48.501 -18z" />
    <glyph glyph-name="uni00F9" unicode="&#xf9;" horiz-adv-x="590" 
d="M218 -10c-40 0 -72.833 10.3311 -98.5 30.998s-38.5 51.334 -38.5 92.001v295l-66 32v16h207v-302c0 -23.333 6.66699 -41.166 20 -53.499s30.333 -18.5 51 -18.5c12.667 0 26 2.33301 40 7s26 11 36 19v300l-60 32v16h201v-409l63 -31v-16h-204v64h-4
c-23.333 -23.333 -46 -41.5 -68 -54.5s-48.333 -19.5 -79 -19.5zM282 529.998l-131 108c-15.333 12.667 -25.833 24.167 -31.5 34.5s-8.5 21.833 -8.5 34.5h110l83 -177h-22z" />
    <glyph glyph-name="uni00FA" unicode="&#xfa;" horiz-adv-x="590" 
d="M218 -10c-40 0 -72.833 10.3311 -98.5 30.998s-38.5 51.334 -38.5 92.001v295l-66 32v16h207v-302c0 -23.333 6.66699 -41.166 20 -53.499s30.333 -18.5 51 -18.5c12.667 0 26 2.33301 40 7s26 11 36 19v300l-60 32v16h201v-409l63 -31v-16h-204v64h-4
c-23.333 -23.333 -46 -41.5 -68 -54.5s-48.333 -19.5 -79 -19.5zM284 529.998l83 177h110c0 -12.667 -3 -24.167 -9 -34.5s-16.333 -21.833 -31 -34.5l-131 -108h-22z" />
    <glyph glyph-name="uni00FB" unicode="&#xfb;" horiz-adv-x="590" 
d="M218 -10c-40 0 -72.833 10.3311 -98.5 30.998s-38.5 51.334 -38.5 92.001v295l-66 32v16h207v-302c0 -23.333 6.66699 -41.166 20 -53.499s30.333 -18.5 51 -18.5c12.667 0 26 2.33301 40 7s26 11 36 19v300l-60 32v16h201v-409l63 -31v-16h-204v64h-4
c-23.333 -23.333 -46 -41.5 -68 -54.5s-48.333 -19.5 -79 -19.5zM134 529.998l136 177h48l136 -177h-22l-138 83l-138 -83h-22z" />
    <glyph glyph-name="uni00FC" unicode="&#xfc;" horiz-adv-x="590" 
d="M218 -10c-40 0 -72.833 10.3311 -98.5 30.998s-38.5 51.334 -38.5 92.001v295l-66 32v16h207v-302c0 -23.333 6.66699 -41.166 20 -53.499s30.333 -18.5 51 -18.5c12.667 0 26 2.33301 40 7s26 11 36 19v300l-60 32v16h201v-409l63 -31v-16h-204v64h-4
c-23.333 -23.333 -46 -41.5 -68 -54.5s-48.333 -19.5 -79 -19.5zM195 558.998c-16.667 0 -30.5 5.66699 -41.5 17s-16.5 25 -16.5 41s5.5 29.667 16.5 41s24.833 17 41.5 17s30.5 -5.66699 41.5 -17s16.5 -25 16.5 -41s-5.5 -29.667 -16.5 -41s-24.833 -17 -41.5 -17z
M393 558.998c-16.667 0 -30.5 5.66699 -41.5 17s-16.5 25 -16.5 41s5.5 29.667 16.5 41s24.833 17 41.5 17s30.5 -5.66699 41.5 -17s16.5 -25 16.5 -41s-5.5 -29.667 -16.5 -41s-24.833 -17 -41.5 -17z" />
    <glyph glyph-name="uni00FD" unicode="&#xfd;" horiz-adv-x="476" 
d="M83 -241c-15.333 0 -24.834 2.16797 -28.501 6.50098s-5.5 11.833 -5.5 22.5v69l5 5h45c16.667 0 30.5 1.16699 41.5 3.5s21 8.66602 30 18.999s18.5 27.5 28.5 51.5l26 63l-199 414l-62 27v16h276v-16l-62 -29v-3l110 -231h7l85 227v4l-59 32v16h191v-16l-71 -33
l-200 -486l-15.5 -38.5c-4.33301 -10.333 -9.16602 -20.333 -14.499 -30s-13 -21.5 -23 -35.5c-13.333 -19.333 -29.833 -33.833 -49.5 -43.5s-38.167 -14.5 -55.5 -14.5zM270.999 530.001l83 177h110c0 -12.667 -3 -24.167 -9 -34.5s-16.333 -21.833 -31 -34.5l-131 -108
h-22z" />
    <glyph glyph-name="uni00FE" unicode="&#xfe;" horiz-adv-x="586" 
d="M31 -230l-0.00292969 16l67 32v818l-64 47v12l188 55h16v-342h7c24.667 20.667 48.167 35.5 70.5 44.5s46.5 13.5 72.5 13.5c29.333 0 56.833 -8.83301 82.5 -26.5s46.167 -42.834 61.5 -75.501s23 -71.667 23 -117c0 -53.333 -10.667 -99.166 -32 -137.499
s-49.666 -67.833 -84.999 -88.5s-73.666 -31 -114.999 -31c-15.333 0 -30.166 0.666992 -44.499 2s-27.833 4 -40.5 8v-182l78 -32v-16h-285zM304.997 384c-12 0 -23.166 -1.66699 -33.499 -5s-21.5 -8.33301 -33.5 -15v-289c19.333 -22 45.666 -33 78.999 -33
c16 0 31.5 5 46.5 15s27.333 27.667 37 53s14.5 61.333 14.5 108c0 57.333 -11.333 99.333 -34 126s-48 40 -76 40z" />
    <glyph glyph-name="uni00FF" unicode="&#xff;" horiz-adv-x="476" 
d="M83 -241c-15.333 0 -24.834 2.16797 -28.501 6.50098s-5.5 11.833 -5.5 22.5v69l5 5h45c16.667 0 30.5 1.16699 41.5 3.5s21 8.66602 30 18.999s18.5 27.5 28.5 51.5l26 63l-199 414l-62 27v16h276v-16l-62 -29v-3l110 -231h7l85 227v4l-59 32v16h191v-16l-71 -33
l-200 -486l-15.5 -38.5c-4.33301 -10.333 -9.16602 -20.333 -14.499 -30s-13 -21.5 -23 -35.5c-13.333 -19.333 -29.833 -33.833 -49.5 -43.5s-38.167 -14.5 -55.5 -14.5zM180.999 559.001c-16.667 0 -30.5 5.66699 -41.5 17s-16.5 25 -16.5 41s5.5 29.667 16.5 41
s24.833 17 41.5 17s30.5 -5.66699 41.5 -17s16.5 -25 16.5 -41s-5.5 -29.667 -16.5 -41s-24.833 -17 -41.5 -17zM378.999 559.001c-16.667 0 -30.5 5.66699 -41.5 17s-16.5 25 -16.5 41s5.5 29.667 16.5 41s24.833 17 41.5 17s30.5 -5.66699 41.5 -17s16.5 -25 16.5 -41
s-5.5 -29.667 -16.5 -41s-24.833 -17 -41.5 -17z" />
    <glyph glyph-name="uni0100" unicode="&#x100;" horiz-adv-x="774" 
d="M19 0v16l61 34l261 615h88l258 -613l68 -36v-16h-316v16l87 36l-68 166h-237l-68 -166l83 -36v-16h-217zM244 273h191l-95 233zM241 757v59h290v-59h-290z" />
    <glyph glyph-name="uni0101" unicode="&#x101;" horiz-adv-x="514" 
d="M151 -9c-32.667 0 -60.666 9.83398 -83.999 29.501s-34.333 48.167 -33 85.5c0 24 4.66699 44.5 14 61.5s25.666 31.833 48.999 44.5s56 24.334 98 35.001l94 23v62c0 25.333 -7.66699 45.666 -23 60.999s-35 23 -59 23c-21.333 0 -36.666 -4.66699 -45.999 -14
s-14 -23.333 -14 -42v-46l-4 -4h-66c-10 0 -17 2.33301 -21 7s-6 12.667 -6 24c0 14.667 5.83301 29 17.5 43s27.167 27 46.5 39c24 15.333 46.5 26.333 67.5 33s43.833 10 68.5 10c32.667 0 62.667 -4.33301 90 -13s49.166 -22.5 65.499 -41.5s24.5 -43.5 24.5 -73.5v-264
c10.667 -10.667 26.667 -16 48 -16h29l3 -3v-14c-7.33301 -12.667 -19.833 -24.334 -37.5 -35.001s-40.5 -16 -68.5 -16s-50.833 5.83301 -68.5 17.5s-31.167 28.5 -40.5 50.5h-6c-16.667 -18.667 -36.667 -34.5 -60 -47.5s-49.333 -19.5 -78 -19.5zM166.001 134.001
c0 -21.333 5.83301 -37.167 17.5 -47.5s27.834 -15.5 48.501 -15.5c18 0 37 4 57 12v147c-33.333 -7.33301 -58.833 -15.333 -76.5 -24s-29.834 -18.667 -36.501 -30s-10 -25.333 -10 -42zM100.001 587v60h290v-60h-290z" />
    <glyph glyph-name="uni0102" unicode="&#x102;" horiz-adv-x="774" 
d="M19 0v16l61 34l261 615h88l258 -613l68 -36v-16h-316v16l87 36l-68 166h-237l-68 -166l83 -36v-16h-217zM244 273h191l-95 233zM386 710c-48 0 -83.667 13 -107 39s-40.666 63.667 -51.999 113h21c15.333 -31.333 34.166 -51.5 56.499 -60.5s49.5 -13.5 81.5 -13.5
s59 4.33301 81 13s41 29 57 61h21c-12 -49.333 -30.5 -87 -55.5 -113s-59.5 -39 -103.5 -39z" />
    <glyph glyph-name="uni0103" unicode="&#x103;" horiz-adv-x="514" 
d="M151 -9c-32.667 0 -60.666 9.83398 -83.999 29.501s-34.333 48.167 -33 85.5c0 24 4.66699 44.5 14 61.5s25.666 31.833 48.999 44.5s56 24.334 98 35.001l94 23v62c0 25.333 -7.66699 45.666 -23 60.999s-35 23 -59 23c-21.333 0 -36.666 -4.66699 -45.999 -14
s-14 -23.333 -14 -42v-46l-4 -4h-66c-10 0 -17 2.33301 -21 7s-6 12.667 -6 24c0 14.667 5.83301 29 17.5 43s27.167 27 46.5 39c24 15.333 46.5 26.333 67.5 33s43.833 10 68.5 10c32.667 0 62.667 -4.33301 90 -13s49.166 -22.5 65.499 -41.5s24.5 -43.5 24.5 -73.5v-264
c10.667 -10.667 26.667 -16 48 -16h29l3 -3v-14c-7.33301 -12.667 -19.833 -24.334 -37.5 -35.001s-40.5 -16 -68.5 -16s-50.833 5.83301 -68.5 17.5s-31.167 28.5 -40.5 50.5h-6c-16.667 -18.667 -36.667 -34.5 -60 -47.5s-49.333 -19.5 -78 -19.5zM166.001 134.001
c0 -21.333 5.83301 -37.167 17.5 -47.5s27.834 -15.5 48.501 -15.5c18 0 37 4 57 12v147c-33.333 -7.33301 -58.833 -15.333 -76.5 -24s-29.834 -18.667 -36.501 -30s-10 -25.333 -10 -42zM245.001 540c-48 0 -83.3311 13.667 -105.998 41s-40.334 69.333 -53.001 126h21
c12 -26 24.833 -45.333 38.5 -58s28.667 -21 45 -25s34.5 -6 54.5 -6s38.167 2 54.5 6s31.333 12.333 45 25s26.5 32 38.5 58h21c-12.667 -56.667 -31.334 -98.667 -56.001 -126s-59 -41 -103 -41z" />
    <glyph glyph-name="uni0104" unicode="&#x104;" horiz-adv-x="774" 
d="M600 -127c0 -40.667 19.001 -61.001 57.001 -61.001c8 0 16.167 1.33301 24.5 4s16.166 6.66699 23.499 12h3v-19c-16.667 -32.667 -46.334 -49 -89.001 -49c-30.667 0 -55.167 8.33301 -73.5 25s-27.5 38.334 -27.5 65.001c0 23.333 7.83301 47.166 23.5 71.499
s36.834 50.5 63.501 78.5h-166v16l87 36l-68 166h-237l-68 -166l83 -36v-16h-217v16l61 35l261 614h88l257 -611l69 -38v-16h-116c-26 -45.333 -39 -87.666 -39 -126.999zM244.001 272.999h191l-95 233z" />
    <glyph glyph-name="uni0105" unicode="&#x105;" horiz-adv-x="514" 
d="M151 -9c-32.667 0 -60.667 9.83105 -84 29.498s-34.333 48.167 -33 85.5c0 24 4.66699 44.5 14 61.5s25.666 31.833 48.999 44.5s56 24.334 98 35.001l94 23v62c0 25.333 -7.66699 45.666 -23 60.999s-35 23 -59 23c-21.333 0 -36.666 -4.66699 -45.999 -14
s-14 -23.333 -14 -42v-46l-4 -4h-66c-10 0 -17 2.33301 -21 7s-6 12.667 -6 24c0 14.667 5.83301 29 17.5 43s27.167 27 46.5 39c24 15.333 46.5 26.333 67.5 33s43.833 10 68.5 10c32.667 0 62.667 -4.33301 90 -13s49.166 -22.5 65.499 -41.5s24.5 -43.5 24.5 -73.5v-264
c10.667 -10.667 26.667 -16 48 -16h29l3 -3v-14c-6 -10 -15.167 -19.5 -27.5 -28.5s-27.833 -15.5 -46.5 -19.5c-24 -43.333 -36 -83.333 -36 -120c0 -40.667 19.333 -61 58 -61c8 0 16.333 1.33301 25 4s16.334 6.66699 23.001 12h3v-19c-18 -32.667 -48 -49 -90 -49
c-30 0 -54.167 8.33301 -72.5 25s-27.5 38.334 -27.5 65.001c0 22 6.83301 44.5 20.5 67.5s32.5 47.167 56.5 72.5c-26 1.33301 -47.167 7.83301 -63.5 19.5s-28.833 27.834 -37.5 48.501h-6c-16.667 -18.667 -36.667 -34.5 -60 -47.5s-49.333 -19.5 -78 -19.5zM166 133.998
c0 -21.333 5.83301 -37.167 17.5 -47.5s27.834 -15.5 48.501 -15.5c18 0 37 4 57 12v147c-33.333 -7.33301 -58.833 -15.333 -76.5 -24s-29.834 -18.667 -36.501 -30s-10 -25.333 -10 -42z" />
    <glyph glyph-name="uni0106" unicode="&#x106;" horiz-adv-x="711" 
d="M399 -10c-70 0 -131.333 14.3301 -184 42.9971s-93.5 67.5 -122.5 116.5s-43.5 104.5 -43.5 166.5c0 50 10 96.333 30 139s47.167 80.167 81.5 112.5s73.333 57.5 117 75.5s89.5 27 137.5 27c35.333 0 64.666 -2 87.999 -6s44.333 -9.66699 63 -17
s37.334 -15.666 56.001 -24.999l11 -187h-18l-95 155c-16.667 10.667 -32.334 18.334 -47.001 23.001s-32.334 7 -53.001 7c-40.667 0 -77.167 -12.167 -109.5 -36.5s-57.833 -58.666 -76.5 -102.999s-28 -95.833 -28 -154.5c0 -58 9 -108.167 27 -150.5s42.5 -75 73.5 -98
s65.833 -34.5 104.5 -34.5c24.667 0 46.834 3.16699 66.501 9.5s38.5 14.5 56.5 24.5l90 134h17l-14 -169c-27.333 -16 -60.166 -28.667 -98.499 -38s-81.5 -14 -129.5 -14zM380 709.997l83 152.001h110c0 -12.667 -2.66699 -24.834 -8 -36.501s-16 -22.5 -32 -32.5
l-131 -83h-22z" />
    <glyph glyph-name="uni0107" unicode="&#x107;" horiz-adv-x="484" 
d="M254 -10c-42.667 0 -80.332 8.99902 -112.999 26.999s-58 43.333 -76 76s-27 70.667 -27 114c0 50.667 10.5 95.5 31.5 134.5s50.333 69.5 88 91.5s81.5 33 131.5 33c31.333 0 59.666 -4.33301 84.999 -13s44.333 -20.667 57 -36c10.667 -12.667 16 -22.667 16 -30
c0 -8 -4.33301 -16 -13 -24l-47 -40h-7l-35 49c-11.333 15.333 -22.666 27.5 -33.999 36.5s-26.333 13.5 -45 13.5c-30.667 0 -53.834 -15.167 -69.501 -45.5s-23.5 -70.833 -23.5 -121.5c0 -28.667 5 -55 15 -79s25.833 -43 47.5 -57s49.834 -21 84.501 -21
c18.667 0 38.667 2.33301 60 7s43.333 12.667 66 24h3v-16c-16.667 -35.333 -41.834 -64.666 -75.501 -87.999s-73.5 -35 -119.5 -35zM261.002 529.999l83 177h110c0 -12.667 -3 -24.167 -9 -34.5s-16.333 -21.833 -31 -34.5l-131 -108h-22z" />
    <glyph glyph-name="uni0108" unicode="&#x108;" horiz-adv-x="711" 
d="M399 -10c-70 0 -131.333 14.3301 -184 42.9971s-93.5 67.5 -122.5 116.5s-43.5 104.5 -43.5 166.5c0 50 10 96.333 30 139s47.167 80.167 81.5 112.5s73.333 57.5 117 75.5s89.5 27 137.5 27c35.333 0 64.666 -2 87.999 -6s44.333 -9.66699 63 -17
s37.334 -15.666 56.001 -24.999l11 -187h-18l-95 155c-16.667 10.667 -32.334 18.334 -47.001 23.001s-32.334 7 -53.001 7c-40.667 0 -77.167 -12.167 -109.5 -36.5s-57.833 -58.666 -76.5 -102.999s-28 -95.833 -28 -154.5c0 -58 9 -108.167 27 -150.5s42.5 -75 73.5 -98
s65.833 -34.5 104.5 -34.5c24.667 0 46.834 3.16699 66.501 9.5s38.5 14.5 56.5 24.5l90 134h17l-14 -169c-27.333 -16 -60.166 -28.667 -98.499 -38s-81.5 -14 -129.5 -14zM231 709.997l136 152h48l136 -152h-22l-138 64l-138 -64h-22z" />
    <glyph glyph-name="uni0109" unicode="&#x109;" horiz-adv-x="484" 
d="M254 -10c-42.667 0 -80.332 8.99902 -112.999 26.999s-58 43.333 -76 76s-27 70.667 -27 114c0 50.667 10.5 95.5 31.5 134.5s50.333 69.5 88 91.5s81.5 33 131.5 33c31.333 0 59.666 -4.33301 84.999 -13s44.333 -20.667 57 -36c10.667 -12.667 16 -22.667 16 -30
c0 -8 -4.33301 -16 -13 -24l-47 -40h-7l-35 49c-11.333 15.333 -22.666 27.5 -33.999 36.5s-26.333 13.5 -45 13.5c-30.667 0 -53.834 -15.167 -69.501 -45.5s-23.5 -70.833 -23.5 -121.5c0 -28.667 5 -55 15 -79s25.833 -43 47.5 -57s49.834 -21 84.501 -21
c18.667 0 38.667 2.33301 60 7s43.333 12.667 66 24h3v-16c-16.667 -35.333 -41.834 -64.666 -75.501 -87.999s-73.5 -35 -119.5 -35zM110.002 529.999l136 177h48l136 -177h-22l-138 83l-138 -83h-22z" />
    <glyph glyph-name="uni010A" unicode="&#x10a;" horiz-adv-x="711" 
d="M399 -10c-70 0 -131.333 14.3301 -184 42.9971s-93.5 67.5 -122.5 116.5s-43.5 104.5 -43.5 166.5c0 50 10 96.333 30 139s47.167 80.167 81.5 112.5s73.333 57.5 117 75.5s89.5 27 137.5 27c35.333 0 64.666 -2 87.999 -6s44.333 -9.66699 63 -17
s37.334 -15.666 56.001 -24.999l11 -187h-18l-95 155c-16.667 10.667 -32.334 18.334 -47.001 23.001s-32.334 7 -53.001 7c-40.667 0 -77.167 -12.167 -109.5 -36.5s-57.833 -58.666 -76.5 -102.999s-28 -95.833 -28 -154.5c0 -58 9 -108.167 27 -150.5s42.5 -75 73.5 -98
s65.833 -34.5 104.5 -34.5c24.667 0 46.834 3.16699 66.501 9.5s38.5 14.5 56.5 24.5l90 134h17l-14 -169c-27.333 -16 -60.166 -28.667 -98.499 -38s-81.5 -14 -129.5 -14zM391 720.997c-21.333 0 -38.833 6.83301 -52.5 20.5s-20.5 31.167 -20.5 52.5
c0 20.667 6.83301 38 20.5 52s31.167 21 52.5 21s38.833 -7 52.5 -21s20.5 -31.333 20.5 -52c0 -21.333 -6.83301 -38.833 -20.5 -52.5s-31.167 -20.5 -52.5 -20.5z" />
    <glyph glyph-name="uni010B" unicode="&#x10b;" horiz-adv-x="484" 
d="M254 -10c-42.667 0 -80.332 8.99902 -112.999 26.999s-58 43.333 -76 76s-27 70.667 -27 114c0 50.667 10.5 95.5 31.5 134.5s50.333 69.5 88 91.5s81.5 33 131.5 33c31.333 0 59.666 -4.33301 84.999 -13s44.333 -20.667 57 -36c10.667 -12.667 16 -22.667 16 -30
c0 -8 -4.33301 -16 -13 -24l-47 -40h-7l-35 49c-11.333 15.333 -22.666 27.5 -33.999 36.5s-26.333 13.5 -45 13.5c-30.667 0 -53.834 -15.167 -69.501 -45.5s-23.5 -70.833 -23.5 -121.5c0 -28.667 5 -55 15 -79s25.833 -43 47.5 -57s49.834 -21 84.501 -21
c18.667 0 38.667 2.33301 60 7s43.333 12.667 66 24h3v-16c-16.667 -35.333 -41.834 -64.666 -75.501 -87.999s-73.5 -35 -119.5 -35zM269.002 544.999c-21.333 0 -38.833 6.83301 -52.5 20.5s-20.5 31.167 -20.5 52.5s6.83301 38.833 20.5 52.5s31.167 20.5 52.5 20.5
s38.833 -6.83301 52.5 -20.5s20.5 -31.167 20.5 -52.5s-6.83301 -38.833 -20.5 -52.5s-31.167 -20.5 -52.5 -20.5z" />
    <glyph glyph-name="uni010C" unicode="&#x10c;" horiz-adv-x="711" 
d="M399 -10c-70 0 -131.333 14.3301 -184 42.9971s-93.5 67.5 -122.5 116.5s-43.5 104.5 -43.5 166.5c0 50 10 96.333 30 139s47.167 80.167 81.5 112.5s73.333 57.5 117 75.5s89.5 27 137.5 27c35.333 0 64.666 -2 87.999 -6s44.333 -9.66699 63 -17
s37.334 -15.666 56.001 -24.999l11 -187h-18l-95 155c-16.667 10.667 -32.334 18.334 -47.001 23.001s-32.334 7 -53.001 7c-40.667 0 -77.167 -12.167 -109.5 -36.5s-57.833 -58.666 -76.5 -102.999s-28 -95.833 -28 -154.5c0 -58 9 -108.167 27 -150.5s42.5 -75 73.5 -98
s65.833 -34.5 104.5 -34.5c24.667 0 46.834 3.16699 66.501 9.5s38.5 14.5 56.5 24.5l90 134h17l-14 -169c-27.333 -16 -60.166 -28.667 -98.499 -38s-81.5 -14 -129.5 -14zM367 709.997l-136 152h22l138 -64l138 64h22l-136 -152h-48z" />
    <glyph glyph-name="uni010D" unicode="&#x10d;" horiz-adv-x="484" 
d="M254 -10c-42.667 0 -80.332 8.99902 -112.999 26.999s-58 43.333 -76 76s-27 70.667 -27 114c0 50.667 10.5 95.5 31.5 134.5s50.333 69.5 88 91.5s81.5 33 131.5 33c31.333 0 59.666 -4.33301 84.999 -13s44.333 -20.667 57 -36c10.667 -12.667 16 -22.667 16 -30
c0 -8 -4.33301 -16 -13 -24l-47 -40h-7l-35 49c-11.333 15.333 -22.666 27.5 -33.999 36.5s-26.333 13.5 -45 13.5c-30.667 0 -53.834 -15.167 -69.501 -45.5s-23.5 -70.833 -23.5 -121.5c0 -28.667 5 -55 15 -79s25.833 -43 47.5 -57s49.834 -21 84.501 -21
c18.667 0 38.667 2.33301 60 7s43.333 12.667 66 24h3v-16c-16.667 -35.333 -41.834 -64.666 -75.501 -87.999s-73.5 -35 -119.5 -35zM246.002 529.999l-136 177h22l138 -83l138 83h22l-136 -177h-48z" />
    <glyph glyph-name="uni010E" unicode="&#x10e;" horiz-adv-x="802" 
d="M44 0l0.000976562 15.999l85 41v546l-85 41v16h341c79.333 0 146.666 -13 201.999 -39s97.5 -61.667 126.5 -107s43.5 -96.666 43.5 -153.999c0 -52 -9.5 -100 -28.5 -144s-45.5 -82 -79.5 -114s-74 -57 -120 -75s-96.333 -27 -151 -27h-334zM344.001 604.999h-64v-550
h78c77.333 0 137 24.833 179 74.5s63 116.167 63 199.5c0 84 -21.5 151 -64.5 201s-106.833 75 -191.5 75zM367.001 709.999l-136 152h22l138 -64l138 64h22l-136 -152h-48z" />
    <glyph glyph-name="uni010F" unicode="&#x10f;" horiz-adv-x="583" 
d="M200 -10c-29.333 0 -56.8301 8.33105 -82.4971 24.998s-46.334 40.334 -62.001 71.001s-23.5 67 -23.5 109c0 55.333 10 103.333 30 144s47.667 72 83 94s76 33 122 33c32 0 59.667 -3 83 -9v179l-69 48v11l197 55h12v-705l70 -29v-16h-200l-8 50h-7
c-24.667 -21.333 -48.334 -36.666 -71.001 -45.999s-47.334 -14 -74.001 -14zM173.003 225.998c0 -53.333 11.333 -92.333 34 -117s48 -37 76 -37c12 0 23.167 1.66699 33.5 5s21.5 8.33301 33.5 15v290c-8.66699 10 -18.667 17.667 -30 23s-24 8 -38 8
c-19.333 0 -37.333 -5.33301 -54 -16s-30 -29.5 -40 -56.5s-15 -65.167 -15 -114.5zM547.003 552.998l16 186.998h99c2 -9.33301 2.83301 -19.166 2.5 -29.499s-4.83301 -22.166 -13.5 -35.499l-82 -122h-22z" />
    <glyph glyph-name="uni0110" unicode="&#x110;" horiz-adv-x="802" 
d="M44 0l0.000976562 15.999l85 41v259h-85v53h85v234l-85 41v16h341c79.333 0 146.666 -13 201.999 -39s97.5 -61.667 126.5 -107s43.5 -96.666 43.5 -153.999c0 -52 -9.5 -100 -28.5 -144s-45.5 -82 -79.5 -114s-74 -57 -120 -75s-96.333 -27 -151 -27h-334z
M431.001 315.999h-151v-261h78c77.333 0 137 24.833 179 74.5s63 116.167 63 199.5c0 84 -21.5 151 -64.5 201s-106.833 75 -191.5 75h-64v-236h151v-53z" />
    <glyph glyph-name="uni0111" unicode="&#x111;" horiz-adv-x="590" 
d="M202 -10c-30 0 -57.832 8.33105 -83.499 24.998s-46.167 40.334 -61.5 71.001s-23 67 -23 109c0 55.333 10 103.333 30 144s47.667 72 83 94s76 33 122 33c32 0 59.333 -3 82 -9v79h-124v50h124v50l-69 48v11l198 55h12v-164h70v-50h-70v-491l70 -29v-16h-201l-8 50h-7
c-24.667 -21.333 -48.334 -36.666 -71.001 -45.999s-47 -14 -73 -14zM175.001 225.998c0 -53.333 11.166 -92.333 33.499 -117s47.5 -37 75.5 -37c12 0 23.333 1.66699 34 5s21.667 8.33301 33 15v290c-8.66699 10 -18.667 17.667 -30 23s-23.666 8 -36.999 8
c-20 0 -38.167 -5.33301 -54.5 -16s-29.5 -29.5 -39.5 -56.5s-15 -65.167 -15 -114.5z" />
    <glyph glyph-name="uni0112" unicode="&#x112;" horiz-adv-x="681" 
d="M44 0v16l85 41v546l-85 41v16h545v-173h-16l-74 118h-219v-237h154l56 86h16v-225h-16l-56 84h-154v-258h243l78 149h16v-204h-573zM209 757v59h290v-59h-290z" />
    <glyph glyph-name="uni0113" unicode="&#x113;" horiz-adv-x="496" 
d="M260 -10c-68.667 0 -122.833 19.832 -162.5 59.499s-59.5 92.167 -59.5 157.5c0 50.667 11 95.5 33 134.5s51.667 69.5 89 91.5s79 33 125 33c54 0 96 -18 126 -54s45.333 -87 46 -153l-4 -5h-280v-5c0 -28 5.33301 -53.5 16 -76.5s27.5 -41.167 50.5 -54.5
s52.833 -20 89.5 -20c19.333 0 39.5 2.33301 60.5 7s42.833 12.667 65.5 24h3v-16c-16.667 -35.333 -42.167 -64.666 -76.5 -87.999s-74.833 -35 -121.5 -35zM262.001 420.999c-23.333 0 -42.5 -10.667 -57.5 -32s-24.5 -51.333 -28.5 -90h169
c-4.66699 46 -14.167 77.833 -28.5 95.5s-32.5 26.5 -54.5 26.5zM121.001 586.999v60h290v-60h-290z" />
    <glyph glyph-name="uni0114" unicode="&#x114;" horiz-adv-x="681" 
d="M44 0v16l85 41v546l-85 41v16h545v-173h-16l-74 118h-219v-237h154l56 86h16v-225h-16l-56 84h-154v-258h243l78 149h16v-204h-573zM354 710c-48 0 -83.667 13 -107 39s-40.666 63.667 -51.999 113h21c15.333 -31.333 34.166 -51.5 56.499 -60.5s49.5 -13.5 81.5 -13.5
s59 4.33301 81 13s41 29 57 61h21c-12 -49.333 -30.5 -87 -55.5 -113s-59.5 -39 -103.5 -39z" />
    <glyph glyph-name="uni0115" unicode="&#x115;" horiz-adv-x="496" 
d="M260 -10c-68.667 0 -122.833 19.832 -162.5 59.499s-59.5 92.167 -59.5 157.5c0 50.667 11 95.5 33 134.5s51.667 69.5 89 91.5s79 33 125 33c54 0 96 -18 126 -54s45.333 -87 46 -153l-4 -5h-280v-5c0 -28 5.33301 -53.5 16 -76.5s27.5 -41.167 50.5 -54.5
s52.833 -20 89.5 -20c19.333 0 39.5 2.33301 60.5 7s42.833 12.667 65.5 24h3v-16c-16.667 -35.333 -42.167 -64.666 -76.5 -87.999s-74.833 -35 -121.5 -35zM262.001 420.999c-23.333 0 -42.5 -10.667 -57.5 -32s-24.5 -51.333 -28.5 -90h169
c-4.66699 46 -14.167 77.833 -28.5 95.5s-32.5 26.5 -54.5 26.5zM266.001 539.999c-48 0 -83.3311 13.667 -105.998 41s-40.334 69.333 -53.001 126h21c12 -26 24.833 -45.333 38.5 -58s28.667 -21 45 -25s34.5 -6 54.5 -6s38.167 2 54.5 6s31.333 12.333 45 25
s26.5 32 38.5 58h21c-12.667 -56.667 -31.334 -98.667 -56.001 -126s-59 -41 -103 -41z" />
    <glyph glyph-name="uni0116" unicode="&#x116;" horiz-adv-x="681" 
d="M44 0v16l85 41v546l-85 41v16h545v-173h-16l-74 118h-219v-237h154l56 86h16v-225h-16l-56 84h-154v-258h243l78 149h16v-204h-573zM354 721c-21.333 0 -38.833 6.83301 -52.5 20.5s-20.5 31.167 -20.5 52.5c0 20.667 6.83301 38 20.5 52s31.167 21 52.5 21
s38.833 -7 52.5 -21s20.5 -31.333 20.5 -52c0 -21.333 -6.83301 -38.833 -20.5 -52.5s-31.167 -20.5 -52.5 -20.5z" />
    <glyph glyph-name="uni0117" unicode="&#x117;" horiz-adv-x="496" 
d="M260 -10c-68.667 0 -122.833 19.832 -162.5 59.499s-59.5 92.167 -59.5 157.5c0 50.667 11 95.5 33 134.5s51.667 69.5 89 91.5s79 33 125 33c54 0 96 -18 126 -54s45.333 -87 46 -153l-4 -5h-280v-5c0 -28 5.33301 -53.5 16 -76.5s27.5 -41.167 50.5 -54.5
s52.833 -20 89.5 -20c19.333 0 39.5 2.33301 60.5 7s42.833 12.667 65.5 24h3v-16c-16.667 -35.333 -42.167 -64.666 -76.5 -87.999s-74.833 -35 -121.5 -35zM262.001 420.999c-23.333 0 -42.5 -10.667 -57.5 -32s-24.5 -51.333 -28.5 -90h169
c-4.66699 46 -14.167 77.833 -28.5 95.5s-32.5 26.5 -54.5 26.5zM265.001 544.999c-21.333 0 -38.833 6.83301 -52.5 20.5s-20.5 31.167 -20.5 52.5s6.83301 38.833 20.5 52.5s31.167 20.5 52.5 20.5s38.833 -6.83301 52.5 -20.5s20.5 -31.167 20.5 -52.5
s-6.83301 -38.833 -20.5 -52.5s-31.167 -20.5 -52.5 -20.5z" />
    <glyph glyph-name="uni0118" unicode="&#x118;" horiz-adv-x="681" 
d="M44 0l0.000976562 15.999l85 41v546l-85 41v16h545v-173h-16l-74 118h-219v-237h154l56 86h16v-225h-16l-56 84h-154v-258h243l78 149h16v-204h-70c-26 -45.333 -39 -87.666 -39 -126.999c0 -40.667 19 -61 57 -61c8 0 16.167 1.33301 24.5 4s16.166 6.66699 23.499 12h3
v-19c-16.667 -32.667 -46.334 -49 -89.001 -49c-30.667 0 -55.167 8.33301 -73.5 25s-27.5 38.334 -27.5 65.001c0 23.333 7.83301 47.166 23.5 71.499s36.834 50.5 63.501 78.5h-469z" />
    <glyph glyph-name="uni0119" unicode="&#x119;" horiz-adv-x="496" 
d="M260 -10c-68.667 0 -122.834 19.833 -162.501 59.5s-59.5 92.167 -59.5 157.5c0 50.667 11 95.5 33 134.5s51.667 69.5 89 91.5s79 33 125 33c54 0 96 -18 126 -54s45.333 -87 46 -153l-4 -5h-280v-5c0 -28 5.33301 -53.5 16 -76.5s27.5 -41.167 50.5 -54.5
s52.833 -20 89.5 -20c19.333 0 39.5 2.33301 60.5 7s42.833 12.667 65.5 24h3v-16c-10 -19.333 -22 -36.333 -36 -51c-20 -30 -37.5 -60.833 -52.5 -92.5s-22.5 -63.834 -22.5 -96.501c0 -40.667 19 -61 57 -61c8 0 16.333 1.33301 25 4s16.334 6.66699 23.001 12h3v-19
c-16.667 -32.667 -46.334 -49 -89.001 -49c-30.667 0 -55.167 8.33301 -73.5 25s-27.5 38.334 -27.5 65.001c0 26 9.33301 52.5 28 79.5s43.334 55.833 74.001 86.5c-32 -17.333 -67.667 -26 -107 -26zM262 421c-23.333 0 -42.5 -10.667 -57.5 -32s-24.5 -51.333 -28.5 -90
h169c-4.66699 46 -14.167 77.833 -28.5 95.5s-32.5 26.5 -54.5 26.5z" />
    <glyph glyph-name="uni011A" unicode="&#x11a;" horiz-adv-x="681" 
d="M44 0v16l85 41v546l-85 41v16h545v-173h-16l-74 118h-219v-237h154l56 86h16v-225h-16l-56 84h-154v-258h243l78 149h16v-204h-573zM330 710l-136 152h22l138 -64l138 64h22l-136 -152h-48z" />
    <glyph glyph-name="uni011B" unicode="&#x11b;" horiz-adv-x="496" 
d="M260 -10c-68.667 0 -122.833 19.832 -162.5 59.499s-59.5 92.167 -59.5 157.5c0 50.667 11 95.5 33 134.5s51.667 69.5 89 91.5s79 33 125 33c54 0 96 -18 126 -54s45.333 -87 46 -153l-4 -5h-280v-5c0 -28 5.33301 -53.5 16 -76.5s27.5 -41.167 50.5 -54.5
s52.833 -20 89.5 -20c19.333 0 39.5 2.33301 60.5 7s42.833 12.667 65.5 24h3v-16c-16.667 -35.333 -42.167 -64.666 -76.5 -87.999s-74.833 -35 -121.5 -35zM262.001 420.999c-23.333 0 -42.5 -10.667 -57.5 -32s-24.5 -51.333 -28.5 -90h169
c-4.66699 46 -14.167 77.833 -28.5 95.5s-32.5 26.5 -54.5 26.5zM242.001 529.999l-136 177h22l138 -83l138 83h22l-136 -177h-48z" />
    <glyph glyph-name="uni011C" unicode="&#x11c;" horiz-adv-x="756" 
d="M395 -10c-48 0 -92.8271 8.16602 -134.494 24.499s-78.334 39.166 -110.001 68.499s-56.334 63.833 -74.001 103.5s-26.5 82.834 -26.5 129.501c0 51.333 10 98.5 30 141.5s47.667 80.5 83 112.5s75.666 56.667 120.999 74s93 26 143 26c35.333 0 65.5 -2 90.5 -6
s47.333 -9.66699 67 -17s39.167 -15.666 58.5 -24.999l11 -176h-18l-96 145c-18 11.333 -35.333 19.166 -52 23.499s-35.667 6.5 -57 6.5c-42 0 -80 -12 -114 -36s-61 -57.5 -81 -100.5s-30 -93.167 -30 -150.5c0 -60 9.66699 -111.5 29 -154.5s45.5 -76.167 78.5 -99.5
s69.833 -35 110.5 -35c11.333 0 23.666 0.5 36.999 1.5s26.666 2.83301 39.999 5.5v185l-89 47v16h314v-16l-75 -48v-162c-20.667 -17.333 -45.5 -32.166 -74.5 -44.499s-59.333 -22 -91 -29s-61.834 -10.5 -90.501 -10.5zM244.006 709.999l136 152h48l136 -152h-22l-138 64
l-138 -64h-22z" />
    <glyph glyph-name="uni011D" unicode="&#x11d;" horiz-adv-x="541" 
d="M257 152c-31.333 0 -60.3369 5.33398 -87.0039 16.001c-14.667 -9.33301 -22 -22.333 -22 -39c0 -32 25.667 -48 77 -48h110c52.667 0 91.334 -11.5 116.001 -34.5s37 -56.833 37 -101.5c0 -30.667 -10.667 -60.167 -32 -88.5s-51.5 -51.5 -90.5 -69.5
s-85.5 -27 -139.5 -27c-64.667 0 -111 10.167 -139 30.5s-42 45.833 -42 76.5c0 12 1.5 22.833 4.5 32.5s7.5 19.5 13.5 29.5l63 40v5c-51.333 16.667 -77 49.667 -77 99c0 30.667 9.33301 55.667 28 75l57 33v6c-21.333 14 -38.166 31.5 -50.499 52.5
s-18.5 44.167 -18.5 69.5c0 30 8.5 56.667 25.5 80s39.833 41.833 68.5 55.5s61.334 20.5 98.001 20.5c19.333 0 38.333 -2 57 -6s33.334 -8.66699 44.001 -14l154 10v-60l-100 8l-4 -4c12 -10.667 21.667 -24 29 -40s11 -32.667 11 -50c0 -30 -8.33301 -56.833 -25 -80.5
s-39.5 -42.334 -68.5 -56.001s-61.5 -20.5 -97.5 -20.5zM263.996 195.001c21.333 0 37.5 10.168 48.5 30.501s16.5 47.166 16.5 80.499c0 38 -7 67.167 -21 87.5s-32 30.5 -54 30.5c-22.667 0 -39.667 -10.333 -51 -31s-17 -47.667 -17 -81c0 -38 7 -67 21 -87
s33 -30 57 -30zM129.996 -113.998c0 -26 8.99805 -47.501 26.998 -64.501s44.333 -25.5 79 -25.5c42.667 0 76.334 9.83301 101.001 29.5s37 42.834 37 69.501c0 25.333 -6.66699 43 -20 53s-36.666 15 -69.999 15h-86c-10 0 -19.667 0.333008 -29 1
c-26 -16.667 -39 -42.667 -39 -78zM97.9941 530.001l136 177h48l136 -177h-22l-138 83l-138 -83h-22z" />
    <glyph glyph-name="uni011E" unicode="&#x11e;" horiz-adv-x="756" 
d="M395 -10c-48 0 -92.8271 8.16602 -134.494 24.499s-78.334 39.166 -110.001 68.499s-56.334 63.833 -74.001 103.5s-26.5 82.834 -26.5 129.501c0 51.333 10 98.5 30 141.5s47.667 80.5 83 112.5s75.666 56.667 120.999 74s93 26 143 26c35.333 0 65.5 -2 90.5 -6
s47.333 -9.66699 67 -17s39.167 -15.666 58.5 -24.999l11 -176h-18l-96 145c-18 11.333 -35.333 19.166 -52 23.499s-35.667 6.5 -57 6.5c-42 0 -80 -12 -114 -36s-61 -57.5 -81 -100.5s-30 -93.167 -30 -150.5c0 -60 9.66699 -111.5 29 -154.5s45.5 -76.167 78.5 -99.5
s69.833 -35 110.5 -35c11.333 0 23.666 0.5 36.999 1.5s26.666 2.83301 39.999 5.5v185l-89 47v16h314v-16l-75 -48v-162c-20.667 -17.333 -45.5 -32.166 -74.5 -44.499s-59.333 -22 -91 -29s-61.834 -10.5 -90.501 -10.5zM404.006 709.999c-48 0 -83.667 13 -107 39
s-40.666 63.667 -51.999 113h21c15.333 -31.333 34.166 -51.5 56.499 -60.5s49.5 -13.5 81.5 -13.5s59 4.33301 81 13s41 29 57 61h21c-12 -49.333 -30.5 -87 -55.5 -113s-59.5 -39 -103.5 -39z" />
    <glyph glyph-name="uni011F" unicode="&#x11f;" horiz-adv-x="541" 
d="M257 152c-31.333 0 -60.3369 5.33398 -87.0039 16.001c-14.667 -9.33301 -22 -22.333 -22 -39c0 -32 25.667 -48 77 -48h110c52.667 0 91.334 -11.5 116.001 -34.5s37 -56.833 37 -101.5c0 -30.667 -10.667 -60.167 -32 -88.5s-51.5 -51.5 -90.5 -69.5
s-85.5 -27 -139.5 -27c-64.667 0 -111 10.167 -139 30.5s-42 45.833 -42 76.5c0 12 1.5 22.833 4.5 32.5s7.5 19.5 13.5 29.5l63 40v5c-51.333 16.667 -77 49.667 -77 99c0 30.667 9.33301 55.667 28 75l57 33v6c-21.333 14 -38.166 31.5 -50.499 52.5
s-18.5 44.167 -18.5 69.5c0 30 8.5 56.667 25.5 80s39.833 41.833 68.5 55.5s61.334 20.5 98.001 20.5c19.333 0 38.333 -2 57 -6s33.334 -8.66699 44.001 -14l154 10v-60l-100 8l-4 -4c12 -10.667 21.667 -24 29 -40s11 -32.667 11 -50c0 -30 -8.33301 -56.833 -25 -80.5
s-39.5 -42.334 -68.5 -56.001s-61.5 -20.5 -97.5 -20.5zM263.996 195.001c21.333 0 37.5 10.168 48.5 30.501s16.5 47.166 16.5 80.499c0 38 -7 67.167 -21 87.5s-32 30.5 -54 30.5c-22.667 0 -39.667 -10.333 -51 -31s-17 -47.667 -17 -81c0 -38 7 -67 21 -87
s33 -30 57 -30zM129.996 -113.998c0 -26 8.99805 -47.501 26.998 -64.501s44.333 -25.5 79 -25.5c42.667 0 76.334 9.83301 101.001 29.5s37 42.834 37 69.501c0 25.333 -6.66699 43 -20 53s-36.666 15 -69.999 15h-86c-10 0 -19.667 0.333008 -29 1
c-26 -16.667 -39 -42.667 -39 -78zM257.994 540.001c-48 0 -83.3311 13.667 -105.998 41s-40.334 69.333 -53.001 126h21c12 -26 24.833 -45.333 38.5 -58s28.667 -21 45 -25s34.5 -6 54.5 -6s38.167 2 54.5 6s31.333 12.333 45 25s26.5 32 38.5 58h21
c-12.667 -56.667 -31.334 -98.667 -56.001 -126s-59 -41 -103 -41z" />
    <glyph glyph-name="uni0120" unicode="&#x120;" horiz-adv-x="756" 
d="M395 -10c-48 0 -92.8271 8.16602 -134.494 24.499s-78.334 39.166 -110.001 68.499s-56.334 63.833 -74.001 103.5s-26.5 82.834 -26.5 129.501c0 51.333 10 98.5 30 141.5s47.667 80.5 83 112.5s75.666 56.667 120.999 74s93 26 143 26c35.333 0 65.5 -2 90.5 -6
s47.333 -9.66699 67 -17s39.167 -15.666 58.5 -24.999l11 -176h-18l-96 145c-18 11.333 -35.333 19.166 -52 23.499s-35.667 6.5 -57 6.5c-42 0 -80 -12 -114 -36s-61 -57.5 -81 -100.5s-30 -93.167 -30 -150.5c0 -60 9.66699 -111.5 29 -154.5s45.5 -76.167 78.5 -99.5
s69.833 -35 110.5 -35c11.333 0 23.666 0.5 36.999 1.5s26.666 2.83301 39.999 5.5v185l-89 47v16h314v-16l-75 -48v-162c-20.667 -17.333 -45.5 -32.166 -74.5 -44.499s-59.333 -22 -91 -29s-61.834 -10.5 -90.501 -10.5zM404.006 720.999
c-21.333 0 -38.833 6.83301 -52.5 20.5s-20.5 31.167 -20.5 52.5c0 20.667 6.83301 38 20.5 52s31.167 21 52.5 21s38.833 -7 52.5 -21s20.5 -31.333 20.5 -52c0 -21.333 -6.83301 -38.833 -20.5 -52.5s-31.167 -20.5 -52.5 -20.5z" />
    <glyph glyph-name="uni0121" unicode="&#x121;" horiz-adv-x="541" 
d="M257 152c-31.333 0 -60.3369 5.33398 -87.0039 16.001c-14.667 -9.33301 -22 -22.333 -22 -39c0 -32 25.667 -48 77 -48h110c52.667 0 91.334 -11.5 116.001 -34.5s37 -56.833 37 -101.5c0 -30.667 -10.667 -60.167 -32 -88.5s-51.5 -51.5 -90.5 -69.5
s-85.5 -27 -139.5 -27c-64.667 0 -111 10.167 -139 30.5s-42 45.833 -42 76.5c0 12 1.5 22.833 4.5 32.5s7.5 19.5 13.5 29.5l63 40v5c-51.333 16.667 -77 49.667 -77 99c0 30.667 9.33301 55.667 28 75l57 33v6c-21.333 14 -38.166 31.5 -50.499 52.5
s-18.5 44.167 -18.5 69.5c0 30 8.5 56.667 25.5 80s39.833 41.833 68.5 55.5s61.334 20.5 98.001 20.5c19.333 0 38.333 -2 57 -6s33.334 -8.66699 44.001 -14l154 10v-60l-100 8l-4 -4c12 -10.667 21.667 -24 29 -40s11 -32.667 11 -50c0 -30 -8.33301 -56.833 -25 -80.5
s-39.5 -42.334 -68.5 -56.001s-61.5 -20.5 -97.5 -20.5zM263.996 195.001c21.333 0 37.5 10.168 48.5 30.501s16.5 47.166 16.5 80.499c0 38 -7 67.167 -21 87.5s-32 30.5 -54 30.5c-22.667 0 -39.667 -10.333 -51 -31s-17 -47.667 -17 -81c0 -38 7 -67 21 -87
s33 -30 57 -30zM129.996 -113.998c0 -26 8.99805 -47.501 26.998 -64.501s44.333 -25.5 79 -25.5c42.667 0 76.334 9.83301 101.001 29.5s37 42.834 37 69.501c0 25.333 -6.66699 43 -20 53s-36.666 15 -69.999 15h-86c-10 0 -19.667 0.333008 -29 1
c-26 -16.667 -39 -42.667 -39 -78zM257.994 545.001c-21.333 0 -38.833 6.83301 -52.5 20.5s-20.5 31.167 -20.5 52.5s6.83301 38.833 20.5 52.5s31.167 20.5 52.5 20.5s38.833 -6.83301 52.5 -20.5s20.5 -31.167 20.5 -52.5s-6.83301 -38.833 -20.5 -52.5
s-31.167 -20.5 -52.5 -20.5z" />
    <glyph glyph-name="uni0122" unicode="&#x122;" horiz-adv-x="756" 
d="M395 -10c-48 0 -92.8271 8.16602 -134.494 24.499s-78.334 39.166 -110.001 68.499s-56.334 63.833 -74.001 103.5s-26.5 82.834 -26.5 129.501c0 51.333 10 98.5 30 141.5s47.667 80.5 83 112.5s75.666 56.667 120.999 74s93 26 143 26c35.333 0 65.5 -2 90.5 -6
s47.333 -9.66699 67 -17s39.167 -15.666 58.5 -24.999l11 -176h-18l-96 145c-18 11.333 -35.333 19.166 -52 23.499s-35.667 6.5 -57 6.5c-42 0 -80 -12 -114 -36s-61 -57.5 -81 -100.5s-30 -93.167 -30 -150.5c0 -60 9.66699 -111.5 29 -154.5s45.5 -76.167 78.5 -99.5
s69.833 -35 110.5 -35c11.333 0 23.666 0.5 36.999 1.5s26.666 2.83301 39.999 5.5v185l-89 47v16h314v-16l-75 -48v-162c-20.667 -17.333 -45.5 -32.166 -74.5 -44.499s-59.333 -22 -91 -29s-61.834 -10.5 -90.501 -10.5zM431.006 709.999
c-36 0 -63.168 6.99805 -81.501 20.998s-27.5 33.667 -27.5 59c0 26.667 10.5 47.167 31.5 61.5s47.833 21.5 80.5 21.5c5.33301 0 11.5 -0.166992 18.5 -0.5s12.833 -1.16602 17.5 -2.49902v-19c-4.66699 0.666992 -9.66699 1.33398 -15 2.00098s-9.66602 1 -12.999 1
c-33.333 0 -50 -11 -50 -33c0 -14.667 6.5 -24.5 19.5 -29.5s32.833 -7.5 59.5 -7.5v-53c0 -6 -2.83301 -11 -8.5 -15s-16.167 -6 -31.5 -6z" />
    <glyph glyph-name="uni0123" unicode="&#x123;" horiz-adv-x="541" 
d="M257 152c-31.333 0 -60.3369 5.33398 -87.0039 16.001c-14.667 -9.33301 -22 -22.333 -22 -39c0 -32 25.667 -48 77 -48h110c52.667 0 91.334 -11.5 116.001 -34.5s37 -56.833 37 -101.5c0 -30.667 -10.667 -60.167 -32 -88.5s-51.5 -51.5 -90.5 -69.5
s-85.5 -27 -139.5 -27c-64.667 0 -111 10.167 -139 30.5s-42 45.833 -42 76.5c0 12 1.5 22.833 4.5 32.5s7.5 19.5 13.5 29.5l63 40v5c-51.333 16.667 -77 49.667 -77 99c0 30.667 9.33301 55.667 28 75l57 33v6c-21.333 14 -38.166 31.5 -50.499 52.5
s-18.5 44.167 -18.5 69.5c0 30 8.5 56.667 25.5 80s39.833 41.833 68.5 55.5s61.334 20.5 98.001 20.5c19.333 0 38.333 -2 57 -6s33.334 -8.66699 44.001 -14l154 10v-60l-100 8l-4 -4c12 -10.667 21.667 -24 29 -40s11 -32.667 11 -50c0 -30 -8.33301 -56.833 -25 -80.5
s-39.5 -42.334 -68.5 -56.001s-61.5 -20.5 -97.5 -20.5zM263.996 195.001c21.333 0 37.5 10.168 48.5 30.501s16.5 47.166 16.5 80.499c0 38 -7 67.167 -21 87.5s-32 30.5 -54 30.5c-22.667 0 -39.667 -10.333 -51 -31s-17 -47.667 -17 -81c0 -38 7 -67 21 -87
s33 -30 57 -30zM129.996 -113.998c0 -26 8.99805 -47.501 26.998 -64.501s44.333 -25.5 79 -25.5c42.667 0 76.334 9.83301 101.001 29.5s37 42.834 37 69.501c0 25.333 -6.66699 43 -20 53s-36.666 15 -69.999 15h-86c-10 0 -19.667 0.333008 -29 1
c-26 -16.667 -39 -42.667 -39 -78zM284.994 537.001c-36 0 -63.168 7.16895 -81.501 21.502s-27.5 33.833 -27.5 58.5c0 27.333 10.5 48 31.5 62s47.833 21 80.5 21c5.33301 0 11.5 -0.333008 18.5 -1s12.833 -1.33398 17.5 -2.00098v-19
c-4.66699 1.33301 -9.66699 2.16602 -15 2.49902s-9.66602 0.5 -12.999 0.5c-33.333 0 -50 -11.333 -50 -34c0 -14 6.5 -23.667 19.5 -29s32.833 -8 59.5 -8v-52c0 -6 -2.83301 -11 -8.5 -15s-16.167 -6 -31.5 -6z" />
    <glyph glyph-name="uni0124" unicode="&#x124;" horiz-adv-x="836" 
d="M44 0v16l85 41v546l-85 41v16h314v-16l-78 -41v-236h277v236l-80 41v16h315v-16l-84 -41v-546l84 -41v-16h-315v16l80 41v255h-277v-255l78 -41v-16h-314zM258 710l136 152h48l136 -152h-22l-138 64l-138 -64h-22z" />
    <glyph glyph-name="uni0125" unicode="&#x125;" horiz-adv-x="618" 
d="M31 0l-0.000976562 16.0029l67 32v588l-64 47v12l192 55h12v-358h4c24 23.333 47.333 41.5 70 54.5s49.334 19.5 80.001 19.5c40.667 0 73.834 -10.333 99.501 -31s38.5 -51.334 38.5 -92.001v-295l67 -32v-16h-258v16l50 31v255c0 23.333 -6.83301 41.166 -20.5 53.499
s-30.834 18.5 -51.501 18.5c-12.667 0 -26.5 -2.33301 -41.5 -7s-27.5 -11.334 -37.5 -20.001v-300l51 -31v-16h-258zM153.999 765.003l136 152h48l136 -152h-22l-138 64l-138 -64h-22z" />
    <glyph glyph-name="uni0126" unicode="&#x126;" horiz-adv-x="836" 
d="M44 0v16l85 41v412h-85v53h85v81l-85 41v16h314v-16l-78 -41v-81h277v81l-80 41v16h315v-16l-84 -41v-81h84v-53h-84v-412l84 -41v-16h-315v16l80 41v255h-277v-255l78 -41v-16h-314zM280 367h277v102h-277v-102z" />
    <glyph glyph-name="uni0127" unicode="&#x127;" horiz-adv-x="618" 
d="M238 47l50.999 -30.9971v-16h-258v16l67 32v478h-65v50h65v54l-64 46v13l192 61h12v-174h127v-50h-127v-134h4c24 23.333 47.333 41.5 70 54.5s49.334 19.5 80.001 19.5c40.667 0 73.834 -10.333 99.501 -31s38.5 -51.334 38.5 -92.001v-295l67 -32v-16h-258v16l50 31
v255c0 23.333 -6.83301 41.166 -20.5 53.499s-30.834 18.5 -51.501 18.5c-12.667 0 -26.5 -2.33301 -41.5 -7s-27.5 -11.334 -37.5 -20.001v-300z" />
    <glyph glyph-name="uni0128" unicode="&#x128;" horiz-adv-x="413" 
d="M46 0v16l85 41v546l-85 41v16h321v-16l-85 -41v-546l85 -41v-16h-321zM42 722c16.667 50.667 33 84.334 49 101.001s34.333 25 55 25c19.333 0 37.5 -4.33301 54.5 -13s33 -17.5 48 -26.5s29.833 -13.5 44.5 -13.5c10.667 0 20.5 3.16699 29.5 9.5
s18.167 20.833 27.5 43.5h22c-16 -50.667 -32.167 -84.334 -48.5 -101.001s-34.833 -25 -55.5 -25c-19.333 0 -37.5 4.33301 -54.5 13s-33 17.5 -48 26.5s-29.833 13.5 -44.5 13.5c-10.667 0 -20.5 -3.16699 -29.5 -9.5s-18.167 -20.833 -27.5 -43.5h-22z" />
    <glyph glyph-name="uni0129" unicode="&#x129;" horiz-adv-x="333" 
d="M33 0v16l67 32v304l-64 47v12l193 55h12v-418l59 -32v-16h-267zM2 550c12.667 40 24.5 69.667 35.5 89s22 32 33 38s23.833 9 38.5 9c18.667 0 36.167 -5.16699 52.5 -15.5l47 -31c15 -10.333 28.833 -15.5 41.5 -15.5c12 0 22.333 3.83301 31 11.5
s18.334 24.5 29.001 50.5h22c-12.667 -40 -24.5 -69.667 -35.5 -89s-22 -32 -33 -38s-23.833 -9 -38.5 -9c-18.667 0 -36.167 5.16699 -52.5 15.5l-47 31c-15 10.333 -28.833 15.5 -41.5 15.5c-12 0 -22.333 -3.83301 -31 -11.5s-18.334 -24.5 -29.001 -50.5h-22z" />
    <glyph glyph-name="uni012A" unicode="&#x12a;" horiz-adv-x="413" 
d="M46 0v16l85 41v546l-85 41v16h321v-16l-85 -41v-546l85 -41v-16h-321zM62 757v59h290v-59h-290z" />
    <glyph glyph-name="uni012B" unicode="&#x12b;" horiz-adv-x="333" 
d="M33 0v16l67 32v304l-64 47v12l193 55h12v-418l59 -32v-16h-267zM22 587v60h290v-60h-290z" />
    <glyph glyph-name="uni012C" unicode="&#x12c;" horiz-adv-x="413" 
d="M46 0v16l85 41v546l-85 41v16h321v-16l-85 -41v-546l85 -41v-16h-321zM207 710c-48 0 -83.667 13 -107 39s-40.666 63.667 -51.999 113h21c15.333 -31.333 34.166 -51.5 56.499 -60.5s49.5 -13.5 81.5 -13.5s59 4.33301 81 13s41 29 57 61h21
c-12 -49.333 -30.5 -87 -55.5 -113s-59.5 -39 -103.5 -39z" />
    <glyph glyph-name="uni012D" unicode="&#x12d;" horiz-adv-x="333" 
d="M33 0v16l67 32v304l-64 47v12l193 55h12v-418l59 -32v-16h-267zM167 540c-48 0 -83.3311 13.667 -105.998 41s-40.334 69.333 -53.001 126h21c12 -26 24.833 -45.333 38.5 -58s28.667 -21 45 -25s34.5 -6 54.5 -6s38.167 2 54.5 6s31.333 12.333 45 25s26.5 32 38.5 58
h21c-12.667 -56.667 -31.334 -98.667 -56.001 -126s-59 -41 -103 -41z" />
    <glyph glyph-name="uni012E" unicode="&#x12e;" horiz-adv-x="413" 
d="M46 0v16l85 41v546l-85 41v16h321v-16l-85 -41v-546l85 -41v-16h-134c-26.667 -46 -40 -88.333 -40 -127c0 -40.667 19.333 -61 58 -61c8 0 16.167 1.33301 24.5 4s16.166 6.66699 23.499 12h3v-19c-18 -32.667 -48 -49 -90 -49c-30 0 -54.167 8.33301 -72.5 25
s-27.5 38.334 -27.5 65.001c0 23.333 7.83301 47.166 23.5 71.499s36.834 50.5 63.501 78.5h-153z" />
    <glyph glyph-name="uni012F" unicode="&#x12f;" horiz-adv-x="333" 
d="M168 565c-21.333 0 -38.833 6.83301 -52.5 20.5s-20.5 30.834 -20.5 51.501c0 21.333 6.83301 38.833 20.5 52.5s31.167 20.5 52.5 20.5s38.833 -6.83301 52.5 -20.5s20.5 -31.167 20.5 -52.5c0 -20.667 -6.83301 -37.834 -20.5 -51.501s-31.167 -20.5 -52.5 -20.5zM33 0
l0.00195312 16l67 32v304l-64 47v12l193 55h12v-418l59 -32v-16h-100c-13.333 -22.667 -23.333 -44.5 -30 -65.5s-10 -41.5 -10 -61.5c0 -40.667 19.333 -61 58 -61c7.33301 0 15.166 1.33301 23.499 4s16.166 6.66699 23.499 12h4v-19c-18 -32.667 -48 -49 -90 -49
c-30 0 -54.167 8.33301 -72.5 25s-27.5 38.334 -27.5 65.001c0 23.333 7.66699 47.166 23 71.499s36.333 50.5 63 78.5h-132z" />
    <glyph glyph-name="uni0130" unicode="&#x130;" horiz-adv-x="413" 
d="M46 0v16l85 41v546l-85 41v16h321v-16l-85 -41v-546l85 -41v-16h-321zM207 721c-21.333 0 -38.833 6.83301 -52.5 20.5s-20.5 31.167 -20.5 52.5c0 20.667 6.83301 38 20.5 52s31.167 21 52.5 21s38.833 -7 52.5 -21s20.5 -31.333 20.5 -52
c0 -21.333 -6.83301 -38.833 -20.5 -52.5s-31.167 -20.5 -52.5 -20.5z" />
    <glyph glyph-name="uni0131" unicode="&#x131;" horiz-adv-x="333" 
d="M33 0v16l67 32v304l-64 47v12l193 55h12v-418l59 -32v-16h-267z" />
    <glyph glyph-name="uni0132" unicode="&#x132;" horiz-adv-x="845" 
d="M46 0v16l85 41v546l-85 41v16h321v-16l-85 -41v-546l85 -41v-16h-321zM471 -173c-9.33301 0 -17.001 2.16602 -23.001 6.49902s-9 11.833 -9 22.5c0 6 1.16699 14.833 3.5 26.5l9.5 47.5h9c9.33301 -2.66699 17 -4.66699 23 -6s12.667 -2 20 -2
c12 0 22.5 2.83301 31.5 8.5s15.833 17.667 20.5 36s7 46.166 7 83.499v553l-85 41v16h321v-16l-85 -41v-358c0 -51.333 -6.16699 -98.666 -18.5 -141.999s-27.5 -81.333 -45.5 -114s-35.667 -58.667 -53 -78c-23.333 -27.333 -44.666 -48.166 -63.999 -62.499
s-40 -21.5 -62 -21.5z" />
    <glyph glyph-name="uni0133" unicode="&#x133;" horiz-adv-x="663" 
d="M168 565c-21.333 0 -38.833 6.83301 -52.5 20.5s-20.5 30.834 -20.5 51.501c0 21.333 6.83301 38.833 20.5 52.5s31.167 20.5 52.5 20.5s38.833 -6.83301 52.5 -20.5s20.5 -31.167 20.5 -52.5c0 -20.667 -6.83301 -37.834 -20.5 -51.501s-31.167 -20.5 -52.5 -20.5zM33 0
v16l67 32v304l-64 47v12l193 55h12v-418l59 -32v-16h-267zM499 565c-21.333 0 -38.833 6.83301 -52.5 20.5s-20.5 30.834 -20.5 51.501c0 21.333 6.83301 38.833 20.5 52.5s31.167 20.5 52.5 20.5s38.833 -6.83301 52.5 -20.5s20.5 -31.167 20.5 -52.5
c0 -20.667 -6.83301 -37.834 -20.5 -51.501s-31.167 -20.5 -52.5 -20.5zM368 -230v17.9961c18 14.667 31.5 28.834 40.5 42.501s15 29.334 18 47.001s4.5 39.834 4.5 66.501v408l-63 47v12l192 55h12v-442c0 -40 -5.83301 -74.667 -17.5 -104s-32.167 -55.666 -61.5 -78.999
s-71 -47 -125 -71z" />
    <glyph glyph-name="uni0134" unicode="&#x134;" horiz-adv-x="432" 
d="M58 -173c-9.33301 0 -17.001 2.16602 -23.001 6.49902s-9 11.833 -9 22.5c0 6 1.16699 14.833 3.5 26.5l9.5 47.5h9c9.33301 -2.66699 17 -4.66699 23 -6s12.667 -2 20 -2c12 0 22.5 2.83301 31.5 8.5s15.833 17.667 20.5 36s7 46.166 7 83.499v553l-85 41v16h321v-16
l-85 -41v-358c0 -51.333 -6.16699 -98.666 -18.5 -141.999s-27.5 -81.333 -45.5 -114s-35.667 -58.667 -53 -78c-23.333 -27.333 -44.666 -48.166 -63.999 -62.499s-40 -21.5 -62 -21.5zM64.999 709.999l136 152h48l136 -152h-22l-138 64l-138 -64h-22z" />
    <glyph glyph-name="uni0135" unicode="&#x135;" horiz-adv-x="330" 
d="M239 24c0 -40 -5.83301 -74.6709 -17.5 -104.004s-32.167 -55.666 -61.5 -78.999s-71 -47 -125 -71v18c18 14.667 31.5 28.834 40.5 42.501s15 29.334 18 47.001s4.5 39.834 4.5 66.501v408l-63 47v12l192 55h12v-442zM-2 529.996l136 177h48l136 -177h-22l-138 83
l-138 -83h-22z" />
    <glyph glyph-name="uni0136" unicode="&#x136;" horiz-adv-x="774" 
d="M44 0v16l85 41v546l-85 41v16h321v-16l-85 -41v-546l85 -41v-16h-321zM280 333l274 274l-74 37v16h236v-16l-66 -28l-232 -223l278 -348l70 -29v-16h-222zM389 -239c-5.33301 0 -11.499 0.333008 -18.499 1s-13.167 1.66699 -18.5 3v18l16 -2
c5.33301 -0.666992 9.66602 -1 12.999 -1c33.333 0 50 11.333 50 34c0 14 -6.5 23.667 -19.5 29s-33.167 8 -60.5 8v52c0 6 3 11 9 15s16.667 6 32 6c36 0 63.167 -7 81.5 -21s27.5 -33.667 27.5 -59c0 -26.667 -10.5 -47.167 -31.5 -61.5s-47.833 -21.5 -80.5 -21.5z" />
    <glyph glyph-name="uni0137" unicode="&#x137;" horiz-adv-x="603" 
d="M31 0v16l67 32v588l-64 47v12l192 55h12v-489l150 137v6l-49 36v16h212v-16l-64 -35l-136 -107l183 -248l64 -34v-16h-195l-31 52l-134 187v-192l65 -31v-16h-272zM303 -239c-5.33301 0 -11.499 0.333008 -18.499 1s-13.167 1.66699 -18.5 3v18l16 -2
c5.33301 -0.666992 9.66602 -1 12.999 -1c33.333 0 50 11.333 50 34c0 14 -6.5 23.667 -19.5 29s-33.167 8 -60.5 8v52c0 6 3 11 9 15s16.667 6 32 6c36 0 63.167 -7 81.5 -21s27.5 -33.667 27.5 -59c0 -26.667 -10.5 -47.167 -31.5 -61.5s-47.833 -21.5 -80.5 -21.5z" />
    <glyph glyph-name="uni0138" unicode="&#x138;" horiz-adv-x="603" 
d="M31 0v16l67 32v304l-64 47v12l192 55h12v-205l150 137v6l-49 36v16h212v-16l-64 -35l-136 -107l183 -248l64 -34v-16h-195l-31 52l-134 187v-192l65 -31v-16h-272z" />
    <glyph glyph-name="uni0139" unicode="&#x139;" horiz-adv-x="649" 
d="M44 0v16l85 41v546l-85 41v16h331v-16l-95 -41v-548h220l81 189h16v-244h-553zM193 710l83 152.001h110c0 -12.667 -2.66699 -24.834 -8 -36.501s-16 -22.5 -32 -32.5l-131 -83h-22z" />
    <glyph glyph-name="uni013A" unicode="&#x13a;" horiz-adv-x="326" 
d="M29 0v16l67 32v588l-64 47v12l193 55h12v-702l59 -32v-16h-267zM155 765l83 152.001h110c0 -12.667 -2.66699 -24.834 -8 -36.501s-16 -22.5 -32 -32.5l-131 -83h-22z" />
    <glyph glyph-name="uni013B" unicode="&#x13b;" horiz-adv-x="649" 
d="M44 0v16l85 41v546l-85 41v16h331v-16l-95 -41v-548h220l81 189h16v-244h-553zM322 -239c-5.33301 0 -11.499 0.333008 -18.499 1s-13.167 1.66699 -18.5 3v18l16 -2c5.33301 -0.666992 9.66602 -1 12.999 -1c33.333 0 50 11.333 50 34c0 14 -6.5 23.667 -19.5 29
s-33.167 8 -60.5 8v52c0 6 3 11 9 15s16.667 6 32 6c36 0 63.167 -7 81.5 -21s27.5 -33.667 27.5 -59c0 -26.667 -10.5 -47.167 -31.5 -61.5s-47.833 -21.5 -80.5 -21.5z" />
    <glyph glyph-name="uni013C" unicode="&#x13c;" horiz-adv-x="326" 
d="M29 0v16l67 32v588l-64 47v12l193 55h12v-702l59 -32v-16h-267zM130 -239c-5.33301 0 -11.499 0.333008 -18.499 1s-13.167 1.66699 -18.5 3v18l16 -2c5.33301 -0.666992 9.66602 -1 12.999 -1c33.333 0 50 11.333 50 34c0 14 -6.5 23.667 -19.5 29s-33.167 8 -60.5 8v52
c0 6 3 11 9 15s16.667 6 32 6c36 0 63.167 -7 81.5 -21s27.5 -33.667 27.5 -59c0 -26.667 -10.5 -47.167 -31.5 -61.5s-47.833 -21.5 -80.5 -21.5z" />
    <glyph glyph-name="uni013D" unicode="&#x13d;" horiz-adv-x="649" 
d="M44 0v16l85 41v546l-85 41v16h331v-16l-95 -41v-548h220l81 189h16v-244h-553zM437 473l16 186.998h99c2 -9.33301 2.83301 -19.166 2.5 -29.499s-4.83301 -22.166 -13.5 -35.499l-82 -122h-22z" />
    <glyph glyph-name="uni013E" unicode="&#x13e;" horiz-adv-x="326" 
d="M29 0v16l67 32v588l-64 47v12l193 55h12v-702l59 -32v-16h-267zM294 553l16 186.998h99c2 -9.33301 2.83301 -19.166 2.5 -29.499s-4.83301 -22.166 -13.5 -35.499l-82 -122h-22z" />
    <glyph glyph-name="uni013F" unicode="&#x13f;" horiz-adv-x="649" 
d="M44 0v16l85 41v546l-85 41v16h331v-16l-95 -41v-548h220l81 189h16v-244h-553zM520 279c-21.333 0 -38.833 6.83301 -52.5 20.5s-20.5 31.167 -20.5 52.5c0 20.667 6.83301 38 20.5 52s31.167 21 52.5 21s38.833 -7 52.5 -21s20.5 -31.333 20.5 -52
c0 -21.333 -6.83301 -38.833 -20.5 -52.5s-31.167 -20.5 -52.5 -20.5z" />
    <glyph glyph-name="uni0140" unicode="&#x140;" horiz-adv-x="326" 
d="M29 0v16l67 32v588l-64 47v12l193 55h12v-702l59 -32v-16h-267zM356 227c-21.333 0 -38.833 6.83301 -52.5 20.5s-20.5 31.167 -20.5 52.5s6.83301 38.833 20.5 52.5s31.167 20.5 52.5 20.5s38.833 -6.83301 52.5 -20.5s20.5 -31.167 20.5 -52.5
s-6.83301 -38.833 -20.5 -52.5s-31.167 -20.5 -52.5 -20.5z" />
    <glyph glyph-name="uni0141" unicode="&#x141;" horiz-adv-x="649" 
d="M44 0v16l85 41v161l-85 -60v65l85 61v319l-85 41v16h331v-16l-95 -41v-234l142 97v-65l-142 -98v-248h220l81 189h16v-244h-553z" />
    <glyph glyph-name="uni0142" unicode="&#x142;" horiz-adv-x="326" 
d="M29 0v16l67 32v245l-67 -39v57l67 39v286l-64 47v12l189 55h16v-329l70 41v-57l-70 -42v-315l59 -32v-16h-267z" />
    <glyph glyph-name="uni0143" unicode="&#x143;" horiz-adv-x="816" 
d="M42 0v16l85 41v545l-85 42v16h190l388 -438v382l-114 40v16h268v-16l-84 -41v-608h-62l-431 482v-420l114 -41v-16h-269zM401 710l83 152.001h110c0 -12.667 -2.66699 -24.834 -8 -36.501s-16 -22.5 -32 -32.5l-131 -83h-22z" />
    <glyph glyph-name="uni0144" unicode="&#x144;" horiz-adv-x="618" 
d="M31 0l-0.000976562 16.0029l67 32v304l-64 41v12l182 61h12l9 -74h5c24 23.333 47.333 41.5 70 54.5s49.334 19.5 80.001 19.5c40.667 0 73.834 -10.333 99.501 -31s38.5 -51.334 38.5 -92.001v-295l67 -32v-16h-258v16l50 32v254c0 23.333 -6.83301 41.166 -20.5 53.499
s-30.834 18.5 -51.501 18.5c-12.667 0 -26.5 -2.33301 -41.5 -7s-27.5 -11.334 -37.5 -20.001v-299l51 -32v-16h-258zM304.999 530.003l83 177h110c0 -12.667 -3 -24.167 -9 -34.5s-16.333 -21.833 -31 -34.5l-131 -108h-22z" />
    <glyph glyph-name="uni0145" unicode="&#x145;" horiz-adv-x="816" 
d="M42 0v16l85 41v545l-85 42v16h190l388 -438v382l-114 40v16h268v-16l-84 -41v-608h-62l-431 482v-420l114 -41v-16h-269zM380 -239c-5.33301 0 -11.499 0.333008 -18.499 1s-13.167 1.66699 -18.5 3v18l16 -2c5.33301 -0.666992 9.66602 -1 12.999 -1
c33.333 0 50 11.333 50 34c0 14 -6.5 23.667 -19.5 29s-33.167 8 -60.5 8v52c0 6 3 11 9 15s16.667 6 32 6c36 0 63.167 -7 81.5 -21s27.5 -33.667 27.5 -59c0 -26.667 -10.5 -47.167 -31.5 -61.5s-47.833 -21.5 -80.5 -21.5z" />
    <glyph glyph-name="uni0146" unicode="&#x146;" horiz-adv-x="618" 
d="M31 0l-0.000976562 16.0029l67 32v304l-64 41v12l182 61h12l9 -74h5c24 23.333 47.333 41.5 70 54.5s49.334 19.5 80.001 19.5c40.667 0 73.834 -10.333 99.501 -31s38.5 -51.334 38.5 -92.001v-295l67 -32v-16h-258v16l50 32v254c0 23.333 -6.83301 41.166 -20.5 53.499
s-30.834 18.5 -51.501 18.5c-12.667 0 -26.5 -2.33301 -41.5 -7s-27.5 -11.334 -37.5 -20.001v-299l51 -32v-16h-258zM276.999 -238.997c-5.33301 0 -11.499 0.333008 -18.499 1s-13.167 1.66699 -18.5 3v18l16 -2c5.33301 -0.666992 9.66602 -1 12.999 -1
c33.333 0 50 11.333 50 34c0 14 -6.5 23.667 -19.5 29s-33.167 8 -60.5 8v52c0 6 3 11 9 15s16.667 6 32 6c36 0 63.167 -7 81.5 -21s27.5 -33.667 27.5 -59c0 -26.667 -10.5 -47.167 -31.5 -61.5s-47.833 -21.5 -80.5 -21.5z" />
    <glyph glyph-name="uni0147" unicode="&#x147;" horiz-adv-x="816" 
d="M42 0v16l85 41v545l-85 42v16h190l388 -438v382l-114 40v16h268v-16l-84 -41v-608h-62l-431 482v-420l114 -41v-16h-269zM389 710l-136 152h22l138 -64l138 64h22l-136 -152h-48z" />
    <glyph glyph-name="uni0148" unicode="&#x148;" horiz-adv-x="618" 
d="M31 0l-0.000976562 16.0029l67 32v304l-64 41v12l182 61h12l9 -74h5c24 23.333 47.333 41.5 70 54.5s49.334 19.5 80.001 19.5c40.667 0 73.834 -10.333 99.501 -31s38.5 -51.334 38.5 -92.001v-295l67 -32v-16h-258v16l50 32v254c0 23.333 -6.83301 41.166 -20.5 53.499
s-30.834 18.5 -51.501 18.5c-12.667 0 -26.5 -2.33301 -41.5 -7s-27.5 -11.334 -37.5 -20.001v-299l51 -32v-16h-258zM289.999 530.003l-136 177h22l138 -83l138 83h22l-136 -177h-48z" />
    <glyph glyph-name="uni014A" unicode="&#x14a;" horiz-adv-x="816" 
d="M42 0v16l85 41v545l-85 42v16h190l388 -438v382l-114 40v16h268v-16l-84 -41v-605c0 -54 -6 -96 -18 -126s-28.333 -53.333 -49 -70c-16.667 -14 -36.834 -24.667 -60.501 -32s-48.167 -11 -73.5 -11c-21.333 0 -34.833 2.16699 -40.5 6.5s-8.5 11.833 -8.5 22.5v69l5 5
h61c42.667 0 72.334 8.16699 89.001 24.5s25 46.833 25 91.5v28l-423 470v-419l114 -41v-16h-269z" />
    <glyph glyph-name="uni014B" unicode="&#x14b;" horiz-adv-x="615" 
d="M31 0l-0.000976562 16.0029l67 32v304l-64 41v12l182 61h12l9 -74h5c24 23.333 47.333 41.5 70 54.5s49.334 19.5 80.001 19.5c40.667 0 73.834 -10.333 99.501 -31s38.5 -51.334 38.5 -92.001v-315c0 -42.667 -6.83301 -79.667 -20.5 -111s-36.5 -58.833 -68.5 -82.5
s-75.667 -45.167 -131 -64.5v18c21.333 16.667 37.833 32.5 49.5 47.5s19.5 33 23.5 54s6 49.167 6 84.5v328c0 23.333 -6.83301 41.166 -20.5 53.499s-30.834 18.5 -51.501 18.5c-12.667 0 -26.5 -2.33301 -41.5 -7s-27.5 -11.334 -37.5 -20.001v-299l51 -32v-16h-258z" />
    <glyph glyph-name="uni014C" unicode="&#x14c;" horiz-adv-x="789" 
d="M394 -10c-49.333 0 -95 8.5 -137 25.5s-78.5 40.667 -109.5 71s-55.167 66.166 -72.5 107.499s-26 86.666 -26 135.999s8.66699 94.666 26 135.999s41.5 77.166 72.5 107.499s67.5 54 109.5 71s87.667 25.5 137 25.5c50 0 96 -8.5 138 -25.5s78.5 -40.667 109.5 -71
s55.167 -66.166 72.5 -107.499s26 -86.666 26 -135.999s-8.66699 -94.666 -26 -135.999s-41.5 -77.166 -72.5 -107.499s-67.5 -54 -109.5 -71s-88 -25.5 -138 -25.5zM410 42c33.333 0 62.833 10.667 88.5 32s45.667 51.333 60 90s21.5 84 21.5 136
c0 64 -8.83301 120 -26.5 168s-41.5 85.167 -71.5 111.5s-63.667 39.5 -101 39.5c-33.333 0 -63 -10.5 -89 -31.5s-46.5 -50.833 -61.5 -89.5s-22.5 -84 -22.5 -136c0 -64 9 -120 27 -168s42.333 -85.333 73 -112s64.667 -40 102 -40zM245 757v59h290v-59h-290z" />
    <glyph glyph-name="uni014D" unicode="&#x14d;" horiz-adv-x="547" 
d="M274 -10c-47.333 0 -89 10.833 -125 32.5s-64 50.5 -84 86.5s-30 75.667 -30 119c0 44 10 84 30 120s48 64.667 84 86s77.667 32 125 32s88.833 -10.667 124.5 -32s63.5 -50 83.5 -86s30 -76 30 -120c0 -43.333 -10 -83 -30 -119s-47.833 -64.833 -83.5 -86.5
s-77.167 -32.5 -124.5 -32.5zM285 39c19.333 0 35.166 7.83496 47.499 23.502s21.333 36.5 27 62.5s8.5 53.667 8.5 83c0 36 -3.5 70 -10.5 102s-18 58 -33 78s-34.833 30 -59.5 30c-20 0 -36.333 -7.83301 -49 -23.5s-22 -36.334 -28 -62.001s-9 -53.5 -9 -83.5
c0 -36.667 3.66699 -70.834 11 -102.501s18.833 -57.5 34.5 -77.5s35.834 -30 60.501 -30zM127 587.002v60h290v-60h-290z" />
    <glyph glyph-name="uni014E" unicode="&#x14e;" horiz-adv-x="789" 
d="M394 -10c-49.333 0 -95 8.5 -137 25.5s-78.5 40.667 -109.5 71s-55.167 66.166 -72.5 107.499s-26 86.666 -26 135.999s8.66699 94.666 26 135.999s41.5 77.166 72.5 107.499s67.5 54 109.5 71s87.667 25.5 137 25.5c50 0 96 -8.5 138 -25.5s78.5 -40.667 109.5 -71
s55.167 -66.166 72.5 -107.499s26 -86.666 26 -135.999s-8.66699 -94.666 -26 -135.999s-41.5 -77.166 -72.5 -107.499s-67.5 -54 -109.5 -71s-88 -25.5 -138 -25.5zM410 42c33.333 0 62.833 10.667 88.5 32s45.667 51.333 60 90s21.5 84 21.5 136
c0 64 -8.83301 120 -26.5 168s-41.5 85.167 -71.5 111.5s-63.667 39.5 -101 39.5c-33.333 0 -63 -10.5 -89 -31.5s-46.5 -50.833 -61.5 -89.5s-22.5 -84 -22.5 -136c0 -64 9 -120 27 -168s42.333 -85.333 73 -112s64.667 -40 102 -40zM390 710c-48 0 -83.667 13 -107 39
s-40.666 63.667 -51.999 113h21c15.333 -31.333 34.166 -51.5 56.499 -60.5s49.5 -13.5 81.5 -13.5s59 4.33301 81 13s41 29 57 61h21c-12 -49.333 -30.5 -87 -55.5 -113s-59.5 -39 -103.5 -39z" />
    <glyph glyph-name="uni014F" unicode="&#x14f;" horiz-adv-x="547" 
d="M274 -10c-47.333 0 -89 10.833 -125 32.5s-64 50.5 -84 86.5s-30 75.667 -30 119c0 44 10 84 30 120s48 64.667 84 86s77.667 32 125 32s88.833 -10.667 124.5 -32s63.5 -50 83.5 -86s30 -76 30 -120c0 -43.333 -10 -83 -30 -119s-47.833 -64.833 -83.5 -86.5
s-77.167 -32.5 -124.5 -32.5zM285 39c19.333 0 35.166 7.83496 47.499 23.502s21.333 36.5 27 62.5s8.5 53.667 8.5 83c0 36 -3.5 70 -10.5 102s-18 58 -33 78s-34.833 30 -59.5 30c-20 0 -36.333 -7.83301 -49 -23.5s-22 -36.334 -28 -62.001s-9 -53.5 -9 -83.5
c0 -36.667 3.66699 -70.834 11 -102.501s18.833 -57.5 34.5 -77.5s35.834 -30 60.501 -30zM272 540.002c-48 0 -83.3311 13.667 -105.998 41s-40.334 69.333 -53.001 126h21c12 -26 24.833 -45.333 38.5 -58s28.667 -21 45 -25s34.5 -6 54.5 -6s38.167 2 54.5 6
s31.333 12.333 45 25s26.5 32 38.5 58h21c-12.667 -56.667 -31.334 -98.667 -56.001 -126s-59 -41 -103 -41z" />
    <glyph glyph-name="uni0150" unicode="&#x150;" horiz-adv-x="789" 
d="M394 -10c-49.333 0 -95 8.5 -137 25.5s-78.5 40.667 -109.5 71s-55.167 66.166 -72.5 107.499s-26 86.666 -26 135.999s8.66699 94.666 26 135.999s41.5 77.166 72.5 107.499s67.5 54 109.5 71s87.667 25.5 137 25.5c50 0 96 -8.5 138 -25.5s78.5 -40.667 109.5 -71
s55.167 -66.166 72.5 -107.499s26 -86.666 26 -135.999s-8.66699 -94.666 -26 -135.999s-41.5 -77.166 -72.5 -107.499s-67.5 -54 -109.5 -71s-88 -25.5 -138 -25.5zM410 42c33.333 0 62.833 10.667 88.5 32s45.667 51.333 60 90s21.5 84 21.5 136
c0 64 -8.83301 120 -26.5 168s-41.5 85.167 -71.5 111.5s-63.667 39.5 -101 39.5c-33.333 0 -63 -10.5 -89 -31.5s-46.5 -50.833 -61.5 -89.5s-22.5 -84 -22.5 -136c0 -64 9 -120 27 -168s42.333 -85.333 73 -112s64.667 -40 102 -40zM310 710l43 152.001h82
c3.33301 -10 5 -20.333 5 -31s-5.66699 -21.334 -17 -32.001l-92 -89h-21zM447 710.001l59 152h82c3.33301 -10 5.33301 -20.5 6 -31.5s-5.33301 -21.5 -18 -31.5l-107 -89h-22z" />
    <glyph glyph-name="uni0151" unicode="&#x151;" horiz-adv-x="547" 
d="M274 -10c-47.333 0 -89 10.833 -125 32.5s-64 50.5 -84 86.5s-30 75.667 -30 119c0 44 10 84 30 120s48 64.667 84 86s77.667 32 125 32s88.833 -10.667 124.5 -32s63.5 -50 83.5 -86s30 -76 30 -120c0 -43.333 -10 -83 -30 -119s-47.833 -64.833 -83.5 -86.5
s-77.167 -32.5 -124.5 -32.5zM285 39c19.333 0 35.166 7.83496 47.499 23.502s21.333 36.5 27 62.5s8.5 53.667 8.5 83c0 36 -3.5 70 -10.5 102s-18 58 -33 78s-34.833 30 -59.5 30c-20 0 -36.333 -7.83301 -49 -23.5s-22 -36.334 -28 -62.001s-9 -53.5 -9 -83.5
c0 -36.667 3.66699 -70.834 11 -102.501s18.833 -57.5 34.5 -77.5s35.834 -30 60.501 -30zM186 530.002l44 177h82c3.33301 -10 4.5 -20 3.5 -30s-6.16699 -21 -15.5 -33l-92 -114h-22zM323 530.002l60 176.999h82c3.33301 -10 5 -20.167 5 -30.5
s-5.66699 -21.166 -17 -32.499l-108 -114h-22z" />
    <glyph glyph-name="uni0152" unicode="&#x152;" horiz-adv-x="1041" 
d="M421 0c-78.667 0 -145.668 13 -201.001 39s-97.666 62.833 -126.999 110.5s-44 104.167 -44 169.5c0 68.667 16.333 128.667 49 180s77.5 91 134.5 119s122.167 42 195.5 42h533v-173h-16l-74 118h-219v-237h154l56 86h16v-225h-16l-56 84h-154v-258h243l78 149h16v-204
h-568zM453.999 55h47v550h-58c-76 0 -134.667 -24.167 -176 -72.5s-62 -113.5 -62 -195.5c0 -86 21 -154.5 63 -205.5s104 -76.5 186 -76.5z" />
    <glyph glyph-name="uni0153" unicode="&#x153;" horiz-adv-x="835" 
d="M274 -10c-47.333 0 -89.002 10.832 -125.002 32.499s-64 50.5 -84 86.5s-30 75.667 -30 119c0 44 10 84 30 120s48 64.667 84 86s77.667 32 125 32c36 0 69 -6.5 99 -19.5s55.333 -30.833 76 -53.5c22.667 22.667 49 40.5 79 53.5s62 19.5 96 19.5c54 0 96 -18 126 -54
s45.333 -87 46 -153l-4 -5h-280v-5c0 -28 5.33301 -53.5 16 -76.5s27.334 -41.167 50.001 -54.5s52.667 -20 90 -20c18.667 0 38.667 2.33301 60 7s43.333 12.667 66 24h3v-16c-16.667 -35.333 -42.167 -64.666 -76.5 -87.999s-74.833 -35 -121.5 -35
c-34.667 0 -65.667 5.33301 -93 16s-50.666 25.334 -69.999 44.001c-20.667 -18.667 -44.667 -33.334 -72 -44.001s-57.333 -16 -90 -16zM600.998 420.999c-23.333 0 -42.5 -10.667 -57.5 -32s-24.5 -51.333 -28.5 -90h170c-5.33301 46 -15 77.833 -29 95.5
s-32.333 26.5 -55 26.5zM284.998 38.999c19.333 0 35.166 7.83496 47.499 23.502s21.333 36.5 27 62.5s8.5 53.667 8.5 83c0 36 -3.5 70 -10.5 102s-18 58 -33 78s-34.833 30 -59.5 30c-20 0 -36.333 -7.83301 -49 -23.5s-22 -36.334 -28 -62.001s-9 -53.5 -9 -83.5
c0 -36.667 3.66699 -70.834 11 -102.501s18.833 -57.5 34.5 -77.5s35.834 -30 60.501 -30z" />
    <glyph glyph-name="uni0154" unicode="&#x154;" horiz-adv-x="727" 
d="M44 0v15.999l85 41v546l-85 41v16h342c70 0 125.167 -14.5 165.5 -43.5s60.5 -68.833 60.5 -119.5c0 -36.667 -12.333 -68.167 -37 -94.5s-57 -47.166 -97 -62.499l185 -284l72 -40v-16h-217l-185 306h-53v-248l75 -42v-16h-311zM320 604.999l-40 0.000976562v-250h46
c41.333 0 74 11.667 98 35s36 53.666 36 90.999c0 39.333 -11.833 69.833 -35.5 91.5s-58.5 32.5 -104.5 32.5zM330 710l83 152.001h110c0 -12.667 -2.66699 -24.834 -8 -36.501s-16 -22.5 -32 -32.5l-131 -83h-22z" />
    <glyph glyph-name="uni0155" unicode="&#x155;" horiz-adv-x="425" 
d="M33 0l0.000976562 16l66 32v298l-63 47v12l182 61h12l9 -90h5c16 25.333 30.333 44.5 43 57.5s24.667 21.667 36 26s23.666 6.5 36.999 6.5c5.33301 0 11.5 -0.833008 18.5 -2.5s13.167 -3.5 18.5 -5.5c20 -6 30 -15.333 30 -28c0 -6 -1.33301 -11.667 -4 -17l-24 -65h-7
l-26 9c-17.333 6 -35 9 -53 9c-28 0 -52.333 -13 -73 -39v-279l81 -32v-16h-288zM238.001 530l83 177h110c0 -12.667 -3 -24.167 -9 -34.5s-16.333 -21.833 -31 -34.5l-131 -108h-22z" />
    <glyph glyph-name="uni0156" unicode="&#x156;" horiz-adv-x="727" 
d="M44 0v15.999l85 41v546l-85 41v16h342c70 0 125.167 -14.5 165.5 -43.5s60.5 -68.833 60.5 -119.5c0 -36.667 -12.333 -68.167 -37 -94.5s-57 -47.166 -97 -62.499l185 -284l72 -40v-16h-217l-185 306h-53v-248l75 -42v-16h-311zM320 604.999l-40 0.000976562v-250h46
c41.333 0 74 11.667 98 35s36 53.666 36 90.999c0 39.333 -11.833 69.833 -35.5 91.5s-58.5 32.5 -104.5 32.5zM367 -239c-5.33301 0 -11.499 0.333008 -18.499 1s-13.167 1.66699 -18.5 3v18l16 -2c5.33301 -0.666992 9.66602 -1 12.999 -1c33.333 0 50 11.333 50 34
c0 14 -6.5 23.667 -19.5 29s-33.167 8 -60.5 8v52c0 6 3 11 9 15s16.667 6 32 6c36 0 63.167 -7 81.5 -21s27.5 -33.667 27.5 -59c0 -26.667 -10.5 -47.167 -31.5 -61.5s-47.833 -21.5 -80.5 -21.5z" />
    <glyph glyph-name="uni0157" unicode="&#x157;" horiz-adv-x="425" 
d="M33 0l0.000976562 16l66 32v298l-63 47v12l182 61h12l9 -90h5c16 25.333 30.333 44.5 43 57.5s24.667 21.667 36 26s23.666 6.5 36.999 6.5c5.33301 0 11.5 -0.833008 18.5 -2.5s13.167 -3.5 18.5 -5.5c20 -6 30 -15.333 30 -28c0 -6 -1.33301 -11.667 -4 -17l-24 -65h-7
l-26 9c-17.333 6 -35 9 -53 9c-28 0 -52.333 -13 -73 -39v-279l81 -32v-16h-288zM133.001 -239c-5.33301 0 -11.499 0.333008 -18.499 1s-13.167 1.66699 -18.5 3v18l16 -2c5.33301 -0.666992 9.66602 -1 12.999 -1c33.333 0 50 11.333 50 34c0 14 -6.5 23.667 -19.5 29
s-33.167 8 -60.5 8v52c0 6 3 11 9 15s16.667 6 32 6c36 0 63.167 -7 81.5 -21s27.5 -33.667 27.5 -59c0 -26.667 -10.5 -47.167 -31.5 -61.5s-47.833 -21.5 -80.5 -21.5z" />
    <glyph glyph-name="uni0158" unicode="&#x158;" horiz-adv-x="727" 
d="M44 0v15.999l85 41v546l-85 41v16h342c70 0 125.167 -14.5 165.5 -43.5s60.5 -68.833 60.5 -119.5c0 -36.667 -12.333 -68.167 -37 -94.5s-57 -47.166 -97 -62.499l185 -284l72 -40v-16h-217l-185 306h-53v-248l75 -42v-16h-311zM320 604.999l-40 0.000976562v-250h46
c41.333 0 74 11.667 98 35s36 53.666 36 90.999c0 39.333 -11.833 69.833 -35.5 91.5s-58.5 32.5 -104.5 32.5zM317 710l-136 152h22l138 -64l138 64h22l-136 -152h-48z" />
    <glyph glyph-name="uni0159" unicode="&#x159;" horiz-adv-x="425" 
d="M33 0l0.000976562 16l66 32v298l-63 47v12l182 61h12l9 -90h5c16 25.333 30.333 44.5 43 57.5s24.667 21.667 36 26s23.666 6.5 36.999 6.5c5.33301 0 11.5 -0.833008 18.5 -2.5s13.167 -3.5 18.5 -5.5c20 -6 30 -15.333 30 -28c0 -6 -1.33301 -11.667 -4 -17l-24 -65h-7
l-26 9c-17.333 6 -35 9 -53 9c-28 0 -52.333 -13 -73 -39v-279l81 -32v-16h-288zM224.001 530l-136 177h22l138 -83l138 83h22l-136 -177h-48z" />
    <glyph glyph-name="uni015A" unicode="&#x15a;" horiz-adv-x="572" 
d="M271 -10c-44 0 -82.8359 4.49805 -116.503 13.498s-66.167 21.5 -97.5 37.5l-10 169h18l71 -123c18 -14.667 37.5 -26 58.5 -34s42.5 -12 64.5 -12c36 0 65.333 8.5 88 25.5s34 42.167 34 75.5c0 22.667 -5.16699 41.334 -15.5 56.001s-27.5 28.5 -51.5 41.5
s-57 28.833 -99 47.5c-47.333 20.667 -83.666 45.334 -108.999 74.001s-38 64.334 -38 107.001c0 26.667 6.83301 52.167 20.5 76.5s32 46 55 65s48.667 33.833 77 44.5s57.5 16 87.5 16c34 0 66.667 -4 98 -12s60.333 -19.333 87 -34l10 -160h-17l-70 113
c-17.333 13.333 -34.166 23.5 -50.499 30.5s-34.833 10.5 -55.5 10.5c-27.333 0 -50 -8.66699 -68 -26s-27 -40.333 -27 -69c0 -27.333 9.83301 -49.833 29.5 -67.5s53.834 -37.5 102.501 -59.5c60.667 -28 105.334 -56.667 134.001 -86s43 -68 43 -116
c0 -42.667 -12.333 -79.334 -37 -110.001s-56.334 -54 -95.001 -70s-79 -24 -121 -24zM287.997 709.998l83 152.001h110c0 -12.667 -2.66699 -24.834 -8 -36.501s-16 -22.5 -32 -32.5l-131 -83h-22z" />
    <glyph glyph-name="uni015B" unicode="&#x15b;" horiz-adv-x="437" 
d="M209 -10c-32.667 0 -61.1709 3.16992 -85.5039 9.50293s-48.166 15.166 -71.499 26.499v116h15l35 -52c24.667 -37.333 59 -56 103 -56c52 0 78 19 78 57c0 14 -3.66699 25.333 -11 34s-19.166 17 -35.499 25s-38.833 18 -67.5 30c-37.333 15.333 -65 33.333 -83 54
s-27 46.334 -27 77.001c0 28.667 7.5 54.667 22.5 78s35.5 42 61.5 56s55.333 21 88 21c22.667 0 44.834 -2.33301 66.501 -7s42.834 -12.334 63.501 -23.001v-119h-15l-31 47c-12.667 19.333 -25.667 33.666 -39 42.999s-29.333 14 -48 14c-20 0 -36.167 -5 -48.5 -15
s-18.5 -24 -18.5 -42c0 -12 2.83301 -22.167 8.5 -30.5s15.834 -16.5 30.501 -24.5s35.667 -17.333 63 -28c18.667 -7.33301 37.167 -15.833 55.5 -25.5s33.666 -23.334 45.999 -41.001s18.5 -42.167 18.5 -73.5s-8.33301 -58.333 -25 -81s-38.167 -40 -64.5 -52
s-54.5 -18 -84.5 -18zM209.996 530.003l83 177h110c0 -12.667 -3 -24.167 -9 -34.5s-16.333 -21.833 -31 -34.5l-131 -108h-22z" />
    <glyph glyph-name="uni015C" unicode="&#x15c;" horiz-adv-x="572" 
d="M271 -10c-44 0 -82.8359 4.49805 -116.503 13.498s-66.167 21.5 -97.5 37.5l-10 169h18l71 -123c18 -14.667 37.5 -26 58.5 -34s42.5 -12 64.5 -12c36 0 65.333 8.5 88 25.5s34 42.167 34 75.5c0 22.667 -5.16699 41.334 -15.5 56.001s-27.5 28.5 -51.5 41.5
s-57 28.833 -99 47.5c-47.333 20.667 -83.666 45.334 -108.999 74.001s-38 64.334 -38 107.001c0 26.667 6.83301 52.167 20.5 76.5s32 46 55 65s48.667 33.833 77 44.5s57.5 16 87.5 16c34 0 66.667 -4 98 -12s60.333 -19.333 87 -34l10 -160h-17l-70 113
c-17.333 13.333 -34.166 23.5 -50.499 30.5s-34.833 10.5 -55.5 10.5c-27.333 0 -50 -8.66699 -68 -26s-27 -40.333 -27 -69c0 -27.333 9.83301 -49.833 29.5 -67.5s53.834 -37.5 102.501 -59.5c60.667 -28 105.334 -56.667 134.001 -86s43 -68 43 -116
c0 -42.667 -12.333 -79.334 -37 -110.001s-56.334 -54 -95.001 -70s-79 -24 -121 -24zM139.997 709.998l136 152h48l136 -152h-22l-138 64l-138 -64h-22z" />
    <glyph glyph-name="uni015D" unicode="&#x15d;" horiz-adv-x="437" 
d="M209 -10c-32.667 0 -61.1709 3.16992 -85.5039 9.50293s-48.166 15.166 -71.499 26.499v116h15l35 -52c24.667 -37.333 59 -56 103 -56c52 0 78 19 78 57c0 14 -3.66699 25.333 -11 34s-19.166 17 -35.499 25s-38.833 18 -67.5 30c-37.333 15.333 -65 33.333 -83 54
s-27 46.334 -27 77.001c0 28.667 7.5 54.667 22.5 78s35.5 42 61.5 56s55.333 21 88 21c22.667 0 44.834 -2.33301 66.501 -7s42.834 -12.334 63.501 -23.001v-119h-15l-31 47c-12.667 19.333 -25.667 33.666 -39 42.999s-29.333 14 -48 14c-20 0 -36.167 -5 -48.5 -15
s-18.5 -24 -18.5 -42c0 -12 2.83301 -22.167 8.5 -30.5s15.834 -16.5 30.501 -24.5s35.667 -17.333 63 -28c18.667 -7.33301 37.167 -15.833 55.5 -25.5s33.666 -23.334 45.999 -41.001s18.5 -42.167 18.5 -73.5s-8.33301 -58.333 -25 -81s-38.167 -40 -64.5 -52
s-54.5 -18 -84.5 -18zM58.9961 530.003l136 177h48l136 -177h-22l-138 83l-138 -83h-22z" />
    <glyph glyph-name="uni015E" unicode="&#x15e;" horiz-adv-x="572" 
d="M285 -240c-34 0 -60.999 7.99707 -80.999 23.9971v19h4c16 -8 35 -12 57 -12c36.667 0 55 13 55 39c0 14 -6.66699 26 -20 36s-39.666 20.333 -78.999 31l43 93c-42 0.666992 -79.333 5.5 -112 14.5s-64.334 21.167 -95.001 36.5l-10 169h18l71 -123
c18 -14.667 37.5 -26 58.5 -34s42.5 -12 64.5 -12c36 0 65.333 8.5 88 25.5s34 42.167 34 75.5c0 22.667 -5.16699 41.334 -15.5 56.001s-27.5 28.5 -51.5 41.5s-57 28.833 -99 47.5c-47.333 20.667 -83.666 45.334 -108.999 74.001s-38 64.334 -38 107.001
c0 26.667 6.83301 52.167 20.5 76.5s32 46 55 65s48.667 33.833 77 44.5s57.5 16 87.5 16c34 0 66.667 -4 98 -12s60.333 -19.333 87 -34l10 -160h-17l-68 112c-18 14 -35.333 24.5 -52 31.5s-35.334 10.5 -56.001 10.5c-27.333 0 -50 -8.66699 -68 -26s-27 -40.333 -27 -69
c0 -27.333 9.83301 -49.833 29.5 -67.5s53.834 -37.5 102.501 -59.5c60.667 -28 105.334 -56.667 134.001 -86s43 -68 43 -116c0 -39.333 -10.333 -73.5 -31 -102.5s-47.834 -52 -81.501 -69s-69.834 -27.167 -108.501 -30.5l-16 -35c38 -11.333 64.667 -25 80 -41
s23 -37.333 23 -64s-9.33301 -48.667 -28 -66s-44.334 -26 -77.001 -26z" />
    <glyph glyph-name="uni015F" unicode="&#x15f;" horiz-adv-x="437" 
d="M217 -240c-35.333 0 -62.335 8.00098 -81.002 24.001v19h3c16 -8 35 -12 57 -12c36.667 0 55 13 55 39c0 14 -6.5 26 -19.5 36s-39.167 20.333 -78.5 31l43 93c-29.333 0.666992 -55.166 4.16699 -77.499 10.5s-44.5 14.833 -66.5 25.5v116h15l35 -52
c24.667 -37.333 59 -56 103 -56c52 0 78 19 78 57c0 14 -3.66699 25.333 -11 34s-19.166 17 -35.499 25s-38.833 18 -67.5 30c-37.333 15.333 -65 33.333 -83 54s-27 46.334 -27 77.001c0 28.667 7.5 54.667 22.5 78s35.5 42 61.5 56s55.333 21 88 21
c22.667 0 44.834 -2.33301 66.501 -7s42.834 -12.334 63.501 -23.001v-119h-15l-31 47c-12.667 19.333 -25.667 33.666 -39 42.999s-29.333 14 -48 14c-20 0 -36.167 -5 -48.5 -15s-18.5 -24 -18.5 -42c0 -12 2.83301 -22.167 8.5 -30.5s15.834 -16.5 30.501 -24.5
s35.667 -17.333 63 -28c18.667 -7.33301 37.167 -15.833 55.5 -25.5s33.666 -23.334 45.999 -41.001s18.5 -42.167 18.5 -73.5c0 -28.667 -6.83301 -53.5 -20.5 -74.5s-31.834 -38 -54.501 -51s-47.334 -20.833 -74.001 -23.5l-15 -35c38 -11.333 64.667 -25.166 80 -41.499
s23 -37.5 23 -63.5c0 -26.667 -9.5 -48.667 -28.5 -66s-44.5 -26 -76.5 -26z" />
    <glyph glyph-name="uni0160" unicode="&#x160;" horiz-adv-x="572" 
d="M271 -10c-44 0 -82.8359 4.49805 -116.503 13.498s-66.167 21.5 -97.5 37.5l-10 169h18l71 -123c18 -14.667 37.5 -26 58.5 -34s42.5 -12 64.5 -12c36 0 65.333 8.5 88 25.5s34 42.167 34 75.5c0 22.667 -5.16699 41.334 -15.5 56.001s-27.5 28.5 -51.5 41.5
s-57 28.833 -99 47.5c-47.333 20.667 -83.666 45.334 -108.999 74.001s-38 64.334 -38 107.001c0 26.667 6.83301 52.167 20.5 76.5s32 46 55 65s48.667 33.833 77 44.5s57.5 16 87.5 16c34 0 66.667 -4 98 -12s60.333 -19.333 87 -34l10 -160h-17l-70 113
c-17.333 13.333 -34.166 23.5 -50.499 30.5s-34.833 10.5 -55.5 10.5c-27.333 0 -50 -8.66699 -68 -26s-27 -40.333 -27 -69c0 -27.333 9.83301 -49.833 29.5 -67.5s53.834 -37.5 102.501 -59.5c60.667 -28 105.334 -56.667 134.001 -86s43 -68 43 -116
c0 -42.667 -12.333 -79.334 -37 -110.001s-56.334 -54 -95.001 -70s-79 -24 -121 -24zM275.997 709.998l-136 152h22l138 -64l138 64h22l-136 -152h-48z" />
    <glyph glyph-name="uni0161" unicode="&#x161;" horiz-adv-x="437" 
d="M209 -10c-32.667 0 -61.1709 3.16992 -85.5039 9.50293s-48.166 15.166 -71.499 26.499v116h15l35 -52c24.667 -37.333 59 -56 103 -56c52 0 78 19 78 57c0 14 -3.66699 25.333 -11 34s-19.166 17 -35.499 25s-38.833 18 -67.5 30c-37.333 15.333 -65 33.333 -83 54
s-27 46.334 -27 77.001c0 28.667 7.5 54.667 22.5 78s35.5 42 61.5 56s55.333 21 88 21c22.667 0 44.834 -2.33301 66.501 -7s42.834 -12.334 63.501 -23.001v-119h-15l-31 47c-12.667 19.333 -25.667 33.666 -39 42.999s-29.333 14 -48 14c-20 0 -36.167 -5 -48.5 -15
s-18.5 -24 -18.5 -42c0 -12 2.83301 -22.167 8.5 -30.5s15.834 -16.5 30.501 -24.5s35.667 -17.333 63 -28c18.667 -7.33301 37.167 -15.833 55.5 -25.5s33.666 -23.334 45.999 -41.001s18.5 -42.167 18.5 -73.5s-8.33301 -58.333 -25 -81s-38.167 -40 -64.5 -52
s-54.5 -18 -84.5 -18zM194.996 530.003l-136 177h22l138 -83l138 83h22l-136 -177h-48z" />
    <glyph glyph-name="uni0162" unicode="&#x162;" horiz-adv-x="701" 
d="M169 0v16l106 41v548h-143l-80 -165h-16v220h629v-220h-16l-80 165h-143v-548l106 -41v-16h-162l-20 -43c38 -11.333 64.667 -25 80 -41s23 -37.333 23 -64s-9.33301 -48.667 -28 -66s-44 -26 -76 -26c-34.667 0 -62 8 -82 24v19h4c16 -8 35 -12 57 -12
c36.667 0 55 13 55 39c0 14 -6.5 26 -19.5 36s-39.167 20.333 -78.5 31l47 103h-163z" />
    <glyph glyph-name="uni0163" unicode="&#x163;" horiz-adv-x="386" 
d="M209 -240c-34 0 -61.002 8 -81.002 24v19h4c16 -8 34.667 -12 56 -12c37.333 0 56 13 56 39c0 14 -6.66699 26 -20 36s-39.666 20.333 -78.999 31l43 95c-31.333 4 -56.833 14.333 -76.5 31s-29.5 38.667 -29.5 66v322h-72v14l92 31l101 110h19v-110h139v-45h-139v-297
c0 -17.333 7.33301 -30 22 -38s32 -12 52 -12c12.667 0 23.834 0.833008 33.501 2.5s19.167 3.5 28.5 5.5l3 -2v-17c-11.333 -16 -29.5 -30.5 -54.5 -43.5s-51.833 -19.5 -80.5 -19.5l-15 -33c38 -11.333 64.667 -25 80 -41s23 -37.333 23 -64s-9.5 -48.667 -28.5 -66
s-44.5 -26 -76.5 -26z" />
    <glyph glyph-name="uni0164" unicode="&#x164;" horiz-adv-x="701" 
d="M169 0v16l106 41v548h-143l-80 -165h-16v220h629v-220h-16l-80 165h-143v-548l106 -41v-16h-363zM326 710l-136 152h22l138 -64l138 64h22l-136 -152h-48z" />
    <glyph glyph-name="uni0165" unicode="&#x165;" horiz-adv-x="386" 
d="M221 -10c-40.667 0 -74.0029 8.66797 -100.003 26.001s-39 41.666 -39 72.999v322h-72v14l92 31l101 110h19v-110h139v-45h-139v-297c0 -17.333 7.33301 -30 22 -38s32 -12 52 -12c12.667 0 23.834 0.833008 33.501 2.5s19.167 3.5 28.5 5.5l3 -2v-17
c-11.333 -16 -29.666 -30.5 -54.999 -43.5s-53.666 -19.5 -84.999 -19.5zM287.997 553.001l16 186.998h99c2 -9.33301 2.83301 -19.166 2.5 -29.499s-4.83301 -22.166 -13.5 -35.499l-82 -122h-22z" />
    <glyph glyph-name="uni0166" unicode="&#x166;" horiz-adv-x="701" 
d="M169 0v16l106 41v259h-125v53h125v236h-143l-80 -165h-16v220h629v-220h-16l-80 165h-143v-236h125v-53h-125v-259l106 -41v-16h-363z" />
    <glyph glyph-name="uni0167" unicode="&#x167;" horiz-adv-x="386" 
d="M221 -10c-40.667 0 -74.0029 8.66797 -100.003 26.001s-39 41.666 -39 72.999v149h-70v49h70v124h-72v14l92 31l101 110h19v-110h139v-45h-139v-124h129v-49h-129v-124c0 -17.333 7.33301 -30 22 -38s32 -12 52 -12c12.667 0 23.834 0.833008 33.501 2.5
s19.167 3.5 28.5 5.5l3 -2v-17c-11.333 -16 -29.666 -30.5 -54.999 -43.5s-53.666 -19.5 -84.999 -19.5z" />
    <glyph glyph-name="uni0168" unicode="&#x168;" horiz-adv-x="838" 
d="M423 -10c-58 0 -108.997 9.5 -152.997 28.5s-78.333 50 -103 93s-37 100.5 -37 172.5v319l-86 41v16h323v-16l-86 -41v-320c0 -55.333 8.5 -98.833 25.5 -130.5s40 -54.167 69 -67.5s61.167 -20 96.5 -20c29.333 0 56.666 6 81.999 18s45.666 31.5 60.999 58.5
s23 62.5 23 106.5v357l-94 39v16h250v-16l-86 -40v-320c0 -72 -12 -129.5 -36 -172.5s-57.333 -74 -100 -93s-92.334 -28.5 -149.001 -28.5zM291.003 722c16.667 50.667 33 84.334 49 101.001s34.333 25 55 25c19.333 0 37.5 -4.33301 54.5 -13s33 -17.5 48 -26.5
s29.833 -13.5 44.5 -13.5c10.667 0 20.5 3.16699 29.5 9.5s18.167 20.833 27.5 43.5h22c-16 -50.667 -32.167 -84.334 -48.5 -101.001s-34.833 -25 -55.5 -25c-19.333 0 -37.5 4.33301 -54.5 13s-33 17.5 -48 26.5s-29.833 13.5 -44.5 13.5
c-10.667 0 -20.5 -3.16699 -29.5 -9.5s-18.167 -20.833 -27.5 -43.5h-22z" />
    <glyph glyph-name="uni0169" unicode="&#x169;" horiz-adv-x="590" 
d="M218 -10c-40 0 -72.833 10.3311 -98.5 30.998s-38.5 51.334 -38.5 92.001v295l-66 32v16h207v-302c0 -23.333 6.66699 -41.166 20 -53.499s30.333 -18.5 51 -18.5c12.667 0 26 2.33301 40 7s26 11 36 19v300l-60 32v16h201v-409l63 -31v-16h-204v64h-4
c-23.333 -23.333 -46 -41.5 -68 -54.5s-48.333 -19.5 -79 -19.5zM129 549.998c12.667 40 24.5 69.667 35.5 89s22 32 33 38s23.833 9 38.5 9c18.667 0 36.167 -5.16699 52.5 -15.5l47 -31c15 -10.333 28.833 -15.5 41.5 -15.5c12 0 22.333 3.83301 31 11.5
s18.334 24.5 29.001 50.5h22c-12.667 -40 -24.5 -69.667 -35.5 -89s-22 -32 -33 -38s-23.833 -9 -38.5 -9c-18.667 0 -36.167 5.16699 -52.5 15.5l-47 31c-15 10.333 -28.833 15.5 -41.5 15.5c-12 0 -22.333 -3.83301 -31 -11.5s-18.334 -24.5 -29.001 -50.5h-22z" />
    <glyph glyph-name="uni016A" unicode="&#x16a;" horiz-adv-x="838" 
d="M423 -10c-58 0 -108.997 9.5 -152.997 28.5s-78.333 50 -103 93s-37 100.5 -37 172.5v319l-86 41v16h323v-16l-86 -41v-320c0 -55.333 8.5 -98.833 25.5 -130.5s40 -54.167 69 -67.5s61.167 -20 96.5 -20c29.333 0 56.666 6 81.999 18s45.666 31.5 60.999 58.5
s23 62.5 23 106.5v357l-94 39v16h250v-16l-86 -40v-320c0 -72 -12 -129.5 -36 -172.5s-57.333 -74 -100 -93s-92.334 -28.5 -149.001 -28.5zM311.003 757v59h290v-59h-290z" />
    <glyph glyph-name="uni016B" unicode="&#x16b;" horiz-adv-x="590" 
d="M218 -10c-40 0 -72.833 10.3311 -98.5 30.998s-38.5 51.334 -38.5 92.001v295l-66 32v16h207v-302c0 -23.333 6.66699 -41.166 20 -53.499s30.333 -18.5 51 -18.5c12.667 0 26 2.33301 40 7s26 11 36 19v300l-60 32v16h201v-409l63 -31v-16h-204v64h-4
c-23.333 -23.333 -46 -41.5 -68 -54.5s-48.333 -19.5 -79 -19.5zM149 586.998v60h290v-60h-290z" />
    <glyph glyph-name="uni016C" unicode="&#x16c;" horiz-adv-x="838" 
d="M423 -10c-58 0 -108.997 9.5 -152.997 28.5s-78.333 50 -103 93s-37 100.5 -37 172.5v319l-86 41v16h323v-16l-86 -41v-320c0 -55.333 8.5 -98.833 25.5 -130.5s40 -54.167 69 -67.5s61.167 -20 96.5 -20c29.333 0 56.666 6 81.999 18s45.666 31.5 60.999 58.5
s23 62.5 23 106.5v357l-94 39v16h250v-16l-86 -40v-320c0 -72 -12 -129.5 -36 -172.5s-57.333 -74 -100 -93s-92.334 -28.5 -149.001 -28.5zM456.003 710c-48 0 -83.667 13 -107 39s-40.666 63.667 -51.999 113h21c15.333 -31.333 34.166 -51.5 56.499 -60.5
s49.5 -13.5 81.5 -13.5s59 4.33301 81 13s41 29 57 61h21c-12 -49.333 -30.5 -87 -55.5 -113s-59.5 -39 -103.5 -39z" />
    <glyph glyph-name="uni016D" unicode="&#x16d;" horiz-adv-x="590" 
d="M218 -10c-40 0 -72.833 10.3311 -98.5 30.998s-38.5 51.334 -38.5 92.001v295l-66 32v16h207v-302c0 -23.333 6.66699 -41.166 20 -53.499s30.333 -18.5 51 -18.5c12.667 0 26 2.33301 40 7s26 11 36 19v300l-60 32v16h201v-409l63 -31v-16h-204v64h-4
c-23.333 -23.333 -46 -41.5 -68 -54.5s-48.333 -19.5 -79 -19.5zM294 539.998c-48 0 -83.3311 13.667 -105.998 41s-40.334 69.333 -53.001 126h21c12 -26 24.833 -45.333 38.5 -58s28.667 -21 45 -25s34.5 -6 54.5 -6s38.167 2 54.5 6s31.333 12.333 45 25s26.5 32 38.5 58
h21c-12.667 -56.667 -31.334 -98.667 -56.001 -126s-59 -41 -103 -41z" />
    <glyph glyph-name="uni016E" unicode="&#x16e;" horiz-adv-x="838" 
d="M423 -10c-58 0 -108.997 9.5 -152.997 28.5s-78.333 50 -103 93s-37 100.5 -37 172.5v319l-86 41v16h323v-16l-86 -41v-320c0 -55.333 8.5 -98.833 25.5 -130.5s40 -54.167 69 -67.5s61.167 -20 96.5 -20c29.333 0 56.666 6 81.999 18s45.666 31.5 60.999 58.5
s23 62.5 23 106.5v357l-94 39v16h250v-16l-86 -40v-320c0 -72 -12 -129.5 -36 -172.5s-57.333 -74 -100 -93s-92.334 -28.5 -149.001 -28.5zM456.003 710c-26 0 -47.333 8 -64 24s-25 36.333 -25 61c0 24 8.33301 44.167 25 60.5s38 24.5 64 24.5
c26.667 0 48.167 -8.16699 64.5 -24.5s24.5 -36.5 24.5 -60.5c0 -24.667 -8.16699 -45 -24.5 -61s-37.833 -24 -64.5 -24zM460.003 735c20 0 30 17.667 30 53c0 44.667 -12.667 67 -38 67c-20 0 -30 -18 -30 -54c0 -44 12.667 -66 38 -66z" />
    <glyph glyph-name="uni016F" unicode="&#x16f;" horiz-adv-x="590" 
d="M218 -10c-40 0 -72.833 10.3311 -98.5 30.998s-38.5 51.334 -38.5 92.001v295l-66 32v16h207v-302c0 -23.333 6.66699 -41.166 20 -53.499s30.333 -18.5 51 -18.5c12.667 0 26 2.33301 40 7s26 11 36 19v300l-60 32v16h201v-409l63 -31v-16h-204v64h-4
c-23.333 -23.333 -46 -41.5 -68 -54.5s-48.333 -19.5 -79 -19.5zM294 702.998c26.667 0 48.167 -8.16699 64.5 -24.5s24.5 -36.5 24.5 -60.5c0 -24.667 -8.16699 -45 -24.5 -61s-37.833 -24 -64.5 -24c-26 0 -47.333 8 -64 24s-25 36.333 -25 61
c0 24 8.33301 44.167 25 60.5s38 24.5 64 24.5zM290 677.998c-9.33301 0 -16.667 -4.16797 -22 -12.501s-8 -22.166 -8 -41.499c0 -44 12.667 -66 38 -66c20 0 30 18 30 54c0 44 -12.667 66 -38 66z" />
    <glyph glyph-name="uni0170" unicode="&#x170;" horiz-adv-x="838" 
d="M423 -10c-58 0 -108.997 9.5 -152.997 28.5s-78.333 50 -103 93s-37 100.5 -37 172.5v319l-86 41v16h323v-16l-86 -41v-320c0 -55.333 8.5 -98.833 25.5 -130.5s40 -54.167 69 -67.5s61.167 -20 96.5 -20c29.333 0 56.666 6 81.999 18s45.666 31.5 60.999 58.5
s23 62.5 23 106.5v357l-94 39v16h250v-16l-86 -40v-320c0 -72 -12 -129.5 -36 -172.5s-57.333 -74 -100 -93s-92.334 -28.5 -149.001 -28.5zM377.003 710l43 152.001h82c3.33301 -10 5 -20.333 5 -31s-5.66699 -21.334 -17 -32.001l-92 -89h-21zM514.003 710.001l59 152h82
c3.33301 -10 5.33301 -20.5 6 -31.5s-5.33301 -21.5 -18 -31.5l-107 -89h-22z" />
    <glyph glyph-name="uni0171" unicode="&#x171;" horiz-adv-x="590" 
d="M218 -10c-40 0 -72.833 10.3311 -98.5 30.998s-38.5 51.334 -38.5 92.001v295l-66 32v16h207v-302c0 -23.333 6.66699 -41.166 20 -53.499s30.333 -18.5 51 -18.5c12.667 0 26 2.33301 40 7s26 11 36 19v300l-60 32v16h201v-409l63 -31v-16h-204v64h-4
c-23.333 -23.333 -46 -41.5 -68 -54.5s-48.333 -19.5 -79 -19.5zM207 529.998l44 177h82c3.33301 -10 4.5 -20 3.5 -30s-6.16699 -21 -15.5 -33l-92 -114h-22zM344 529.998l60 176.999h82c3.33301 -10 5 -20.167 5 -30.5s-5.66699 -21.166 -17 -32.499l-108 -114h-22z" />
    <glyph glyph-name="uni0172" unicode="&#x172;" horiz-adv-x="838" 
d="M443 -240c-30.667 0 -54.998 8.33398 -72.998 25.001s-27 38.334 -27 65.001c0 22 6.83301 44.5 20.5 67.5s32.167 47.167 55.5 72.5c-57.333 0.666992 -107.666 10.5 -150.999 29.5s-77.166 50 -101.499 93s-36.5 100.167 -36.5 171.5v319l-86 41v16h323v-16l-86 -41
v-320c0 -55.333 8.5 -98.833 25.5 -130.5s40 -54.167 69 -67.5s61.167 -20 96.5 -20c29.333 0 56.666 6 81.999 18s45.666 31.5 60.999 58.5s23 62.5 23 106.5v357l-94 39v16h250v-16l-86 -40v-320c0 -66.667 -10.333 -120.834 -31 -162.501s-49.667 -72.834 -87 -93.501
s-81 -33 -131 -37c-23.333 -42.667 -35 -82 -35 -118c0 -40.667 19.333 -61 58 -61c7.33301 0 15.166 1.33301 23.499 4s16.166 6.66699 23.499 12h4v-19c-18 -32.667 -48 -49 -90 -49z" />
    <glyph glyph-name="uni0173" unicode="&#x173;" horiz-adv-x="590" 
d="M218 -10c-40 0 -72.832 10.3301 -98.499 30.9971s-38.5 51.334 -38.5 92.001v295l-66 32v16h207v-302c0 -23.333 6.66699 -41.166 20 -53.499s30.333 -18.5 51 -18.5c12.667 0 26 2.33301 40 7s26 11 36 19v300l-60 32v16h201v-409l63 -31v-16h-108
c-26 -45.333 -39 -87.666 -39 -126.999c0 -40.667 19 -61 57 -61c8 0 16.167 1.33301 24.5 4s16.166 6.66699 23.499 12h3v-19c-16.667 -32.667 -46.334 -49 -89.001 -49c-30.667 0 -55.167 8.33301 -73.5 25s-27.5 38.334 -27.5 65.001
c0 23.333 7.83301 47.166 23.5 71.499s36.834 50.5 63.501 78.5h-62v64h-4c-23.333 -23.333 -46 -41.5 -68 -54.5s-48.333 -19.5 -79 -19.5z" />
    <glyph glyph-name="uni0174" unicode="&#x174;" horiz-adv-x="1042" 
d="M281 -5l-192 609l-77 40v16h315v-16l-84 -38l115 -385h5l174 444h59l173 -444h5l116 384l-86 39v16h226v-16l-67 -36l-196 -613h-58l-179 444h-7l-184 -444h-58zM407 710l136 152h48l136 -152h-22l-138 64l-138 -64h-22z" />
    <glyph glyph-name="uni0175" unicode="&#x175;" horiz-adv-x="728" 
d="M191 0l-165 413l-62 27v16h283v-16l-69 -29v-3l84 -223h5l115 271h38l120 -270h4l86 218v4l-63 32v16h196v-16l-70 -34l-176 -406h-38l-123 271l-127 -271h-38zM242 530l136 177h48l136 -177h-22l-138 83l-138 -83h-22z" />
    <glyph glyph-name="uni0176" unicode="&#x176;" horiz-adv-x="754" 
d="M216 0v16l90 41v251l-218 297l-68 39v16h309v-16l-75 -37v-4l174 -235l156 233v4l-77 39v16h228v-16l-67 -33l-211 -302v-252l89 -41v-16h-330zM255 710l136 152h48l136 -152h-22l-138 64l-138 -64h-22z" />
    <glyph glyph-name="uni0177" unicode="&#x177;" horiz-adv-x="476" 
d="M83 -241c-15.333 0 -24.834 2.16797 -28.501 6.50098s-5.5 11.833 -5.5 22.5v69l5 5h45c16.667 0 30.5 1.16699 41.5 3.5s21 8.66602 30 18.999s18.5 27.5 28.5 51.5l26 63l-199 414l-62 27v16h276v-16l-62 -29v-3l110 -231h7l85 227v4l-59 32v16h191v-16l-71 -33
l-200 -486l-15.5 -38.5c-4.33301 -10.333 -9.16602 -20.333 -14.499 -30s-13 -21.5 -23 -35.5c-13.333 -19.333 -29.833 -33.833 -49.5 -43.5s-38.167 -14.5 -55.5 -14.5zM119.999 530.001l136 177h48l136 -177h-22l-138 83l-138 -83h-22z" />
    <glyph glyph-name="uni0178" unicode="&#x178;" horiz-adv-x="754" 
d="M216 0v16l90 41v251l-218 297l-68 39v16h309v-16l-75 -37v-4l174 -235l156 233v4l-77 39v16h228v-16l-67 -33l-211 -302v-252l89 -41v-16h-330zM317 727c-16.667 0 -30.5 5.66699 -41.5 17s-16.5 25 -16.5 41c0 16.667 5.5 30.667 16.5 42s24.833 17 41.5 17
s30.5 -5.66699 41.5 -17s16.5 -25.333 16.5 -42c0 -16 -5.5 -29.667 -16.5 -41s-24.833 -17 -41.5 -17zM515 727c-16.667 0 -30.5 5.66699 -41.5 17s-16.5 25 -16.5 41c0 16.667 5.5 30.667 16.5 42s24.833 17 41.5 17s30.5 -5.66699 41.5 -17s16.5 -25.333 16.5 -42
c0 -16 -5.5 -29.667 -16.5 -41s-24.833 -17 -41.5 -17z" />
    <glyph glyph-name="uni0179" unicode="&#x179;" horiz-adv-x="701" 
d="M84 0v32l341 573h-239l-74 -149h-16v204h510v-32l-343 -573h259l79 159h16v-214h-533zM343 710l83 152.001h110c0 -12.667 -2.66699 -24.834 -8 -36.501s-16 -22.5 -32 -32.5l-131 -83h-22z" />
    <glyph glyph-name="uni017A" unicode="&#x17a;" horiz-adv-x="502" 
d="M52 0v20l216 389h-144l-54 -109h-19l11 166h5c9.33301 -2.66699 20.833 -5 34.5 -7s26.167 -3 37.5 -3h301v-20l-216 -389h159l46 116h19v-163h-396zM248 530l83 177h110c0 -12.667 -3 -24.167 -9 -34.5s-16.333 -21.833 -31 -34.5l-131 -108h-22z" />
    <glyph glyph-name="uni017B" unicode="&#x17b;" horiz-adv-x="701" 
d="M84 0v32l341 573h-239l-74 -149h-16v204h510v-32l-343 -573h259l79 159h16v-214h-533zM355 721c-21.333 0 -38.833 6.83301 -52.5 20.5s-20.5 31.167 -20.5 52.5c0 20.667 6.83301 38 20.5 52s31.167 21 52.5 21s38.833 -7 52.5 -21s20.5 -31.333 20.5 -52
c0 -21.333 -6.83301 -38.833 -20.5 -52.5s-31.167 -20.5 -52.5 -20.5z" />
    <glyph glyph-name="uni017C" unicode="&#x17c;" horiz-adv-x="502" 
d="M52 0v20l216 389h-144l-54 -109h-19l11 166h5c9.33301 -2.66699 20.833 -5 34.5 -7s26.167 -3 37.5 -3h301v-20l-216 -389h159l46 116h19v-163h-396zM257 545c-21.333 0 -38.833 6.83301 -52.5 20.5s-20.5 31.167 -20.5 52.5s6.83301 38.833 20.5 52.5
s31.167 20.5 52.5 20.5s38.833 -6.83301 52.5 -20.5s20.5 -31.167 20.5 -52.5s-6.83301 -38.833 -20.5 -52.5s-31.167 -20.5 -52.5 -20.5z" />
    <glyph glyph-name="uni017D" unicode="&#x17d;" horiz-adv-x="701" 
d="M84 0v32l341 573h-239l-74 -149h-16v204h510v-32l-343 -573h259l79 159h16v-214h-533zM331 710l-136 152h22l138 -64l138 64h22l-136 -152h-48z" />
    <glyph glyph-name="uni017E" unicode="&#x17e;" horiz-adv-x="502" 
d="M52 0v20l216 389h-144l-54 -109h-19l11 166h5c9.33301 -2.66699 20.833 -5 34.5 -7s26.167 -3 37.5 -3h301v-20l-216 -389h159l46 116h19v-163h-396zM234 530l-136 177h22l138 -83l138 83h22l-136 -177h-48z" />
    <glyph glyph-name="uni017F" unicode="&#x17f;" horiz-adv-x="371" 
d="M36 0l0.00195312 15.999l67 32v363h-76v45h76v31c0 13.333 4.33301 30.833 13 52.5s21.167 44.5 37.5 68.5s35.666 46.833 57.999 68.5s46.833 39.334 73.5 53.001s55 20.5 85 20.5c7.33301 0 14.833 -1 22.5 -3s14.167 -4.33301 19.5 -7c16 -8 24 -16.667 24 -26
c0 -4.66699 -2 -11 -6 -19l-26 -54h-9l-19 8c-10.667 5.33301 -20.834 9.5 -30.501 12.5s-20.167 4.5 -31.5 4.5c-29.333 0 -48.333 -11.167 -57 -33.5s-13 -60.5 -13 -114.5v-471l77 -31v-16h-285z" />
    <glyph glyph-name="uni018F" unicode="&#x18f;" horiz-adv-x="685" 
d="M305 -9c-79.333 0 -141.665 26.498 -186.998 79.498s-68 126.833 -68 221.5l6 7h428v9c0 74.667 -17 133.334 -51 176.001s-89.667 64 -167 64c-34.667 0 -70.334 -5.66699 -107.001 -17s-72 -28.666 -106 -51.999h-4v37c23.333 44 59.666 80.667 108.999 110
s106.666 44 171.999 44c63.333 0 118 -12.833 164 -38.5s81.333 -61.667 106 -108s37 -100.833 37 -163.5c0 -54 -8.33301 -103.5 -25 -148.5s-40 -84 -70 -117s-65.167 -58.5 -105.5 -76.5s-84.166 -27 -131.499 -27zM333.001 50.998c44 0 78.334 16.833 103.001 50.5
s39.667 82.167 45 145.5h-289c5.33301 -66.667 20.166 -116 44.499 -148s56.5 -48 96.5 -48z" />
    <glyph glyph-name="uni0192" unicode="&#x192;" 
d="M15 -151c-14 0 -26.0059 1.16895 -36.0059 3.50195s-18.667 5.16602 -26 8.49902c-19.333 7.33301 -29 15.333 -29 24c0 6 1.66699 11.667 5 17l30 56h7l23 -18c8.66699 -6.66699 17.334 -12.667 26.001 -18s19.334 -8 32.001 -8c14 0 24.833 3.16699 32.5 9.5
s14.334 19 20.001 38s12.5 47.833 20.5 86.5l54 265h-106l7 42h108l11 55c5.33301 26 15.833 54 31.5 84s35.334 58.333 59.001 85s50.5 48.5 80.5 65.5s62 25.5 96 25.5c8.66699 0 17.834 -0.833008 27.501 -2.5s18.167 -3.83398 25.5 -6.50098c24 -8 36 -17 36 -27
c0 -5.33301 -1.66699 -11.333 -5 -18l-26 -49h-7l-24 14c-13.333 8 -24.5 14.167 -33.5 18.5s-20.167 6.5 -33.5 6.5c-14 0 -26 -4.33301 -36 -13s-19 -24.334 -27 -47.001s-16 -54.667 -24 -96l-19 -95h171l-7 -42h-173l-46 -229c-5.33301 -26 -15.5 -52.667 -30.5 -80
s-33.5 -52.666 -55.5 -75.999s-46.667 -42.333 -74 -57s-55.666 -22 -84.999 -22z" />
    <glyph glyph-name="uni01A0" unicode="&#x1a0;" horiz-adv-x="789" 
d="M394 -10c-49.333 0 -95.0029 8.50195 -137.003 25.502s-78.5 40.667 -109.5 71s-55.167 66.166 -72.5 107.499s-26 86.666 -26 135.999s8.66699 94.666 26 135.999s41.5 77.166 72.5 107.499s67.5 54 109.5 71s87.667 25.5 137 25.5c30.667 0 60.334 -3.33301 89.001 -10
v0h1c16 -4 31.667 -9 47 -15c6 -1.33301 11.667 -2.16602 17 -2.49902s10.333 -0.5 15 -0.5c24.667 0 42.167 5.16699 52.5 15.5s15.5 24.166 15.5 41.499v48l6 6h59c10.667 0 17.834 -1.83301 21.501 -5.5s5.5 -12.167 5.5 -25.5c0 -34.667 -11.667 -61.167 -35 -79.5
s-54.666 -27.5 -93.999 -27.5h-5c46.667 -29.333 83.5 -68.833 110.5 -118.5s40.5 -105.167 40.5 -166.5c0 -49.333 -8.66699 -94.666 -26 -135.999s-41.5 -77.166 -72.5 -107.499s-67.5 -54 -109.5 -71s-88 -25.5 -138 -25.5zM409.997 42.002
c33.333 0 62.833 10.667 88.5 32s45.667 51.333 60 90s21.5 84 21.5 136c0 64 -8.83301 120 -26.5 168s-41.5 85.167 -71.5 111.5s-63.667 39.5 -101 39.5c-33.333 0 -63 -10.5 -89 -31.5s-46.5 -50.833 -61.5 -89.5s-22.5 -84 -22.5 -136c0 -64 9 -120 27 -168
s42.333 -85.333 73 -112s64.667 -40 102 -40z" />
    <glyph glyph-name="uni01A1" unicode="&#x1a1;" horiz-adv-x="547" 
d="M274 -10c-47.333 0 -88.999 10.833 -124.999 32.5s-64 50.5 -84 86.5s-30 75.667 -30 119c0 44 10 84 30 120s48 64.667 84 86s77.667 32 125 32c40 0 76.667 -8.33301 110 -25c9.33301 -2.66699 17.666 -4.66699 24.999 -6s14.333 -2 21 -2c21.333 0 36.166 5 44.499 15
s12.5 23.667 12.5 41v48l6 6h59c10.667 0 17.834 -1.83301 21.501 -5.5s5.5 -12.167 5.5 -25.5c0 -30.667 -10.5 -56.167 -31.5 -76.5s-49.5 -30.5 -85.5 -30.5c-9.33301 0 -18 0.333008 -26 1c24 -22 42.667 -48.333 56 -79s20 -63.667 20 -99c0 -43.333 -10 -83 -30 -119
s-47.833 -64.833 -83.5 -86.5s-77.167 -32.5 -124.5 -32.5zM285.001 39c19.333 0 35.166 7.83496 47.499 23.502s21.333 36.5 27 62.5s8.5 53.667 8.5 83c0 36 -3.5 70 -10.5 102s-18 58 -33 78s-34.833 30 -59.5 30c-20 0 -36.333 -7.83301 -49 -23.5
s-22 -36.334 -28 -62.001s-9 -53.5 -9 -83.5c0 -36.667 3.66699 -70.834 11 -102.501s18.833 -57.5 34.5 -77.5s35.834 -30 60.501 -30z" />
    <glyph glyph-name="uni01AF" unicode="&#x1af;" horiz-adv-x="838" 
d="M423 -10c-58 0 -108.998 9.50098 -152.998 28.501s-78.333 50 -103 93s-37 100.5 -37 172.5v319l-86 41v16h323v-16l-86 -41v-320c0 -55.333 8.5 -98.833 25.5 -130.5s40 -54.334 69 -68.001s61.167 -20.167 96.5 -19.5c29.333 0 56.666 6 81.999 18
s45.666 31.5 60.999 58.5s23 62.5 23 106.5v357l-94 39v16h245c25.333 0 43 3.5 53 10.5s15 18.833 15 35.5v41l6 6h59c10.667 0 17.834 -1.83301 21.501 -5.5s5.5 -12.167 5.5 -25.5c0 -30.667 -11.5 -53 -34.5 -67s-54.5 -21 -94.5 -21h-48l-64 -30v-320
c0 -72 -12 -129.5 -36 -172.5s-57.333 -74 -100 -93s-92.334 -28.5 -149.001 -28.5z" />
    </font>
</defs>
</svg>
